<svg xmlns="http://www.w3.org/2000/svg" id="Layer_1" x="0" y="0" version="1.1" viewBox="0 0 29 29" xml:space="preserve"><path d="M4 13.5v10a1 1 0 0 1-2 0v-10a1 1 0 0 1 2 0z"/><path d="M26 22.5H3a1 1 0 0 1-1-1v-6a1 1 0 0 1 1-1h23a1 1 0 0 1 1 1v6a1 1 0 0 1-1 1zm-22-2h21v-4H4v4zM16 12.508h-3a1 1 0 0 1-1-1V10.5H9v1a1 1 0 0 1-1 1H5a1 1 0 0 1-1-1v-5c0-1.654 1.346-3 3-3h15c1.654 0 3 1.346 3 3v5a1 1 0 0 1-1 1h-3a1 1 0 0 1-1-1v-1h-3v1.008a1 1 0 0 1-1 1zm-2-2 1-.008c0-1.103.897-2 2-2h3c1.103 0 2 .897 2 2h1v-4c0-.551-.449-1-1-1H7c-.551 0-1 .449-1 1v4h1c0-1.103.897-2 2-2h3c1.103 0 2 .897 2 2v.008z"/><path d="M27 13.5v10a1 1 0 0 1-2 0v-10a1 1 0 0 1 2 0z"/></svg>