<svg id="SvgjsSvg1011" width="288" height="288" xmlns="http://www.w3.org/2000/svg" version="1.1" xmlns:xlink="http://www.w3.org/1999/xlink" xmlns:svgjs="http://svgjs.com/svgjs"><defs id="SvgjsDefs1012"></defs><g id="SvgjsG1013"><svg xmlns="http://www.w3.org/2000/svg" viewBox="0 0 32 32" width="288" height="288"><path d="M3 9h.56l.88 15H4a1 1 0 0 0-1 1v4a1 1 0 0 0 1 1h9a1 1 0 0 0 1-1v-4a1 1 0 0 0-1-1h-.44l.24-4h6.4l.24 4H19a1 1 0 0 0-1 1v4a1 1 0 0 0 1 1h9a1 1 0 0 0 1-1v-4a1 1 0 0 0-1-1h-.44l.88-15H29a1 1 0 0 0 1-1V3a1 1 0 0 0-1-1H18a1 1 0 0 0-1 1v5a1 1 0 0 0 1 1h.56l.11 2h-5.34l.11-2H14a1 1 0 0 0 1-1V3a1 1 0 0 0-1-1H3a1 1 0 0 0-1 1v5a1 1 0 0 0 1 1Zm9 19H5v-2h7ZM5.56 9h5.88l-.88 15H6.44ZM27 28h-7v-2h7ZM20.56 9h5.88l-.88 15h-4.12ZM19 4h9v3h-9Zm-.21 9 .3 5h-6.18l.3-5ZM4 4h9v3H4Z" data-name="Layer 30" fill="#10a563" class="color000 svgShape"></path></svg></g></svg>