<svg id="SvgjsSvg1001" width="288" height="288" xmlns="http://www.w3.org/2000/svg" version="1.1" xmlns:xlink="http://www.w3.org/1999/xlink" xmlns:svgjs="http://svgjs.com/svgjs"><defs id="SvgjsDefs1002"></defs><g id="SvgjsG1008"><svg xmlns="http://www.w3.org/2000/svg" fill="none" viewBox="0 0 64 64" width="288" height="288"><path fill="#666666" fill-rule="evenodd" d="M20 14a1 1 0 1 0-2 0v10a4.002 4.002 0 0 0 3 3.874V48a3 3 0 1 0 6 0V27.874c1.725-.444 3-2.01 3-3.874V14a1 1 0 1 0-2 0v10a2 2 0 0 1-2 2h-1V14a1 1 0 1 0-2 0v12h-1a2 2 0 0 1-2-2V14Zm3 14v20a1 1 0 1 0 2 0V28h-2Zm13-9a4 4 0 0 1 8 0v3a4 4 0 0 1-8 0v-3Zm4-6a6 6 0 0 0-6 6v3c0 2.22 1.207 4.16 3 5.197V48a3 3 0 1 0 6 0V27.197A5.998 5.998 0 0 0 46 22v-3a6 6 0 0 0-6-6Zm-1 35V27.917a6.036 6.036 0 0 0 2 0V48a1 1 0 1 1-2 0Z" clip-rule="evenodd" class="color000 svgShape"></path></svg></g></svg>