<svg width="15" height="538" viewBox="0 0 15 538" fill="none" xmlns="http://www.w3.org/2000/svg">
<path d="M13.6893 531C13.6893 534.584 10.7431 537.5 7.09466 537.5C3.44618 537.5 0.500004 534.584 0.500004 531C0.500004 527.416 3.44618 524.5 7.09466 524.5C10.7431 524.5 13.6893 527.416 13.6893 531Z" stroke="#00A19A"/>
<path d="M13.6893 531C13.6893 534.584 10.7431 537.5 7.09466 537.5C3.44618 537.5 0.500004 534.584 0.500004 531C0.500004 527.416 3.44618 524.5 7.09466 524.5C10.7431 524.5 13.6893 527.416 13.6893 531Z" stroke="#00A19A"/>
<path d="M7.01376 1.07475C6.85082 1.07475 6.7134 1.06304 6.60152 1.03961C6.48963 1.01619 6.44034 0.98863 6.45365 0.956939C6.47402 0.899068 6.54191 0.848775 6.65733 0.806061C6.77274 0.763346 6.95605 0.719254 7.20725 0.673784C7.48561 0.62418 7.69784 0.581108 7.84394 0.544566C7.99004 0.508025 8.06296 0.466358 8.06269 0.419565C8.06269 0.363072 7.9694 0.316224 7.78284 0.279021C7.59627 0.241818 7.33652 0.223217 7.00357 0.223217C6.78632 0.223217 6.60125 0.232531 6.44836 0.25116C6.29546 0.269789 6.17163 0.292855 6.07685 0.320357C5.9818 0.347915 5.86476 0.366517 5.72572 0.376162C5.58667 0.385807 5.45252 0.385118 5.32325 0.374095C5.1671 0.360316 5.06024 0.337581 5.00267 0.30589C4.9451 0.274198 4.95691 0.244574 5.03811 0.217016C5.23499 0.155012 5.49977 0.103341 5.83244 0.0620047C6.16511 0.0206682 6.55549 0 7.00357 0C7.71644 0 8.26473 0.0402892 8.64846 0.120868C9.03218 0.201446 9.22391 0.298256 9.22363 0.411298C9.22363 0.480192 9.15072 0.53911 9.00489 0.588052C8.85906 0.636995 8.62985 0.692441 8.31728 0.75439C8.08645 0.798482 7.92351 0.834307 7.82846 0.861865C7.73341 0.889423 7.66891 0.921114 7.63497 0.956939C7.60781 0.991386 7.53652 1.01963 7.42111 1.04168C7.30569 1.06372 7.16991 1.07475 7.01376 1.07475ZM7.00357 1.57078C6.77953 1.57078 6.58767 1.55458 6.42799 1.52217C6.26831 1.48977 6.1886 1.45085 6.18887 1.40544C6.18887 1.35997 6.26871 1.32103 6.4284 1.28862C6.58808 1.25621 6.7798 1.24004 7.00357 1.24009C7.22762 1.24009 7.41948 1.2563 7.57916 1.28871C7.73884 1.32111 7.81855 1.36002 7.81828 1.40544C7.81828 1.45091 7.73843 1.48985 7.57875 1.52226C7.41907 1.55466 7.22735 1.57084 7.00357 1.57078Z" fill="#00A19A"/>
</svg>
