<svg width="38" height="37" viewBox="0 0 38 37" fill="none" xmlns="http://www.w3.org/2000/svg">
<path d="M29.0254 7.63898H25.9709V5.46523C25.9709 5.0644 25.6088 4.67898 25.1837 4.6944C24.7585 4.70981 24.3964 5.03356 24.3964 5.46523V7.63898H13.3751V5.46523C13.3751 5.0644 13.013 4.67898 12.5879 4.6944C12.1628 4.70981 11.8007 5.03356 11.8007 5.46523V7.63898H8.76194C7.718 7.63898 6.71682 8.04504 5.97864 8.76784C5.24047 9.49064 4.82577 10.471 4.82577 11.4932V28.4515C4.82577 29.4737 5.24047 30.454 5.97864 31.1768C6.71682 31.8996 7.718 32.3057 8.76194 32.3057H29.0254C30.0693 32.3057 31.0705 31.8996 31.8086 31.1768C32.5468 30.454 32.9615 29.4737 32.9615 28.4515V11.4932C32.9615 10.471 32.5468 9.49064 31.8086 8.76784C31.0705 8.04504 30.0693 7.63898 29.0254 7.63898ZM31.3871 28.4515C31.3871 29.7311 30.3322 30.764 29.0254 30.764H8.76194C7.45513 30.764 6.40023 29.7311 6.40023 28.4515V15.4707H31.3871V28.4515ZM31.3871 13.929H6.40023V11.4932C6.40023 10.2136 7.45513 9.18065 8.76194 9.18065H11.8007V10.0902C11.8007 10.4911 12.1628 10.8765 12.5879 10.8611C13.013 10.8457 13.3751 10.5219 13.3751 10.0902V9.18065H24.3964V10.0902C24.3964 10.4911 24.7585 10.8765 25.1837 10.8611C25.6088 10.8457 25.9709 10.5219 25.9709 10.0902V9.18065H29.0254C30.3322 9.18065 31.3871 10.2136 31.3871 11.4932V13.929Z" fill="#969696"/>
<path d="M18.0938 26.4751V21.1409C18.0938 21.1204 18.0882 21.1002 18.0776 21.0825C18.067 21.0648 18.0518 21.0502 18.0335 21.0402C18.0153 21.0301 17.9946 21.025 17.9736 21.0254C17.9527 21.0257 17.9322 21.0316 17.9143 21.0422L16.9098 21.6466C16.874 21.6679 16.8331 21.6795 16.7912 21.6802C16.7493 21.681 16.7079 21.6708 16.6714 21.6507C16.6349 21.6306 16.6044 21.6013 16.5832 21.5659C16.5621 21.5305 16.5509 21.4903 16.5508 21.4492V20.4456C16.5508 20.2837 16.6374 20.1326 16.7807 20.0494L17.9836 19.3448C18.0568 19.3017 18.1406 19.2788 18.2261 19.2786H19.2117C19.2737 19.2786 19.3351 19.2905 19.3924 19.3138C19.4498 19.337 19.5018 19.3711 19.5457 19.414C19.5895 19.457 19.6243 19.5079 19.6481 19.5641C19.6718 19.6202 19.684 19.6803 19.684 19.7411V26.4735C19.684 26.5962 19.6343 26.7138 19.5457 26.8006C19.4571 26.8873 19.337 26.936 19.2117 26.936H18.5677C18.5056 26.9366 18.4439 26.9251 18.3864 26.9022C18.3288 26.8793 18.2764 26.8454 18.2323 26.8026C18.1883 26.7597 18.1533 26.7086 18.1295 26.6524C18.1057 26.5962 18.0936 26.5359 18.0938 26.4751Z" fill="#969696"/>
</svg>
