<svg width="35" height="35" viewBox="0 0 35 35" fill="none" xmlns="http://www.w3.org/2000/svg">
<path d="M28.1459 24.6459C28.9917 23.1729 29.5313 21.3938 28.8896 19.3229C28.1167 16.8146 25.9146 14.875 23.2896 14.6271C22.3162 14.5232 21.3318 14.6385 20.4088 14.9645C19.4857 15.2906 18.6473 15.8191 17.9551 16.5113C17.2628 17.2035 16.7343 18.0419 16.4083 18.965C16.0822 19.8881 15.967 20.8724 16.0709 21.8459C16.3334 24.4563 18.2584 26.6729 20.7667 27.4459C22.8521 28.0875 24.6167 27.5479 26.0896 26.7021L29.7354 30.3479C30.3042 30.9167 31.2084 30.9167 31.7771 30.3479C31.9122 30.2145 32.0195 30.0555 32.0927 29.8803C32.1659 29.705 32.2036 29.517 32.2036 29.3271C32.2036 29.1372 32.1659 28.9492 32.0927 28.7739C32.0195 28.5987 31.9122 28.4398 31.7771 28.3063L28.1459 24.6459ZM22.6042 24.7917C20.5625 24.7917 18.9584 23.1875 18.9584 21.1459C18.9584 19.1042 20.5625 17.5 22.6042 17.5C24.6459 17.5 26.25 19.1042 26.25 21.1459C26.25 23.1875 24.6459 24.7917 22.6042 24.7917ZM17.5 29.1667V32.0834C9.45002 32.0834 2.91669 25.55 2.91669 17.5C2.91669 9.45002 9.45002 2.91669 17.5 2.91669C24.5584 2.91669 30.4354 7.93336 31.7917 14.5834H28.7729C28.3181 12.8215 27.4574 11.1904 26.2597 9.82046C25.062 8.45055 23.5604 7.3798 21.875 6.69377V7.29169C21.875 8.89586 20.5625 10.2084 18.9584 10.2084H16.0417V13.125C16.0417 13.9271 15.3854 14.5834 14.5834 14.5834H11.6667V17.5H14.5834V21.875H13.125L6.13961 14.8896C5.95002 15.7354 5.83336 16.5959 5.83336 17.5C5.83336 23.9313 11.0688 29.1667 17.5 29.1667Z" fill="black"/>
</svg>
