<svg width="29" height="28" viewBox="0 0 29 28" fill="none" xmlns="http://www.w3.org/2000/svg">
<path d="M22.5573 27.7565C22.325 27.7574 22.0957 27.7023 21.8889 27.5958L14.4781 23.6961L7.06732 27.5958C6.82668 27.723 6.55537 27.7798 6.28422 27.7597C6.01307 27.7396 5.75297 27.6435 5.53348 27.4822C5.31399 27.3209 5.14392 27.101 5.0426 26.8474C4.94128 26.5938 4.91278 26.3167 4.96033 26.0476L6.41343 17.8247L0.426673 11.9825C0.239888 11.7952 0.107386 11.5602 0.0433859 11.3029C-0.0206141 11.0456 -0.0136958 10.7756 0.0633983 10.522C0.14762 10.2624 0.302544 10.0317 0.510589 9.85619C0.718635 9.68064 0.971471 9.56722 1.24041 9.5288L9.52306 8.31654L13.1703 0.823911C13.2893 0.576975 13.4751 0.368719 13.7064 0.223002C13.9377 0.0772854 14.2051 0 14.4781 0C14.7511 0 15.0185 0.0772854 15.2498 0.223002C15.4811 0.368719 15.6669 0.576975 15.7859 0.823911L19.4768 8.30193L27.7594 9.51419C28.0284 9.55261 28.2812 9.66603 28.4892 9.84159C28.6973 10.0171 28.8522 10.2478 28.9364 10.5074C29.0135 10.761 29.0204 11.031 28.9564 11.2883C28.8924 11.5456 28.7599 11.7806 28.5732 11.9679L22.5864 17.8101L24.0395 26.033C24.0914 26.3068 24.0642 26.5899 23.9612 26.8487C23.8582 27.1075 23.6837 27.3313 23.4583 27.4936C23.1951 27.6789 22.8783 27.7714 22.5573 27.7565Z" fill="#ECC43A"/>
</svg>
