<svg width="143" height="22" viewBox="0 0 143 22" fill="none" xmlns="http://www.w3.org/2000/svg">
<path d="M48.2821 20.1747C48.1247 20.1753 47.9695 20.1382 47.8294 20.0664L42.8101 17.4387L37.7909 20.0664C37.6279 20.1521 37.4441 20.1904 37.2605 20.1769C37.0769 20.1633 36.9007 20.0985 36.752 19.9899C36.6034 19.8812 36.4882 19.733 36.4196 19.5621C36.3509 19.3912 36.3316 19.2045 36.3638 19.0232L37.348 13.4824L33.2933 9.5457C33.1667 9.41945 33.077 9.26115 33.0337 9.08776C32.9903 8.91437 32.995 8.73246 33.0472 8.56153C33.1043 8.38662 33.2092 8.2312 33.3501 8.11291C33.491 7.99462 33.6622 7.91819 33.8444 7.8923L39.4541 7.07544L41.9244 2.02667C42.005 1.86028 42.1308 1.71995 42.2875 1.62176C42.4441 1.52357 42.6252 1.4715 42.8101 1.4715C42.995 1.4715 43.1762 1.52357 43.3328 1.62176C43.4895 1.71995 43.6153 1.86028 43.6959 2.02667L46.1957 7.0656L51.8054 7.88246C51.9875 7.90835 52.1588 7.98478 52.2997 8.10307C52.4406 8.22136 52.5455 8.37678 52.6026 8.55169C52.6548 8.72261 52.6595 8.90453 52.6161 9.07792C52.5728 9.2513 52.483 9.40961 52.3565 9.53586L48.3018 13.4725L49.2859 19.0134C49.3211 19.1979 49.3027 19.3886 49.2329 19.563C49.1632 19.7374 49.045 19.8882 48.8923 19.9975C48.7141 20.1224 48.4995 20.1847 48.2821 20.1747Z" fill="#EBAB65"/>
<path d="M71.2821 20.1747C71.1247 20.1753 70.9695 20.1382 70.8294 20.0664L65.8101 17.4387L60.7909 20.0664C60.6279 20.1521 60.4441 20.1904 60.2605 20.1769C60.0769 20.1633 59.9007 20.0985 59.752 19.9899C59.6034 19.8812 59.4882 19.733 59.4196 19.5621C59.3509 19.3912 59.3316 19.2045 59.3638 19.0232L60.348 13.4824L56.2933 9.5457C56.1667 9.41945 56.077 9.26115 56.0337 9.08776C55.9903 8.91437 55.995 8.73246 56.0472 8.56153C56.1043 8.38662 56.2092 8.2312 56.3501 8.11291C56.491 7.99462 56.6622 7.91819 56.8444 7.8923L62.4541 7.07544L64.9244 2.02667C65.005 1.86028 65.1308 1.71995 65.2875 1.62176C65.4441 1.52357 65.6252 1.4715 65.8101 1.4715C65.995 1.4715 66.1762 1.52357 66.3328 1.62176C66.4895 1.71995 66.6153 1.86028 66.6959 2.02667L69.1957 7.0656L74.8054 7.88246C74.9875 7.90835 75.1588 7.98478 75.2997 8.10307C75.4406 8.22136 75.5455 8.37678 75.6026 8.55169C75.6548 8.72261 75.6595 8.90453 75.6161 9.07792C75.5728 9.2513 75.483 9.40961 75.3565 9.53586L71.3018 13.4725L72.2859 19.0134C72.3211 19.1979 72.3027 19.3886 72.2329 19.563C72.1632 19.7374 72.045 19.8882 71.8923 19.9975C71.7141 20.1224 71.4995 20.1847 71.2821 20.1747Z" fill="#EBAB65"/>
<path d="M94.282 20.1749C94.1246 20.1755 93.9693 20.1384 93.8293 20.0666L88.81 17.4389L83.7908 20.0666C83.6278 20.1523 83.444 20.1906 83.2604 20.177C83.0767 20.1635 82.9006 20.0987 82.7519 19.99C82.6033 19.8814 82.4881 19.7332 82.4194 19.5623C82.3508 19.3914 82.3315 19.2047 82.3637 19.0234L83.3479 13.4825L79.2931 9.54588C79.1666 9.41964 79.0769 9.26133 79.0335 9.08794C78.9902 8.91456 78.9949 8.73264 79.0471 8.56172C79.1041 8.3868 79.2091 8.23138 79.35 8.11309C79.4909 7.9948 79.6621 7.91837 79.8443 7.89248L85.454 7.07563L87.9243 2.02686C88.0048 1.86046 88.1307 1.72013 88.2873 1.62195C88.444 1.52376 88.6251 1.47168 88.81 1.47168C88.9949 1.47168 89.176 1.52376 89.3327 1.62195C89.4893 1.72013 89.6152 1.86046 89.6958 2.02686L92.1955 7.06578L97.8053 7.88264C97.9874 7.90853 98.1587 7.98496 98.2996 8.10325C98.4405 8.22154 98.5454 8.37696 98.6025 8.55187C98.6547 8.7228 98.6594 8.90472 98.616 9.0781C98.5727 9.25149 98.4829 9.4098 98.3564 9.53604L94.3017 13.4727L95.2858 19.0136C95.321 19.1981 95.3026 19.3888 95.2328 19.5632C95.163 19.7375 95.0448 19.8883 94.8922 19.9977C94.7139 20.1226 94.4994 20.1849 94.282 20.1749ZM88.81 15.3525C88.9678 15.3485 89.1238 15.3858 89.2627 15.4607L92.973 17.429L92.2644 13.2857C92.2369 13.1275 92.2486 12.965 92.2983 12.8123C92.3481 12.6596 92.4344 12.5214 92.5498 12.4098L95.5023 9.5262L91.3688 8.91602C91.2173 8.8855 91.075 8.8197 90.9536 8.72394C90.8322 8.62819 90.7351 8.50518 90.6701 8.36488L88.81 4.67426L86.9499 8.36488C86.8787 8.50631 86.7745 8.62847 86.646 8.72099C86.5175 8.81351 86.3685 8.87366 86.2118 8.89633L82.0783 9.50651L85.0308 12.3901C85.1462 12.5018 85.2326 12.6399 85.2823 12.7926C85.3321 12.9453 85.3437 13.1078 85.3162 13.266L84.6076 17.3602L88.3179 15.3918C88.4751 15.3334 88.6455 15.3197 88.81 15.3525Z" fill="#EBAB65"/>
<path d="M116.282 20.1749C116.125 20.1755 115.97 20.1384 115.829 20.0666L110.81 17.4389L105.791 20.0666C105.628 20.1523 105.444 20.1906 105.261 20.177C105.077 20.1635 104.901 20.0987 104.752 19.99C104.603 19.8814 104.488 19.7332 104.42 19.5623C104.351 19.3914 104.332 19.2047 104.364 19.0234L105.348 13.4825L101.293 9.54588C101.167 9.41964 101.077 9.26133 101.034 9.08794C100.99 8.91456 100.995 8.73264 101.047 8.56172C101.104 8.3868 101.209 8.23138 101.35 8.11309C101.491 7.9948 101.662 7.91837 101.845 7.89248L107.454 7.07563L109.925 2.02686C110.005 1.86046 110.131 1.72013 110.288 1.62195C110.444 1.52376 110.625 1.47168 110.81 1.47168C110.995 1.47168 111.176 1.52376 111.333 1.62195C111.49 1.72013 111.615 1.86046 111.696 2.02686L114.196 7.06578L119.806 7.88264C119.988 7.90853 120.159 7.98496 120.3 8.10325C120.441 8.22154 120.546 8.37696 120.603 8.55187C120.655 8.7228 120.66 8.90472 120.616 9.0781C120.573 9.25149 120.483 9.4098 120.357 9.53604L116.302 13.4727L117.286 19.0136C117.321 19.1981 117.303 19.3888 117.233 19.5632C117.163 19.7375 117.045 19.8883 116.892 19.9977C116.714 20.1226 116.5 20.1849 116.282 20.1749ZM110.81 15.3525C110.968 15.3485 111.124 15.3858 111.263 15.4607L114.973 17.429L114.265 13.2857C114.237 13.1275 114.249 12.965 114.299 12.8123C114.348 12.6596 114.435 12.5214 114.55 12.4098L117.503 9.5262L113.369 8.91602C113.218 8.8855 113.075 8.8197 112.954 8.72394C112.832 8.62819 112.735 8.50518 112.67 8.36488L110.81 4.67426L108.95 8.36488C108.879 8.50631 108.775 8.62847 108.646 8.72099C108.518 8.81351 108.369 8.87366 108.212 8.89633L104.079 9.50651L107.031 12.3901C107.146 12.5018 107.233 12.6399 107.283 12.7926C107.332 12.9453 107.344 13.1078 107.316 13.266L106.608 17.3602L110.318 15.3918C110.475 15.3334 110.646 15.3197 110.81 15.3525Z" fill="#EBAB65"/>
<path d="M137.875 20.1747C137.718 20.1753 137.562 20.1382 137.422 20.0664L132.403 17.4387L127.384 20.0664C127.221 20.1521 127.037 20.1904 126.854 20.1769C126.67 20.1633 126.494 20.0985 126.345 19.9899C126.196 19.8812 126.081 19.733 126.013 19.5621C125.944 19.3912 125.925 19.2045 125.957 19.0232L126.941 13.4824L122.886 9.5457C122.76 9.41945 122.67 9.26115 122.627 9.08776C122.583 8.91437 122.588 8.73246 122.64 8.56153C122.697 8.38662 122.802 8.2312 122.943 8.11291C123.084 7.99462 123.255 7.91819 123.437 7.8923L129.047 7.07544L131.517 2.02667C131.598 1.86028 131.724 1.71995 131.88 1.62176C132.037 1.52357 132.218 1.4715 132.403 1.4715C132.588 1.4715 132.769 1.52357 132.926 1.62176C133.082 1.71995 133.208 1.86028 133.289 2.02667L135.789 7.0656L141.398 7.88246C141.581 7.90835 141.752 7.98478 141.893 8.10307C142.034 8.22136 142.139 8.37678 142.196 8.55169C142.248 8.72261 142.252 8.90453 142.209 9.07792C142.166 9.2513 142.076 9.40961 141.95 9.53586L137.895 13.4725L138.879 19.0134C138.914 19.1979 138.896 19.3886 138.826 19.563C138.756 19.7374 138.638 19.8882 138.485 19.9975C138.307 20.1224 138.092 20.1847 137.875 20.1747ZM132.403 15.3523C132.561 15.3483 132.717 15.3856 132.856 15.4605L136.566 17.4289L135.858 13.2855C135.83 13.1273 135.842 12.9648 135.891 12.8121C135.941 12.6594 136.028 12.5213 136.143 12.4096L139.095 9.52602L134.962 8.91583C134.81 8.88531 134.668 8.81951 134.547 8.72376C134.425 8.62801 134.328 8.505 134.263 8.3647L132.403 4.67408L130.543 8.3647C130.472 8.50613 130.368 8.62829 130.239 8.72081C130.111 8.81333 129.962 8.87348 129.805 8.89615L125.671 9.50633L128.624 12.3899C128.739 12.5016 128.826 12.6398 128.875 12.7924C128.925 12.9451 128.937 13.1076 128.909 13.2658L128.201 17.36L131.911 15.3916C132.068 15.3332 132.239 15.3196 132.403 15.3523Z" fill="#EBAB65"/>
<rect x="0.5" y="0.5" width="21" height="21" rx="2.5" fill="#FCFBFB" stroke="#939191"/>
</svg>
