<svg width="49" height="56" viewBox="0 0 49 56" fill="none" xmlns="http://www.w3.org/2000/svg">
<path d="M5.88462 10.3421C4.98696 10.3421 4.12607 10.7552 3.49133 11.4905C2.85659 12.2258 2.5 13.2231 2.5 14.263V49.5512C2.5 50.5911 2.85659 51.5884 3.49133 52.3237C4.12607 53.059 4.98696 53.4721 5.88462 53.4721H43.1154C44.013 53.4721 44.8739 53.059 45.5087 52.3237C46.1434 51.5884 46.5 50.5911 46.5 49.5512V14.263C46.5 13.2231 46.1434 12.2258 45.5087 11.4905C44.8739 10.7552 44.013 10.3421 43.1154 10.3421H36.3462" stroke="white" stroke-width="5" stroke-linecap="round" stroke-linejoin="round"/>
<path d="M12.6543 2.5V18.1836" stroke="white" stroke-width="5" stroke-linecap="round" stroke-linejoin="round"/>
<path d="M36.3457 2.5V18.1836" stroke="white" stroke-width="5" stroke-linecap="round" stroke-linejoin="round"/>
<path d="M12.6543 10.3421H29.5774" stroke="white" stroke-width="3" stroke-linecap="round" stroke-linejoin="round"/>
<path d="M14.3467 35.8279L21.1159 41.7093L32.9621 26.0256" stroke="white" stroke-width="5" stroke-linecap="round" stroke-linejoin="round"/>
</svg>
