<svg width="305" height="27" viewBox="0 0 305 27" fill="none" xmlns="http://www.w3.org/2000/svg">
<g clip-path="url(#clip0_1229_2933)">
<path d="M26.8582 0.0384521V26.9232H22.0621V14.5946H4.7961V26.9232H0V0.0384521H4.7961V9.79379H22.0621V0.0384521H26.8582Z" fill="#008D36"/>
<path d="M56.5555 26.9232H51.1838L48.7282 22.1224L42.8578 10.6003L36.9874 22.1224L34.5318 26.9232H29.1602L31.6158 22.1224L42.8578 0.0384521L54.0999 22.1224L56.5555 26.9232Z" fill="#008D36"/>
<path d="M79.9991 22.1607V26.9616H66.3782C65.0353 26.9616 63.7691 26.6543 62.6181 26.0782C60.9299 25.2333 59.5486 23.8506 58.7428 22.1607C58.1673 21.0085 57.8604 19.7411 57.8604 18.3968V0.0767822H62.6565V18.8577C62.8867 20.5476 64.2296 21.8919 65.9178 22.1223L79.9991 22.1607Z" fill="#008D36"/>
<path d="M109.696 26.9232H104.324L101.869 22.1224L95.9984 10.6003L90.128 22.1224L87.6724 26.9232H82.3008L84.7564 22.1224L95.9984 0.0384521L107.241 22.1224L109.696 26.9232Z" fill="#008D36"/>
<path d="M133.14 22.1607V26.9616H119.519C118.176 26.9616 116.91 26.6543 115.759 26.0782C114.07 25.2333 112.689 23.8506 111.883 22.1607C111.308 21.0085 111.001 19.7411 111.001 18.3968V0.0767822H115.797V18.8577C116.027 20.5476 117.37 21.8919 119.058 22.1223L133.14 22.1607Z" fill="#008D36"/>
<path d="M163.835 0.0384521V26.9232H159.039V14.5946H141.773V26.9232H136.977V0.0384521H141.773V9.79379H159.039V0.0384521H163.835Z" fill="#45B9B4"/>
<path d="M193.609 13.4808C193.609 20.8934 187.585 26.9232 180.18 26.9232C172.775 26.9232 166.751 20.8934 166.751 13.4808C166.751 6.06832 172.775 0.0384521 180.18 0.0384521C187.585 0.0384521 193.609 6.06832 193.609 13.4808ZM188.813 13.4808C188.813 8.7184 184.938 4.83931 180.18 4.83931C175.422 4.83931 171.547 8.7184 171.547 13.4808C171.547 18.2433 175.422 22.1224 180.18 22.1224C184.938 22.1224 188.813 18.2433 188.813 13.4808Z" fill="#45B9B4"/>
<path d="M218.664 22.1607V26.9616H205.043C203.7 26.9616 202.434 26.6543 201.283 26.0782C199.595 25.2333 198.214 23.8506 197.408 22.1607C196.832 21.0085 196.525 19.7411 196.525 18.3968V0.0767822H201.321V18.8577C201.552 20.5476 202.895 21.8919 204.583 22.1223L218.664 22.1607Z" fill="#45B9B4"/>
<path d="M222.501 26.9232V0.0384521H227.297V26.9232H222.501Z" fill="#45B9B4"/>
<path d="M244.525 0.076859C251.93 0.076859 257.954 6.06833 257.954 13.4808C257.954 16.7838 256.764 19.818 254.769 22.1608C254.539 22.4296 254.27 22.6985 254.002 22.9673C251.584 25.4254 248.246 26.9232 244.563 26.9232H231.134V0.0384521H244.563L244.525 0.076859ZM253.151 13.5193C253.151 8.7568 249.276 4.87771 244.518 4.87771H235.885V22.1608H244.518C249.276 22.1608 253.151 18.2817 253.151 13.5193Z" fill="#45B9B4"/>
<path d="M284.306 26.9232H278.935L276.479 22.1224L270.609 10.6003L264.738 22.1224L262.283 26.9232H256.911L259.367 22.1224L270.609 0.0384521L281.851 22.1224L284.306 26.9232Z" fill="#45B9B4"/>
<path d="M280.7 26.9232H280.777L280.7 27V26.9232ZM305 0L294.603 13.4808L294.027 14.2105V26.8848H289.231V14.2873L288.579 13.4808L278.181 0H284.243L291.61 9.5633L298.977 0H305ZM304.962 26.9232H305V27L304.962 26.9232Z" fill="#45B9B4"/>
</g>
<defs>
<clipPath id="clip0_1229_2933">
<rect width="305" height="27" fill="white"/>
</clipPath>
</defs>
</svg>
