<svg width="84" height="82" viewBox="0 0 84 82" fill="none" xmlns="http://www.w3.org/2000/svg">
<g clip-path="url(#clip0_941_1467)">
<path d="M49.6778 30.7151L49.1879 30.9303L49.1433 30.9794L48.4191 31.3274L48.4114 31.3311L48.4037 31.3349C45.3395 32.8332 43.0595 35.6256 42.0401 38.9852L41.6623 40.2304C41.6621 40.2309 41.6619 40.2315 41.6618 40.232C41.2083 41.7148 39.9315 42.165 39.0394 41.8364C38.004 41.455 37.159 40.0153 37.635 38.4468L35.2232 37.715L37.635 38.4468L38.014 37.1976L38.0152 37.1937C39.4752 32.3539 42.7047 28.4899 46.8188 26.4822C46.8207 26.4812 46.8227 26.4803 46.8246 26.4793L47.9783 25.9249L47.988 25.9202C50.6862 24.6092 53.5907 23.9314 56.5234 23.9314C61.866 23.9314 66.8595 27.4665 69.0374 33.1791C69.0379 33.1804 69.0384 33.1817 69.0389 33.183L71.2676 39.0716L71.5976 39.9436L72.4157 40.3909L75.5459 42.1022C75.546 42.1022 75.546 42.1023 75.5461 42.1023C76.5905 42.6761 77.2059 44.2791 76.5502 45.7198C75.943 47.0538 74.6917 47.3332 73.803 46.8451L73.7995 46.8432L69.9193 44.72C69.9175 44.7189 69.9156 44.7179 69.9137 44.7168C68.9673 44.1901 68.1729 43.2801 67.7306 42.1093L67.7289 42.105L66.3293 38.4214L63.5594 31.1314L61.5391 38.6637L58.7253 49.1539L58.3864 50.4173L59.2245 51.4216L66.4399 60.0685C66.9728 60.7081 67.3596 61.4801 67.5485 62.3321L67.5485 62.3321L67.5515 62.3452L70.9047 77.0956L70.9055 77.0993C71.2709 78.6955 70.3241 80.0372 69.2943 80.3216C68.3952 80.57 67.1236 80.0177 66.7658 78.4587C66.7657 78.4581 66.7656 78.4576 66.7654 78.457L63.5589 64.3509L63.4245 63.7598L63.0361 63.2945L52.7286 50.9464L52.7266 50.9441C51.1053 49.0065 50.4631 46.2312 51.1003 43.5927C51.1004 43.5925 51.1004 43.5923 51.1005 43.5921L53.564 33.4237L54.7631 28.4741L50.1006 30.5229C50.0054 30.5647 49.9174 30.6054 49.8517 30.6358L49.8451 30.6389C49.7729 30.6723 49.7251 30.6943 49.6778 30.7151ZM45.041 65.5169L47.1432 59.7526L50.4072 63.6642L48.7904 68.0981L48.79 68.0992C48.547 68.7667 48.1885 69.3608 47.7491 69.8434L38.7538 79.7251C37.9312 80.6287 36.6995 80.6287 35.8769 79.7251C34.93 78.6848 34.93 76.9035 35.8769 75.8632L44.5369 66.3499L44.871 65.983L45.041 65.5169ZM35.9439 46.9168C35.9439 46.9167 35.9447 46.9174 35.9459 46.9191C35.9444 46.9177 35.9438 46.9168 35.9439 46.9168ZM28.1148 56.756L30.1949 58.075L29.5672 59.2667L29.4131 59.5594L29.3397 59.8819C29.2917 60.0928 29.2141 60.3042 29.0847 60.5506L19.7542 78.3117L19.7526 78.3147C19.1002 79.5607 17.8539 79.7896 16.9628 79.2284C16.9621 79.2279 16.9613 79.2274 16.9605 79.227L8.88775 74.1045L8.88365 74.1019C7.85461 73.4518 7.33874 71.7891 8.06437 70.403C8.0644 70.4029 8.06443 70.4029 8.06446 70.4028L17.3935 52.6446L17.3951 52.6415C18.0478 51.3948 19.2952 51.1663 20.1863 51.7287C20.1866 51.7289 20.1869 51.7291 20.1872 51.7293L28.1148 56.756ZM67.4596 8.59863C67.4596 11.6789 65.2358 13.7658 62.982 13.7658C60.7281 13.7658 58.5043 11.6789 58.5043 8.59863C58.5043 5.51831 60.7281 3.43145 62.982 3.43145C65.2358 3.43145 67.4596 5.5183 67.4596 8.59863Z" stroke="#0976B5" stroke-width="5"/>
</g>
<defs>
<clipPath id="clip0_941_1467">
<rect width="83.2988" height="81.3388" fill="white" transform="scale(1.00813)"/>
</clipPath>
</defs>
</svg>
