<svg width="109" height="28" viewBox="0 0 109 28" fill="none" xmlns="http://www.w3.org/2000/svg">
<path d="M22.1395 27.2423C21.9114 27.2432 21.6864 27.1892 21.4834 27.0846L14.2099 23.2572L6.93641 27.0846C6.70022 27.2095 6.43393 27.2652 6.16781 27.2455C5.90168 27.2258 5.6464 27.1314 5.43097 26.9731C5.21555 26.8148 5.04863 26.5989 4.94919 26.35C4.84975 26.1011 4.82178 25.8292 4.86845 25.5651L6.29463 17.4945L0.418769 11.7606C0.235444 11.5767 0.105397 11.3461 0.0425822 11.0935C-0.0202322 10.841 -0.0134421 10.576 0.0622239 10.3271C0.144885 10.0723 0.296939 9.84591 0.501131 9.67361C0.705323 9.50131 0.953476 9.38999 1.21743 9.35228L9.34665 8.16248L12.9264 0.808649C13.0431 0.566287 13.2255 0.361889 13.4525 0.218871C13.6795 0.0758537 13.942 0 14.2099 0C14.4778 0 14.7403 0.0758537 14.9674 0.218871C15.1944 0.361889 15.3767 0.566287 15.4935 0.808649L19.116 8.14815L27.2452 9.33795C27.5092 9.37566 27.7573 9.48698 27.9615 9.65928C28.1657 9.83158 28.3178 10.058 28.4004 10.3127C28.4761 10.5617 28.4829 10.8267 28.4201 11.0792C28.3572 11.3318 28.2272 11.5623 28.0439 11.7462L22.168 17.4802L23.5942 25.5508C23.6451 25.8195 23.6184 26.0973 23.5174 26.3513C23.4163 26.6053 23.245 26.825 23.0237 26.9843C22.7655 27.1662 22.4545 27.2569 22.1395 27.2423Z" fill="#ECC43A"/>
<path d="M62.4081 27.2423C62.18 27.2432 61.955 27.1892 61.752 27.0846L54.4785 23.2572L47.205 27.0846C46.9688 27.2095 46.7025 27.2652 46.4364 27.2455C46.1703 27.2258 45.915 27.1314 45.6996 26.9731C45.4842 26.8148 45.3172 26.5989 45.2178 26.35C45.1183 26.1011 45.0904 25.8292 45.137 25.5651L46.5632 17.4945L40.6874 11.7606C40.504 11.5767 40.374 11.3461 40.3112 11.0935C40.2484 10.841 40.2552 10.576 40.3308 10.3271C40.4135 10.0723 40.5655 9.84591 40.7697 9.67361C40.9739 9.50131 41.2221 9.38999 41.486 9.35228L49.6153 8.16248L53.195 0.808649C53.3117 0.566287 53.4941 0.361889 53.7211 0.218871C53.9481 0.0758537 54.2106 0 54.4785 0C54.7464 0 55.0089 0.0758537 55.236 0.218871C55.463 0.361889 55.6453 0.566287 55.7621 0.808649L59.3846 8.14815L67.5138 9.33795C67.7778 9.37566 68.0259 9.48698 68.2301 9.65928C68.4343 9.83158 68.5864 10.058 68.669 10.3127C68.7447 10.5617 68.7515 10.8267 68.6887 11.0792C68.6258 11.3318 68.4958 11.5623 68.3125 11.7462L62.4366 17.4802L63.8628 25.5508C63.9137 25.8195 63.887 26.0973 63.786 26.3513C63.6849 26.6053 63.5136 26.825 63.2923 26.9843C63.0341 27.1662 62.7231 27.2569 62.4081 27.2423Z" fill="#ECC43A"/>
<path d="M102.677 27.2423C102.449 27.2432 102.224 27.1892 102.021 27.0846L94.7471 23.2572L87.4736 27.0846C87.2374 27.2095 86.9711 27.2652 86.705 27.2455C86.4389 27.2258 86.1836 27.1314 85.9682 26.9731C85.7528 26.8148 85.5858 26.5989 85.4864 26.35C85.3869 26.1011 85.359 25.8292 85.4056 25.5651L86.8318 17.4945L80.956 11.7606C80.7726 11.5767 80.6426 11.3461 80.5798 11.0935C80.517 10.841 80.5238 10.576 80.5994 10.3271C80.6821 10.0723 80.8341 9.84591 81.0383 9.67361C81.2425 9.50131 81.4907 9.38999 81.7546 9.35228L89.8839 8.16248L93.4636 0.808649C93.5803 0.566287 93.7627 0.361889 93.9897 0.218871C94.2167 0.0758537 94.4792 0 94.7471 0C95.015 0 95.2775 0.0758537 95.5046 0.218871C95.7316 0.361889 95.9139 0.566287 96.0307 0.808649L99.6532 8.14815L107.782 9.33795C108.046 9.37566 108.295 9.48698 108.499 9.65928C108.703 9.83158 108.855 10.058 108.938 10.3127C109.013 10.5617 109.02 10.8267 108.957 11.0792C108.894 11.3318 108.764 11.5623 108.581 11.7462L102.705 17.4802L104.131 25.5508C104.182 25.8195 104.156 26.0973 104.055 26.3513C103.953 26.6053 103.782 26.825 103.561 26.9843C103.303 27.1662 102.992 27.2569 102.677 27.2423Z" fill="#ECC43A"/>
</svg>
