<svg width="25" height="24" viewBox="0 0 25 24" fill="none" xmlns="http://www.w3.org/2000/svg">
<path d="M18.8275 4.95497H16.8463V3.54497C16.8463 3.28497 16.6114 3.03497 16.3356 3.04497C16.0599 3.05497 15.825 3.26497 15.825 3.54497V4.95497H8.67606V3.54497C8.67606 3.28497 8.44117 3.03497 8.16542 3.04497C7.88968 3.05497 7.65478 3.26497 7.65478 3.54497V4.95497H5.68372C5.00657 4.95497 4.35716 5.21836 3.87834 5.68721C3.39953 6.15605 3.13053 6.79193 3.13053 7.45497V18.455C3.13053 19.118 3.39953 19.7539 3.87834 20.2227C4.35716 20.6916 5.00657 20.955 5.68372 20.955H18.8275C19.5047 20.955 20.1541 20.6916 20.6329 20.2227C21.1117 19.7539 21.3807 19.118 21.3807 18.455V7.45497C21.3807 6.79193 21.1117 6.15605 20.6329 5.68721C20.1541 5.21836 19.5047 4.95497 18.8275 4.95497ZM20.3595 18.455C20.3595 19.285 19.6752 19.955 18.8275 19.955H5.68372C4.83606 19.955 4.15181 19.285 4.15181 18.455V10.035H20.3595V18.455ZM20.3595 9.03497H4.15181V7.45497C4.15181 6.62497 4.83606 5.95497 5.68372 5.95497H7.65478V6.54497C7.65478 6.80497 7.88968 7.05497 8.16542 7.04497C8.44117 7.03497 8.67606 6.82497 8.67606 6.54497V5.95497H15.825V6.54497C15.825 6.80497 16.0599 7.05497 16.3356 7.04497C16.6114 7.03497 16.8463 6.82497 16.8463 6.54497V5.95497H18.8275C19.6752 5.95497 20.3595 6.62497 20.3595 7.45497V9.03497Z" fill="#00A19A"/>
<path d="M11.7364 17.173V13.713C11.7363 13.6996 11.7327 13.6866 11.7259 13.6751C11.719 13.6636 11.7091 13.6541 11.6973 13.6476C11.6854 13.6411 11.672 13.6378 11.6584 13.638C11.6448 13.6383 11.6315 13.642 11.6199 13.649L10.9684 14.041C10.9451 14.0548 10.9186 14.0623 10.8914 14.0628C10.8642 14.0633 10.8374 14.0567 10.8137 14.0436C10.79 14.0306 10.7703 14.0116 10.7565 13.9887C10.7428 13.9657 10.7355 13.9396 10.7355 13.913V13.262C10.7355 13.157 10.7917 13.059 10.8846 13.005L11.6649 12.548C11.7124 12.52 11.7667 12.5051 11.8221 12.505H12.4615C12.5017 12.505 12.5415 12.5127 12.5787 12.5278C12.6159 12.5429 12.6497 12.565 12.6781 12.5928C12.7066 12.6207 12.7291 12.6538 12.7445 12.6902C12.7599 12.7265 12.7678 12.7656 12.7678 12.805V17.172C12.7678 17.2515 12.7356 17.3278 12.6781 17.3841C12.6207 17.4403 12.5427 17.472 12.4615 17.472H12.0438C12.0035 17.4724 11.9635 17.4649 11.9261 17.45C11.8888 17.4352 11.8548 17.4132 11.8262 17.3854C11.7976 17.3576 11.7749 17.3245 11.7595 17.288C11.7441 17.2515 11.7362 17.2124 11.7364 17.173Z" fill="#00A19A"/>
</svg>
