<svg width="69" height="28" viewBox="0 0 69 28" fill="none" xmlns="http://www.w3.org/2000/svg">
<path d="M22.226 27.3488C21.997 27.3497 21.7712 27.2954 21.5674 27.1905L14.2655 23.3481L6.96352 27.1905C6.72641 27.3158 6.45908 27.3717 6.19191 27.3519C5.92475 27.3321 5.66846 27.2374 5.4522 27.0785C5.23593 26.9196 5.06836 26.7029 4.96853 26.453C4.8687 26.2031 4.84062 25.9301 4.88747 25.665L6.31923 17.5629L0.420405 11.8065C0.236364 11.6219 0.105809 11.3904 0.0427486 11.1369C-0.0203113 10.8834 -0.0134946 10.6174 0.0624671 10.3674C0.145451 10.1117 0.2981 9.88439 0.503089 9.71142C0.708079 9.53844 0.957202 9.42669 1.22219 9.38883L9.38318 8.19438L12.9769 0.811809C13.0941 0.5685 13.2772 0.363303 13.5051 0.219727C13.733 0.0761501 13.9965 0 14.2655 0C14.5344 0 14.7979 0.0761501 15.0258 0.219727C15.2537 0.363303 15.4368 0.5685 15.554 0.811809L19.1907 8.17999L27.3517 9.37444C27.6167 9.4123 27.8658 9.52405 28.0708 9.69703C28.2758 9.87 28.4284 10.0973 28.5114 10.353C28.5874 10.603 28.5942 10.869 28.5311 11.1225C28.4681 11.376 28.3375 11.6075 28.1535 11.7921L22.2546 17.5485L23.6864 25.6506C23.7375 25.9204 23.7107 26.1993 23.6093 26.4543C23.5078 26.7093 23.3358 26.9298 23.1137 27.0897C22.8544 27.2723 22.5423 27.3634 22.226 27.3488Z" fill="#ECC43A"/>
<path d="M62.652 27.3488C62.423 27.3497 62.1971 27.2954 61.9934 27.1905L54.6914 23.3481L47.3895 27.1905C47.1524 27.3158 46.885 27.3717 46.6179 27.3519C46.3507 27.3321 46.0944 27.2374 45.8782 27.0785C45.6619 26.9196 45.4943 26.7029 45.3945 26.453C45.2947 26.2031 45.2666 25.9301 45.3134 25.665L46.7452 17.5629L40.8464 11.8065C40.6623 11.6219 40.5318 11.3904 40.4687 11.1369C40.4057 10.8834 40.4125 10.6174 40.4884 10.3674C40.5714 10.1117 40.7241 9.88439 40.9291 9.71142C41.134 9.53844 41.3832 9.42669 41.6482 9.38883L49.8091 8.19438L53.4028 0.811809C53.5201 0.5685 53.7031 0.363303 53.931 0.219727C54.1589 0.0761501 54.4225 0 54.6914 0C54.9604 0 55.2239 0.0761501 55.4518 0.219727C55.6797 0.363303 55.8628 0.5685 55.98 0.811809L59.6167 8.17999L67.7776 9.37444C68.0426 9.4123 68.2918 9.52405 68.4967 9.69703C68.7017 9.87 68.8544 10.0973 68.9374 10.353C69.0133 10.603 69.0201 10.869 68.9571 11.1225C68.894 11.376 68.7635 11.6075 68.5794 11.7921L62.6806 17.5485L64.1124 25.6506C64.1635 25.9204 64.1367 26.1993 64.0352 26.4543C63.9337 26.7093 63.7618 26.9298 63.5397 27.0897C63.2804 27.2723 62.9682 27.3634 62.652 27.3488Z" fill="#ECC43A"/>
</svg>
