<svg width="22" height="13" viewBox="0 0 22 13" fill="none" xmlns="http://www.w3.org/2000/svg">
<path d="M17.8409 0.680901C18.5592 1.05016 19.0542 1.64659 19.2566 2.27115C19.2811 2.27623 19.305 2.2825 19.3281 2.2899L21.5776 2.97215C21.7033 3.01001 21.8099 3.07066 21.8848 3.14696C21.9596 3.22325 21.9996 3.312 22 3.40271V12.3218C21.9992 12.3959 21.9722 12.4688 21.9212 12.5349C21.8702 12.6011 21.7965 12.6585 21.7059 12.7028C21.6153 12.7471 21.5103 12.777 21.3991 12.7903C21.2879 12.8035 21.1735 12.7996 21.065 12.779L14.8291 11.6251L7.4151 12.9651C7.28133 12.9892 7.13994 12.9882 7.007 12.9622L0.5214 11.6965C0.371493 11.6676 0.239789 11.6078 0.145855 11.526C0.0519211 11.4441 0.000769626 11.3446 0 11.2422L0 2.16297C0 1.84564 0.4708 1.61774 0.9405 1.70717L7.2127 2.90508L10.4005 2.26538C10.4444 2.25689 10.4893 2.25085 10.5347 2.24735C10.6579 1.77424 11.0022 1.31988 11.5797 0.877068C12.265 0.350592 13.4673 0.0419182 14.6388 0.00513704C15.8543 -0.0330866 16.7827 0.137117 17.8398 0.68018L17.8409 0.680901ZM1.4663 2.79979V10.888L6.8233 11.9331V3.82173L1.4663 2.79979ZM10.4962 3.2426L8.2896 3.6847V11.8191L13.8611 10.8138V8.43741C13.8611 8.17489 14.19 7.96214 14.5948 7.96214C14.9996 7.96214 15.3274 8.17489 15.3274 8.43813V10.7294L20.5337 11.6922V3.70489L19.3017 3.32987C19.2808 3.4092 19.2544 3.48709 19.2214 3.56282C18.9822 4.1158 18.5809 4.63292 18.04 5.08527L15.3153 7.31594C15.2436 7.37459 15.1519 7.42146 15.0477 7.45281C14.9435 7.48417 14.8296 7.49914 14.7149 7.49655C14.6003 7.49396 14.4882 7.47388 14.3876 7.43789C14.2869 7.4019 14.2004 7.35101 14.135 7.28926L11.5885 4.87107C11.1683 4.48595 10.8735 4.14266 10.7074 3.83543C10.6031 3.64367 10.5323 3.4448 10.4962 3.2426ZM14.7092 0.955678C13.9106 0.98092 13.09 1.19151 12.6995 1.49081C12.2298 1.85141 11.9988 2.18893 11.9526 2.53078C11.8976 2.94258 11.935 3.23323 12.0912 3.52099C12.2067 3.73374 12.4366 4.00347 12.7919 4.32873L14.784 6.21972L16.885 4.49965C17.3089 4.1445 17.6231 3.73859 17.8101 3.30463C18.0741 2.69882 17.6759 1.80886 16.9301 1.42662C16.1656 1.03357 15.5881 0.927552 14.7103 0.955678H14.7092ZM14.861 1.45835C16.0754 1.45835 17.061 2.09662 17.061 2.88417C17.0594 3.07251 17.0012 3.25881 16.8898 3.4324C16.7784 3.606 16.6159 3.76351 16.4116 3.89592C16.2073 4.02833 15.9652 4.13305 15.6991 4.20409C15.4331 4.27514 15.1483 4.31112 14.861 4.30998C13.6466 4.30998 12.661 3.67172 12.661 2.88417C12.661 2.09662 13.6466 1.45835 14.861 1.45835ZM14.861 2.4089C14.7652 2.40852 14.6703 2.42051 14.5816 2.44419C14.4929 2.46787 14.4121 2.50277 14.344 2.5469C14.2759 2.59104 14.2217 2.64354 14.1845 2.7014C14.1473 2.75927 14.1279 2.82137 14.1273 2.88417C14.1273 3.14668 14.4562 3.35944 14.861 3.35944C14.9568 3.35972 15.0517 3.34764 15.1403 3.32387C15.229 3.3001 15.3096 3.26512 15.3777 3.22092C15.4457 3.17672 15.4998 3.12417 15.5368 3.06626C15.5739 3.00836 15.5932 2.94624 15.5936 2.88345C15.5921 2.75688 15.5142 2.63586 15.3769 2.5469C15.2396 2.45795 15.054 2.40832 14.861 2.4089Z" fill="#9E9292"/>
</svg>
