<svg width="42" height="42" viewBox="0 0 42 42" fill="none" xmlns="http://www.w3.org/2000/svg">
<path d="M20.9999 0C16.8465 0 12.7864 1.23162 9.333 3.53913C5.87958 5.84663 3.18797 9.12637 1.59853 12.9636C0.00909893 16.8008 -0.40677 21.0232 0.403517 25.0968C1.2138 29.1704 3.21385 32.9122 6.15074 35.8491C9.08764 38.786 12.8295 40.7861 16.9031 41.5963C20.9766 42.4066 25.199 41.9908 29.0363 40.4013C32.8735 38.8119 36.1532 36.1203 38.4607 32.6669C40.7682 29.2134 41.9999 25.1533 41.9999 20.9999C41.9999 18.2422 41.4567 15.5114 40.4013 12.9636C39.346 10.4158 37.7991 8.10076 35.8491 6.15074C33.8991 4.20071 31.5841 2.65387 29.0363 1.59852C26.4884 0.543179 23.7577 0 20.9999 0ZM20.9999 37.7999C17.6772 37.7999 14.4291 36.8146 11.6664 34.9686C8.90365 33.1226 6.75036 30.4988 5.47881 27.429C4.20727 24.3592 3.87457 20.9813 4.5228 17.7224C5.17103 14.4636 6.77107 11.4701 9.12058 9.12057C11.4701 6.77106 14.4636 5.17102 17.7224 4.52279C20.9813 3.87456 24.3592 4.20726 27.429 5.47881C30.4988 6.75035 33.1226 8.90364 34.9686 11.6664C36.8146 14.4291 37.7999 17.6772 37.7999 20.9999C37.7999 25.4555 36.0299 29.7287 32.8793 32.8793C29.7287 36.0299 25.4556 37.7999 20.9999 37.7999Z" fill="#231F20"/>
<path d="M20.9998 10.4999C18.9231 10.4999 16.8931 11.1157 15.1664 12.2694C13.4397 13.4232 12.0939 15.0631 11.2991 16.9817C10.5044 18.9003 10.2965 21.0115 10.7016 23.0483C11.1068 25.0851 12.1068 26.956 13.5752 28.4244C15.0437 29.8929 16.9146 30.8929 18.9514 31.298C20.9882 31.7032 23.0994 31.4953 25.018 30.7005C26.9366 29.9058 28.5765 28.56 29.7302 26.8333C30.884 25.1066 31.4998 23.0765 31.4998 20.9998C31.4998 18.2151 30.3936 15.5444 28.4244 13.5752C26.4553 11.6061 23.7846 10.4999 20.9998 10.4999Z" fill="#3E6CEA"/>
</svg>
