<svg width="18" height="18" viewBox="0 0 18 18" fill="none" xmlns="http://www.w3.org/2000/svg">
<g clip-path="url(#clip0_1234_1584)">
<path d="M8.55302 9.12259L13.4749 13.9864L14.4402 13.0096C15.7975 11.6361 16.5537 9.77953 16.5422 7.84847C16.5307 5.91741 15.7526 4.07 14.3791 2.71264C13.0055 1.35528 11.149 0.599165 9.21791 0.610629C7.28685 0.622094 5.43943 1.4002 4.08208 2.77377L3.11678 3.75045L7.7574 8.33635L2.03999 14.1221L2.04936 15.7037L8.55302 9.12259ZM15.4237 7.85517C15.4307 8.66477 15.2771 9.46772 14.9717 10.2176C14.6663 10.9674 14.2152 11.6492 13.6446 12.2235L13.4654 12.4048L11.4594 10.4225C12.1461 9.74187 12.7723 9.00285 13.331 8.2138C13.9492 7.32883 14.3807 6.47967 14.6138 5.68998C14.6721 5.49345 14.7191 5.29372 14.7545 5.09178C15.1908 5.94782 15.4201 6.89435 15.4237 7.85517ZM4.69839 3.74107L4.87755 3.55973C5.78872 2.63906 6.96641 2.02831 8.24388 1.81397C9.52134 1.59963 10.8339 1.79255 11.9956 2.36542C11.7941 2.40324 11.595 2.4526 11.3991 2.51327C10.6122 2.7556 9.7683 3.19748 8.89072 3.82588C8.10835 4.39391 7.3768 5.02884 6.70434 5.7235L4.69839 3.74107ZM7.50034 6.50998C7.90448 6.09318 8.64618 5.37671 9.54202 4.73506C10.6674 3.929 12.2549 3.09064 13.5699 3.5315C14.0247 4.83667 13.2118 6.4275 12.4251 7.55773C11.7933 8.46543 11.0784 9.22344 10.6634 9.63577L7.50034 6.50998Z" fill="#00A19A"/>
</g>
<defs>
<clipPath id="clip0_1234_1584">
<rect width="16.9643" height="16.9643" fill="white" transform="translate(17.8938) scale(1.05482) rotate(89.6602)"/>
</clipPath>
</defs>
</svg>
