<svg width="63" height="71" viewBox="0 0 63 71" fill="none" xmlns="http://www.w3.org/2000/svg">
<path d="M32.1191 5.47571C29.5432 0.781251 24.0878 -1.28818 19.0163 0.832045C13.9399 2.95428 10.9461 8.56186 11.633 14.046C15.2094 12.1436 18.8656 10.4562 21.7409 9.25408C24.5995 8.059 28.3246 6.65476 32.1191 5.47571Z" fill="white"/>
<path d="M13.9317 28.8868C13.4755 27.4712 18.7274 23.9835 25.6678 21.0987C32.6035 18.2159 38.5969 17.0295 39.0531 18.4452C39.0596 18.4653 39.0677 18.4906 39.0646 18.5147C45.8212 14.3272 49.8856 10.1084 49.0652 7.56223C48.1627 4.76123 41.5904 4.7489 32.8756 7.1179C29.6021 8.00071 26.0292 9.22539 22.3365 10.7602C18.6248 12.303 15.1839 14.005 12.1708 15.7296C4.19542 20.3092 -0.796612 25.1168 0.104312 27.9127C0.924738 30.4589 6.42032 30.6984 13.956 28.9454C13.9447 28.9272 13.9382 28.907 13.9317 28.8868ZM43.3961 8.58519C43.9605 8.35059 44.5758 8.64422 44.7677 9.23975C44.9596 9.83528 44.6549 10.5056 44.0905 10.7402C43.5261 10.9748 42.9172 10.6842 42.7253 10.0887C42.5318 9.49667 42.8317 8.81979 43.3961 8.58519ZM36.9562 11.1045C37.5924 10.8401 38.2846 11.1704 38.5025 11.8467C38.7188 12.518 38.3778 13.2777 37.7417 13.5422C37.1007 13.8086 36.4085 13.4782 36.1922 12.807C35.9743 12.1307 36.3153 11.3709 36.9562 11.1045ZM30.5108 13.6233C31.2211 13.3281 31.9966 13.6982 32.2381 14.4477C32.4796 15.1971 32.0976 16.0483 31.3873 16.3436C30.677 16.6388 29.9014 16.2687 29.6599 15.5193C29.4185 14.7698 29.7981 13.9196 30.5108 13.6233ZM23.2015 16.9962C23.3752 16.6178 23.677 16.3007 24.0693 16.1376C24.8561 15.8106 25.7102 16.2224 25.9777 17.0526C26.2452 17.8828 25.8253 18.8185 25.0385 19.1455C24.2516 19.4726 23.3944 19.0678 23.1269 18.2376C22.9927 17.8212 23.0318 17.3786 23.2015 16.9962ZM17.7157 18.9416C18.426 18.6464 19.1999 19.0114 19.443 19.7659C19.6845 20.5154 19.3025 21.3666 18.5922 21.6618C17.8819 21.9571 17.1064 21.587 16.8649 20.8375C16.6217 20.083 17.003 19.2378 17.7157 18.9416ZM5.70606 26.6975C5.14164 26.9321 4.53275 26.6415 4.34085 26.046C4.14896 25.4504 4.44724 24.7771 5.01166 24.5425C5.57608 24.3079 6.19138 24.6015 6.38328 25.197C6.57436 25.79 6.27047 26.4629 5.70606 26.6975ZM10.6021 23.4435C10.3842 22.7672 10.7251 22.0074 11.3661 21.741C12.0022 21.4766 12.6944 21.807 12.9124 22.4832C13.1286 23.1545 12.7877 23.9142 12.1515 24.1787C11.5098 24.4425 10.8175 24.1122 10.6021 23.4435Z" fill="white"/>
<path d="M16.4701 31.1069C15.9871 31.1277 15.5839 31.5722 15.5793 32.0996L15.2948 70.0812C15.2903 70.6085 15.685 71.0195 16.1738 70.9993C16.276 70.9952 16.3749 70.9717 16.4662 70.9335C16.8117 70.7892 17.0636 70.4226 17.0671 70.0056L17.3516 32.024C17.3512 31.4987 16.9589 31.0867 16.4701 31.1069Z" fill="white"/>
<path d="M26.6104 25.6139L32.0334 42.2535C32.1941 42.7465 32.7096 42.992 33.1847 42.7967C33.6597 42.6014 33.9107 42.0438 33.7491 41.5481L28.3261 24.9085C28.1646 24.4128 27.6499 24.1699 27.1774 24.3642C26.7023 24.5595 26.4489 25.1182 26.6104 25.6139Z" fill="white"/>
<path d="M20.6961 27.9363L25.8617 58.8708C25.9464 59.3873 26.4139 59.7122 26.8998 59.5942C26.9448 59.5845 26.9906 59.5685 27.0331 59.5509C27.4452 59.38 27.703 58.9153 27.6253 58.4466L22.4597 27.512C22.375 26.9956 21.9075 26.6707 21.4216 26.7887C20.9348 26.9041 20.6114 27.4198 20.6961 27.9363Z" fill="white"/>
<path d="M40.8062 21.9827C40.5047 21.5832 39.9479 21.5398 39.5647 21.881C39.1799 22.2259 39.1099 22.8281 39.4122 23.2302L61.0965 52.0314C61.3349 52.3474 61.732 52.4427 62.08 52.2973C62.1713 52.2591 62.26 52.2043 62.3404 52.1321C62.7252 51.7872 62.7953 51.185 62.493 50.7829L40.8062 21.9827Z" fill="white"/>
<path d="M33.127 22.082C32.6887 22.3473 32.5167 22.9374 32.7463 23.3937L46.4248 50.7982C46.6324 51.213 47.094 51.3794 47.5062 51.2085C47.5486 51.1908 47.5903 51.1706 47.6327 51.1441C48.071 50.8788 48.243 50.2887 48.0134 49.8324L34.3349 22.4279C34.1053 21.9715 33.562 21.8152 33.127 22.082Z" fill="white"/>
</svg>
