<svg width="8" height="15" viewBox="0 0 8 15" fill="none" xmlns="http://www.w3.org/2000/svg">
<path d="M1.07094 14.9981C0.821152 14.9986 0.579078 14.9116 0.386742 14.7522C0.278491 14.6624 0.189009 14.5522 0.12342 14.4278C0.0578313 14.3035 0.0174249 14.1674 0.00451508 14.0273C-0.00839472 13.8873 0.00644597 13.7461 0.0481868 13.6118C0.0899276 13.4776 0.157748 13.3528 0.247764 13.2448L5.03714 7.51466L0.418815 1.77382C0.330012 1.66447 0.263697 1.53865 0.22368 1.40358C0.183663 1.26852 0.170734 1.12688 0.185636 0.986799C0.200538 0.846722 0.242976 0.710971 0.310513 0.587349C0.378049 0.463727 0.469352 0.354671 0.579173 0.266449C0.689784 0.169126 0.819317 0.0957163 0.959644 0.0508276C1.09997 0.0059389 1.24806 -0.00945949 1.39462 0.00559807C1.54118 0.0206556 1.68305 0.0658444 1.81132 0.138329C1.93959 0.210813 2.05149 0.309027 2.14 0.426808L7.30355 6.84116C7.46079 7.03244 7.54674 7.27239 7.54674 7.52001C7.54674 7.76763 7.46079 8.00757 7.30355 8.19886L1.95826 14.6132C1.85101 14.7426 1.71478 14.8448 1.56061 14.9117C1.40644 14.9786 1.23868 15.0082 1.07094 14.9981Z" fill="#626161"/>
</svg>
