<svg width="12" height="15" xmlns="http://www.w3.org/2000/svg" xmlns:xlink="http://www.w3.org/1999/xlink" xml:space="preserve" overflow="hidden"><g transform="translate(-634 -352)"><path d="M635 366.25C634.999 366.447 635.075 366.637 635.213 366.777 635.352 366.918 635.54 366.998 635.737 367L644.263 367C644.46 366.998 644.648 366.918 644.787 366.777 644.925 366.637 645.002 366.447 645 366.25L645 356.25 635 356.25 635 366.25ZM636 357.25 644 357.25 644 366 636 366 636 357.25Z"/><path d="M638.25 358.25 637.25 358.25 637.25 364.5 638.25 364.5 638.25 358.25Z"/><path d="M640.5 358.25 639.5 358.25 639.5 364.5 640.5 364.5 640.5 358.25Z"/><path d="M642.75 358.25 641.75 358.25 641.75 364.5 642.75 364.5 642.75 358.25Z"/><path d="M642.25 354.25 642.25 352.75C642.25 352.329 641.953 352 641.575 352L638.425 352C638.047 352 637.75 352.329 637.75 352.75L637.75 354.25 634 354.25 634 355.25 646 355.25 646 354.25 642.25 354.25ZM638.75 353 641.25 353 641.25 354.25 638.75 354.25 638.75 353Z"/></g></svg>