<svg width="142" height="22" viewBox="0 0 142 22" fill="none" xmlns="http://www.w3.org/2000/svg">
<path d="M48.2821 20.1747C48.1247 20.1753 47.9695 20.1382 47.8294 20.0664L42.8101 17.4387L37.7909 20.0664C37.6279 20.1521 37.4441 20.1904 37.2605 20.1768C37.0769 20.1633 36.9007 20.0985 36.752 19.9898C36.6034 19.8812 36.4882 19.733 36.4196 19.5621C36.3509 19.3912 36.3316 19.2045 36.3638 19.0232L37.348 13.4824L33.2933 9.54569C33.1667 9.41945 33.077 9.26114 33.0337 9.08775C32.9903 8.91437 32.995 8.73245 33.0472 8.56152C33.1043 8.38661 33.2092 8.23119 33.3501 8.1129C33.491 7.99461 33.6622 7.91818 33.8444 7.89229L39.4541 7.07543L41.9244 2.02667C42.005 1.86027 42.1308 1.71994 42.2875 1.62176C42.4441 1.52357 42.6252 1.47149 42.8101 1.47149C42.995 1.47149 43.1762 1.52357 43.3328 1.62176C43.4895 1.71994 43.6153 1.86027 43.6959 2.02667L46.1957 7.06559L51.8054 7.88245C51.9875 7.90834 52.1588 7.98477 52.2997 8.10306C52.4406 8.22135 52.5455 8.37677 52.6026 8.55168C52.6548 8.72261 52.6595 8.90452 52.6161 9.07791C52.5728 9.2513 52.483 9.4096 52.3565 9.53585L48.3018 13.4725L49.2859 19.0134C49.3211 19.1979 49.3027 19.3886 49.2329 19.563C49.1632 19.7374 49.045 19.8881 48.8923 19.9975C48.7141 20.1224 48.4995 20.1847 48.2821 20.1747Z" fill="#EBAB65"/>
<path d="M71.2821 20.1747C71.1247 20.1753 70.9695 20.1382 70.8294 20.0664L65.8101 17.4387L60.7909 20.0664C60.6279 20.1521 60.4441 20.1904 60.2605 20.1768C60.0769 20.1633 59.9007 20.0985 59.752 19.9898C59.6034 19.8812 59.4882 19.733 59.4196 19.5621C59.3509 19.3912 59.3316 19.2045 59.3638 19.0232L60.348 13.4824L56.2933 9.54569C56.1667 9.41945 56.077 9.26114 56.0337 9.08775C55.9903 8.91437 55.995 8.73245 56.0472 8.56152C56.1043 8.38661 56.2092 8.23119 56.3501 8.1129C56.491 7.99461 56.6622 7.91818 56.8444 7.89229L62.4541 7.07543L64.9244 2.02667C65.005 1.86027 65.1308 1.71994 65.2875 1.62176C65.4441 1.52357 65.6252 1.47149 65.8101 1.47149C65.995 1.47149 66.1762 1.52357 66.3328 1.62176C66.4895 1.71994 66.6153 1.86027 66.6959 2.02667L69.1957 7.06559L74.8054 7.88245C74.9875 7.90834 75.1588 7.98477 75.2997 8.10306C75.4406 8.22135 75.5455 8.37677 75.6026 8.55168C75.6548 8.72261 75.6595 8.90452 75.6161 9.07791C75.5728 9.2513 75.483 9.4096 75.3565 9.53585L71.3018 13.4725L72.2859 19.0134C72.3211 19.1979 72.3027 19.3886 72.2329 19.563C72.1632 19.7374 72.045 19.8881 71.8923 19.9975C71.7141 20.1224 71.4995 20.1847 71.2821 20.1747Z" fill="#EBAB65"/>
<path d="M93.2821 20.1747C93.1247 20.1753 92.9695 20.1382 92.8294 20.0664L87.8101 17.4387L82.7909 20.0664C82.6279 20.1521 82.4441 20.1904 82.2605 20.1768C82.0769 20.1633 81.9007 20.0985 81.752 19.9898C81.6034 19.8812 81.4882 19.733 81.4196 19.5621C81.3509 19.3912 81.3316 19.2045 81.3638 19.0232L82.348 13.4824L78.2933 9.54569C78.1667 9.41945 78.077 9.26114 78.0337 9.08775C77.9903 8.91437 77.995 8.73245 78.0472 8.56152C78.1043 8.38661 78.2092 8.23119 78.3501 8.1129C78.491 7.99461 78.6622 7.91818 78.8444 7.89229L84.4541 7.07543L86.9244 2.02667C87.005 1.86027 87.1308 1.71994 87.2875 1.62176C87.4441 1.52357 87.6252 1.47149 87.8101 1.47149C87.995 1.47149 88.1762 1.52357 88.3328 1.62176C88.4895 1.71994 88.6153 1.86027 88.6959 2.02667L91.1957 7.06559L96.8054 7.88245C96.9875 7.90834 97.1588 7.98477 97.2997 8.10306C97.4406 8.22135 97.5455 8.37677 97.6026 8.55168C97.6548 8.72261 97.6595 8.90452 97.6161 9.07791C97.5728 9.2513 97.483 9.4096 97.3565 9.53585L93.3018 13.4725L94.2859 19.0134C94.3211 19.1979 94.3027 19.3886 94.2329 19.563C94.1632 19.7374 94.045 19.8881 93.8923 19.9975C93.7141 20.1224 93.4995 20.1847 93.2821 20.1747Z" fill="#EBAB65"/>
<path d="M115.282 20.1747C115.125 20.1753 114.969 20.1382 114.829 20.0664L109.81 17.4387L104.791 20.0664C104.628 20.1521 104.444 20.1904 104.26 20.1768C104.077 20.1633 103.901 20.0985 103.752 19.9898C103.603 19.8812 103.488 19.733 103.42 19.5621C103.351 19.3912 103.332 19.2045 103.364 19.0232L104.348 13.4824L100.293 9.54569C100.167 9.41945 100.077 9.26114 100.034 9.08775C99.9903 8.91437 99.995 8.73245 100.047 8.56152C100.104 8.38661 100.209 8.23119 100.35 8.1129C100.491 7.99461 100.662 7.91818 100.844 7.89229L106.454 7.07543L108.924 2.02667C109.005 1.86027 109.131 1.71994 109.287 1.62176C109.444 1.52357 109.625 1.47149 109.81 1.47149C109.995 1.47149 110.176 1.52357 110.333 1.62176C110.489 1.71994 110.615 1.86027 110.696 2.02667L113.196 7.06559L118.805 7.88245C118.988 7.90834 119.159 7.98477 119.3 8.10306C119.441 8.22135 119.546 8.37677 119.603 8.55168C119.655 8.72261 119.659 8.90452 119.616 9.07791C119.573 9.2513 119.483 9.4096 119.357 9.53585L115.302 13.4725L116.286 19.0134C116.321 19.1979 116.303 19.3886 116.233 19.563C116.163 19.7374 116.045 19.8881 115.892 19.9975C115.714 20.1224 115.499 20.1847 115.282 20.1747Z" fill="#EBAB65"/>
<path d="M137.282 20.1747C137.125 20.1753 136.969 20.1382 136.829 20.0664L131.81 17.4387L126.791 20.0664C126.628 20.1521 126.444 20.1904 126.26 20.1768C126.077 20.1633 125.901 20.0985 125.752 19.9898C125.603 19.8812 125.488 19.733 125.42 19.5621C125.351 19.3912 125.332 19.2045 125.364 19.0232L126.348 13.4824L122.293 9.54569C122.167 9.41945 122.077 9.26114 122.034 9.08775C121.99 8.91437 121.995 8.73245 122.047 8.56152C122.104 8.38661 122.209 8.23119 122.35 8.1129C122.491 7.99461 122.662 7.91818 122.844 7.89229L128.454 7.07543L130.924 2.02667C131.005 1.86027 131.131 1.71994 131.287 1.62176C131.444 1.52357 131.625 1.47149 131.81 1.47149C131.995 1.47149 132.176 1.52357 132.333 1.62176C132.489 1.71994 132.615 1.86027 132.696 2.02667L135.196 7.06559L140.805 7.88245C140.988 7.90834 141.159 7.98477 141.3 8.10306C141.441 8.22135 141.546 8.37677 141.603 8.55168C141.655 8.72261 141.659 8.90452 141.616 9.07791C141.573 9.2513 141.483 9.4096 141.357 9.53585L137.302 13.4725L138.286 19.0134C138.321 19.1979 138.303 19.3886 138.233 19.563C138.163 19.7374 138.045 19.8881 137.892 19.9975C137.714 20.1224 137.499 20.1847 137.282 20.1747Z" fill="#EBAB65"/>
<rect x="0.5" y="0.5" width="21" height="21" rx="2.5" fill="#FCFBFB" stroke="#939191"/>
</svg>
