<svg width="35" height="35" viewBox="0 0 35 35" fill="none" xmlns="http://www.w3.org/2000/svg">
<g clip-path="url(#clip0_807_1571)">
<path d="M30.1259 35L18.6019 23.9029L21.1426 21.4563L32.6667 32.5534L30.1259 35ZM5.3537 33.7767C3.53889 32.0291 2.1929 30.0631 1.31574 27.8787C0.43858 25.6942 0 23.466 0 21.1942C0 18.9223 0.43858 16.7088 1.31574 14.5534C2.1929 12.3981 3.53889 10.4466 5.3537 8.69904C7.16852 6.95147 9.20232 5.64778 11.4551 4.78797C13.7091 3.92933 16.0157 3.50001 18.375 3.50001C20.7343 3.50001 23.0409 3.92933 25.2949 4.78797C27.5477 5.64778 29.5815 6.95147 31.3963 8.69904L5.3537 33.7767ZM5.71667 28.4466L8.16667 26.0874C7.68272 25.4757 7.22175 24.8495 6.78378 24.2088C6.34459 23.568 5.94352 22.9272 5.58056 22.2864C5.21759 21.6456 4.9 21.0049 4.62778 20.3641C4.35556 19.7233 4.11358 19.0971 3.90185 18.4854C3.56914 20.2039 3.54675 21.9223 3.8347 23.6408C4.12144 25.3592 4.74877 26.9612 5.71667 28.4466ZM10.7981 23.6408L20.8704 13.8544C19.5698 12.8932 18.2619 12.1138 16.9467 11.5161C15.6304 10.9196 14.3975 10.5124 13.2481 10.2946C12.0988 10.0755 11.0631 10.0388 10.1412 10.1845C9.21805 10.3301 8.49938 10.6505 7.98519 11.1456C7.47099 11.6699 7.13827 12.3759 6.98704 13.2637C6.8358 14.1526 6.87391 15.1575 7.10137 16.2783C7.32762 17.4002 7.75107 18.5874 8.37174 19.8398C8.9912 21.0922 9.8 22.3592 10.7981 23.6408ZM23.4111 11.4078L25.9518 9.04856C24.3488 8.11652 22.6549 7.50487 20.8704 7.2136C19.0858 6.92234 17.3012 6.95147 15.5167 7.30098C16.1821 7.50487 16.8475 7.73788 17.513 8.00001C18.1784 8.26215 18.8438 8.5604 19.5093 8.89477C20.1747 9.2303 20.8329 9.60894 21.4838 10.0307C22.1335 10.4536 22.7759 10.9126 23.4111 11.4078Z" fill="black"/>
</g>
<defs>
<clipPath id="clip0_807_1571">
<rect width="34.6038" height="34.6038" fill="white" transform="scale(1.01145)"/>
</clipPath>
</defs>
</svg>
