<svg width="98" height="16" viewBox="0 0 98 16" fill="none" xmlns="http://www.w3.org/2000/svg">
<path d="M13.4691 15.8294C13.3303 15.8299 13.1935 15.7985 13.07 15.7378L8.64496 13.5138L4.21994 15.7378C4.07625 15.8103 3.91424 15.8427 3.75234 15.8312C3.59044 15.8198 3.43513 15.7649 3.30407 15.673C3.17301 15.581 3.07146 15.4556 3.01096 15.3109C2.95047 15.1663 2.93345 15.0083 2.96184 14.8548L3.82949 10.1654L0.254768 6.83358C0.143238 6.72673 0.0641207 6.59275 0.0259059 6.446C-0.0123088 6.29926 -0.00817784 6.1453 0.0378555 6.00063C0.0881445 5.8526 0.18065 5.72106 0.304876 5.62094C0.429101 5.52083 0.580071 5.45614 0.740654 5.43423L5.68627 4.74289L7.86408 0.469873C7.93512 0.329046 8.04605 0.210279 8.18416 0.127177C8.32227 0.0440755 8.48197 0 8.64496 0C8.80796 0 8.96766 0.0440755 9.10576 0.127177C9.24387 0.210279 9.3548 0.329046 9.42585 0.469873L11.6297 4.73456L16.5753 5.4259C16.7359 5.44781 16.8869 5.5125 17.0111 5.61261C17.1353 5.71273 17.2278 5.84427 17.2781 5.9923C17.3241 6.13697 17.3283 6.29093 17.29 6.43768C17.2518 6.58442 17.1727 6.7184 17.0612 6.82525L13.4865 10.157L14.3541 14.8465C14.3851 15.0027 14.3689 15.1641 14.3074 15.3117C14.2459 15.4593 14.1417 15.5869 14.0071 15.6795C13.8499 15.7852 13.6608 15.8379 13.4691 15.8294Z" fill="#FFA726"/>
<path d="M33.6401 15.8294C33.5014 15.8299 33.3645 15.7985 33.241 15.7378L28.816 13.5138L24.3909 15.7378C24.2473 15.8103 24.0852 15.8427 23.9233 15.8312C23.7614 15.8198 23.6061 15.7649 23.4751 15.673C23.344 15.581 23.2425 15.4556 23.182 15.3109C23.1215 15.1663 23.1045 15.0083 23.1328 14.8548L24.0005 10.1654L20.4258 6.83358C20.3142 6.72673 20.2351 6.59275 20.1969 6.446C20.1587 6.29926 20.1628 6.1453 20.2089 6.00063C20.2591 5.8526 20.3517 5.72106 20.4759 5.62094C20.6001 5.52083 20.7511 5.45614 20.9117 5.43423L25.8573 4.74289L28.0351 0.469873C28.1061 0.329046 28.2171 0.210279 28.3552 0.127177C28.4933 0.0440755 28.653 0 28.816 0C28.979 0 29.1387 0.0440755 29.2768 0.127177C29.4149 0.210279 29.5258 0.329046 29.5969 0.469873L31.8007 4.73456L36.7463 5.4259C36.9069 5.44781 37.0579 5.5125 37.1821 5.61261C37.3063 5.71273 37.3988 5.84427 37.4491 5.9923C37.4951 6.13697 37.4993 6.29093 37.4611 6.43768C37.4228 6.58442 37.3437 6.7184 37.2322 6.82525L33.6575 10.157L34.5251 14.8465C34.5561 15.0027 34.5399 15.1641 34.4784 15.3117C34.4169 15.4593 34.3127 15.5869 34.1781 15.6795C34.0209 15.7852 33.8318 15.8379 33.6401 15.8294Z" fill="#FFA726"/>
<path d="M53.8111 15.8294C53.6724 15.8299 53.5355 15.7985 53.412 15.7378L48.987 13.5138L44.5619 15.7378C44.4183 15.8103 44.2562 15.8427 44.0943 15.8312C43.9324 15.8198 43.7771 15.7649 43.6461 15.673C43.515 15.581 43.4135 15.4556 43.353 15.3109C43.2925 15.1663 43.2755 15.0083 43.3038 14.8548L44.1715 10.1654L40.5968 6.83358C40.4852 6.72673 40.4061 6.59275 40.3679 6.446C40.3297 6.29926 40.3338 6.1453 40.3799 6.00063C40.4302 5.8526 40.5227 5.72106 40.6469 5.62094C40.7711 5.52083 40.9221 5.45614 41.0827 5.43423L46.0283 4.74289L48.2061 0.469873C48.2771 0.329046 48.3881 0.210279 48.5262 0.127177C48.6643 0.0440755 48.824 0 48.987 0C49.15 0 49.3097 0.0440755 49.4478 0.127177C49.5859 0.210279 49.6968 0.329046 49.7679 0.469873L51.9717 4.73456L56.9173 5.4259C57.0779 5.44781 57.2289 5.5125 57.3531 5.61261C57.4773 5.71273 57.5698 5.84427 57.6201 5.9923C57.6661 6.13697 57.6703 6.29093 57.6321 6.43768C57.5938 6.58442 57.5147 6.7184 57.4032 6.82525L53.8285 10.157L54.6961 14.8465C54.7271 15.0027 54.7109 15.1641 54.6494 15.3117C54.5879 15.4593 54.4837 15.5869 54.3491 15.6795C54.1919 15.7852 54.0028 15.8379 53.8111 15.8294Z" fill="#FFA726"/>
<path d="M73.9821 15.8294C73.8434 15.8299 73.7065 15.7985 73.583 15.7378L69.158 13.5138L64.7329 15.7378C64.5893 15.8103 64.4273 15.8427 64.2653 15.8312C64.1034 15.8198 63.9481 15.7649 63.8171 15.673C63.686 15.581 63.5845 15.4556 63.524 15.3109C63.4635 15.1663 63.4465 15.0083 63.4749 14.8548L64.3425 10.1654L60.7678 6.83358C60.6562 6.72673 60.5771 6.59275 60.5389 6.446C60.5007 6.29926 60.5048 6.1453 60.5509 6.00063C60.6012 5.8526 60.6937 5.72106 60.8179 5.62094C60.9421 5.52083 61.0931 5.45614 61.2537 5.43423L66.1993 4.74289L68.3771 0.469873C68.4481 0.329046 68.5591 0.210279 68.6972 0.127177C68.8353 0.0440755 68.995 0 69.158 0C69.321 0 69.4807 0.0440755 69.6188 0.127177C69.7569 0.210279 69.8678 0.329046 69.9389 0.469873L72.1427 4.73456L77.0883 5.4259C77.2489 5.44781 77.3999 5.5125 77.5241 5.61261C77.6483 5.71273 77.7408 5.84427 77.7911 5.9923C77.8371 6.13697 77.8413 6.29093 77.8031 6.43768C77.7648 6.58442 77.6857 6.7184 77.5742 6.82525L73.9995 10.157L74.8671 14.8465C74.8981 15.0027 74.8819 15.1641 74.8204 15.3117C74.7589 15.4593 74.6547 15.5869 74.5201 15.6795C74.3629 15.7852 74.1738 15.8379 73.9821 15.8294Z" fill="#FFA726"/>
<path d="M94.1531 15.8294C94.0144 15.8299 93.8775 15.7985 93.754 15.7378L89.329 13.5138L84.9039 15.7378C84.7603 15.8103 84.5983 15.8427 84.4364 15.8312C84.2744 15.8198 84.1191 15.7649 83.9881 15.673C83.857 15.581 83.7555 15.4556 83.695 15.3109C83.6345 15.1663 83.6175 15.0083 83.6459 14.8548L84.5135 10.1654L80.9388 6.83358C80.8272 6.72673 80.7481 6.59275 80.7099 6.446C80.6717 6.29926 80.6758 6.1453 80.7219 6.00063C80.7722 5.8526 80.8647 5.72106 80.9889 5.62094C81.1131 5.52083 81.2641 5.45614 81.4247 5.43423L86.3703 4.74289L88.5481 0.469873C88.6191 0.329046 88.7301 0.210279 88.8682 0.127177C89.0063 0.0440755 89.166 0 89.329 0C89.492 0 89.6517 0.0440755 89.7898 0.127177C89.9279 0.210279 90.0388 0.329046 90.1099 0.469873L92.3137 4.73456L97.2593 5.4259C97.4199 5.44781 97.5709 5.5125 97.6951 5.61261C97.8193 5.71273 97.9118 5.84427 97.9621 5.9923C98.0081 6.13697 98.0123 6.29093 97.9741 6.43768C97.9358 6.58442 97.8567 6.7184 97.7452 6.82525L94.1705 10.157L95.0381 14.8465C95.0691 15.0027 95.0529 15.1641 94.9914 15.3117C94.9299 15.4593 94.8257 15.5869 94.6911 15.6795C94.5339 15.7852 94.3448 15.8379 94.1531 15.8294Z" fill="#FFA726"/>
</svg>
