<svg width="189" height="28" viewBox="0 0 189 28" fill="none" xmlns="http://www.w3.org/2000/svg">
<path d="M22.0767 27.1651C21.8493 27.166 21.625 27.1121 21.4226 27.0079L14.1697 23.1913L6.91675 27.0079C6.68123 27.1323 6.4157 27.1879 6.15033 27.1682C5.88496 27.1486 5.63039 27.0545 5.41558 26.8966C5.20077 26.7388 5.03432 26.5236 4.93516 26.2754C4.836 26.0272 4.80811 25.756 4.85465 25.4927L6.27679 17.445L0.417582 11.7272C0.234777 11.5439 0.105098 11.3139 0.0424615 11.0621C-0.0201749 10.8103 -0.013404 10.546 0.0620475 10.2978C0.144474 10.0437 0.296098 9.81801 0.499711 9.6462C0.703324 9.47438 0.950773 9.36338 1.21398 9.32578L9.32016 8.13935L12.8897 0.806357C13.0062 0.564682 13.188 0.360864 13.4144 0.218251C13.6407 0.0756387 13.9025 0 14.1697 0C14.4368 0 14.6986 0.0756387 14.9249 0.218251C15.1513 0.360864 15.3331 0.564682 15.4496 0.806357L19.0618 8.12505L27.168 9.31148C27.4312 9.34909 27.6786 9.46009 27.8823 9.6319C28.0859 9.80371 28.2375 10.0295 28.3199 10.2835C28.3954 10.5318 28.4021 10.796 28.3395 11.0478C28.2769 11.2996 28.1472 11.5296 27.9644 11.7129L22.1052 17.4307L23.5273 25.4784C23.5781 25.7464 23.5515 26.0233 23.4507 26.2766C23.3499 26.5299 23.1791 26.7489 22.9585 26.9078C22.7009 27.0892 22.3909 27.1797 22.0767 27.1651Z" fill="#ECC43A"/>
<path d="M62.2312 27.1651C62.0038 27.166 61.7794 27.1121 61.577 27.0079L54.3241 23.1913L47.0712 27.0079C46.8357 27.1323 46.5702 27.1879 46.3048 27.1682C46.0394 27.1486 45.7849 27.0545 45.57 26.8966C45.3552 26.7388 45.1888 26.5236 45.0896 26.2754C44.9905 26.0272 44.9626 25.756 45.0091 25.4927L46.4313 17.445L40.572 11.7272C40.3892 11.5439 40.2596 11.3139 40.1969 11.0621C40.1343 10.8103 40.1411 10.546 40.2165 10.2978C40.2989 10.0437 40.4506 9.81801 40.6542 9.6462C40.8578 9.47438 41.1052 9.36338 41.3684 9.32578L49.4746 8.13935L53.0442 0.806357C53.1606 0.564682 53.3425 0.360864 53.5688 0.218251C53.7952 0.0756387 54.057 0 54.3241 0C54.5913 0 54.853 0.0756387 55.0794 0.218251C55.3058 0.360864 55.4876 0.564682 55.604 0.806357L59.2163 8.12505L67.3225 9.31148C67.5857 9.34909 67.8331 9.46009 68.0367 9.6319C68.2403 9.80371 68.392 10.0295 68.4744 10.2835C68.5498 10.5318 68.5566 10.796 68.494 11.0478C68.4313 11.2996 68.3017 11.5296 68.1189 11.7129L62.2596 17.4307L63.6818 25.4784C63.7326 25.7464 63.706 26.0233 63.6052 26.2766C63.5044 26.5299 63.3336 26.7489 63.1129 26.9078C62.8554 27.0892 62.5453 27.1797 62.2312 27.1651Z" fill="#ECC43A"/>
<path d="M102.386 27.1651C102.158 27.166 101.934 27.1121 101.731 27.0079L94.4786 23.1913L87.2257 27.0079C86.9902 27.1323 86.7246 27.1879 86.4593 27.1682C86.1939 27.1486 85.9393 27.0545 85.7245 26.8966C85.5097 26.7388 85.3433 26.5236 85.2441 26.2754C85.1449 26.0272 85.117 25.756 85.1636 25.4927L86.5857 17.445L80.7265 11.7272C80.5437 11.5439 80.414 11.3139 80.3514 11.0621C80.2888 10.8103 80.2955 10.546 80.371 10.2978C80.4534 10.0437 80.605 9.81801 80.8086 9.6462C81.0123 9.47438 81.2597 9.36338 81.5229 9.32578L89.6291 8.13935L93.1987 0.806357C93.3151 0.564682 93.4969 0.360864 93.7233 0.218251C93.9497 0.0756387 94.2114 0 94.4786 0C94.7457 0 95.0075 0.0756387 95.2339 0.218251C95.4602 0.360864 95.6421 0.564682 95.7585 0.806357L99.3707 8.12505L107.477 9.31148C107.74 9.34909 107.988 9.46009 108.191 9.6319C108.395 9.80371 108.546 10.0295 108.629 10.2835C108.704 10.5318 108.711 10.796 108.648 11.0478C108.586 11.2996 108.456 11.5296 108.273 11.7129L102.414 17.4307L103.836 25.4784C103.887 25.7464 103.86 26.0233 103.76 26.2766C103.659 26.5299 103.488 26.7489 103.267 26.9078C103.01 27.0892 102.7 27.1797 102.386 27.1651Z" fill="#ECC43A"/>
<path d="M142.54 27.1651C142.313 27.166 142.088 27.1121 141.886 27.0079L134.633 23.1913L127.38 27.0079C127.145 27.1323 126.879 27.1879 126.614 27.1682C126.348 27.1486 126.094 27.0545 125.879 26.8966C125.664 26.7388 125.498 26.5236 125.399 26.2754C125.299 26.0272 125.272 25.756 125.318 25.4927L126.74 17.445L120.881 11.7272C120.698 11.5439 120.569 11.3139 120.506 11.0621C120.443 10.8103 120.45 10.546 120.525 10.2978C120.608 10.0437 120.759 9.81801 120.963 9.6462C121.167 9.47438 121.414 9.36338 121.677 9.32578L129.784 8.13935L133.353 0.806357C133.47 0.564682 133.651 0.360864 133.878 0.218251C134.104 0.0756387 134.366 0 134.633 0C134.9 0 135.162 0.0756387 135.388 0.218251C135.615 0.360864 135.797 0.564682 135.913 0.806357L139.525 8.12505L147.631 9.31148C147.895 9.34909 148.142 9.46009 148.346 9.6319C148.549 9.80371 148.701 10.0295 148.783 10.2835C148.859 10.5318 148.866 10.796 148.803 11.0478C148.74 11.2996 148.611 11.5296 148.428 11.7129L142.569 17.4307L143.991 25.4784C144.041 25.7464 144.015 26.0233 143.914 26.2766C143.813 26.5299 143.643 26.7489 143.422 26.9078C143.164 27.0892 142.854 27.1797 142.54 27.1651Z" fill="#ECC43A"/>
<path d="M182.695 27.1651C182.467 27.166 182.243 27.1121 182.04 27.0079L174.788 23.1913L167.535 27.0079C167.299 27.1323 167.034 27.1879 166.768 27.1682C166.503 27.1486 166.248 27.0545 166.033 26.8966C165.819 26.7388 165.652 26.5236 165.553 26.2754C165.454 26.0272 165.426 25.756 165.473 25.4927L166.895 17.445L161.035 11.7272C160.853 11.5439 160.723 11.3139 160.66 11.0621C160.598 10.8103 160.604 10.546 160.68 10.2978C160.762 10.0437 160.914 9.81801 161.118 9.6462C161.321 9.47438 161.569 9.36338 161.832 9.32578L169.938 8.13935L173.508 0.806357C173.624 0.564682 173.806 0.360864 174.032 0.218251C174.259 0.0756387 174.52 0 174.788 0C175.055 0 175.316 0.0756387 175.543 0.218251C175.769 0.360864 175.951 0.564682 176.067 0.806357L179.68 8.12505L187.786 9.31148C188.049 9.34909 188.297 9.46009 188.5 9.6319C188.704 9.80371 188.855 10.0295 188.938 10.2835C189.013 10.5318 189.02 10.796 188.957 11.0478C188.895 11.2996 188.765 11.5296 188.582 11.7129L182.723 17.4307L184.145 25.4784C184.196 25.7464 184.169 26.0233 184.069 26.2766C183.968 26.5299 183.797 26.7489 183.576 26.9078C183.319 27.0892 183.009 27.1797 182.695 27.1651Z" fill="#ECC43A"/>
</svg>
