<svg width="20" height="17" viewBox="0 0 20 17" fill="none" xmlns="http://www.w3.org/2000/svg">
<path d="M10 17C9.86841 17.0007 9.73797 16.9755 9.61615 16.9258C9.49432 16.876 9.38352 16.8027 9.29009 16.71L1.52113 8.92977C0.546625 7.94492 0 6.61527 0 5.22967C0 3.84406 0.546625 2.51442 1.52113 1.52957C2.50326 0.550054 3.83366 0 5.22064 0C6.60762 0 7.93801 0.550054 8.92014 1.52957L10 2.6096L11.0799 1.52957C12.062 0.550054 13.3924 0 14.7794 0C16.1663 0 17.4967 0.550054 18.4789 1.52957C19.4534 2.51442 20 3.84406 20 5.22967C20 6.61527 19.4534 7.94492 18.4789 8.92977L10.7099 16.71C10.6165 16.8027 10.5057 16.876 10.3839 16.9258C10.262 16.9755 10.1316 17.0007 10 17ZM5.22064 1.99958C4.79737 1.99767 4.37793 2.07976 3.98661 2.24112C3.59529 2.40248 3.23988 2.63989 2.94094 2.93961C2.33708 3.54674 1.99811 4.36829 1.99811 5.22467C1.99811 6.08104 2.33708 6.90259 2.94094 7.50973L10 14.5799L17.0591 7.50973C17.6629 6.90259 18.0019 6.08104 18.0019 5.22467C18.0019 4.36829 17.6629 3.54674 17.0591 2.93961C16.4428 2.3573 15.6271 2.03288 14.7794 2.03288C13.9316 2.03288 13.1159 2.3573 12.4997 2.93961L10.7099 4.73965C10.617 4.83339 10.5064 4.90778 10.3845 4.95855C10.2627 5.00932 10.132 5.03546 10 5.03546C9.86801 5.03546 9.73732 5.00932 9.61547 4.95855C9.49363 4.90778 9.38305 4.83339 9.29009 4.73965L7.50033 2.93961C7.2014 2.63989 6.84598 2.40248 6.45467 2.24112C6.06335 2.07976 5.64391 1.99767 5.22064 1.99958Z" fill="#FCFBFB"/>
</svg>
