<svg width="8" height="15" viewBox="0 0 8 15" fill="none" xmlns="http://www.w3.org/2000/svg">
<path d="M6.25386 14.9999C6.09381 15.0005 5.93567 14.9651 5.79106 14.8966C5.64646 14.828 5.51906 14.7278 5.41823 14.6035L0.243714 8.17557C0.0861414 7.98387 0 7.74342 0 7.49528C0 7.24713 0.0861414 7.00668 0.243714 6.81498L5.60035 0.38702C5.7822 0.168237 6.0435 0.030652 6.32679 0.00453332C6.61008 -0.0215853 6.89214 0.0659013 7.11092 0.247747C7.32971 0.429592 7.46729 0.690901 7.49341 0.974189C7.51953 1.25748 7.43204 1.53954 7.2502 1.75832L2.46136 7.50063L7.0895 13.2429C7.2205 13.4002 7.30372 13.5917 7.3293 13.7948C7.35488 13.9978 7.32176 14.204 7.23385 14.3888C7.14594 14.5736 7.00693 14.7294 6.83326 14.8377C6.65958 14.946 6.45852 15.0023 6.25386 14.9999Z" fill="#626161"/>
</svg>
