<svg width="142" height="22" viewBox="0 0 142 22" fill="none" xmlns="http://www.w3.org/2000/svg">
<path d="M48.2821 19.1747C48.1247 19.1753 47.9695 19.1382 47.8294 19.0664L42.8101 16.4387L37.7909 19.0664C37.6279 19.1521 37.4441 19.1904 37.2605 19.1769C37.0769 19.1633 36.9007 19.0985 36.752 18.9899C36.6034 18.8812 36.4882 18.733 36.4196 18.5621C36.3509 18.3912 36.3316 18.2045 36.3638 18.0232L37.348 12.4824L33.2933 8.5457C33.1667 8.41945 33.077 8.26115 33.0337 8.08776C32.9903 7.91437 32.995 7.73246 33.0472 7.56153C33.1043 7.38662 33.2092 7.2312 33.3501 7.11291C33.491 6.99462 33.6622 6.91819 33.8444 6.8923L39.4541 6.07544L41.9244 1.02667C42.005 0.86028 42.1308 0.719951 42.2875 0.621763C42.4441 0.523574 42.6252 0.471497 42.8101 0.471497C42.995 0.471497 43.1762 0.523574 43.3328 0.621763C43.4895 0.719951 43.6153 0.86028 43.6959 1.02667L46.1957 6.0656L51.8054 6.88246C51.9875 6.90835 52.1588 6.98478 52.2997 7.10307C52.4406 7.22136 52.5455 7.37678 52.6026 7.55169C52.6548 7.72261 52.6595 7.90453 52.6161 8.07792C52.5728 8.2513 52.483 8.40961 52.3565 8.53586L48.3018 12.4725L49.2859 18.0134C49.3211 18.1979 49.3027 18.3886 49.2329 18.563C49.1632 18.7374 49.045 18.8882 48.8923 18.9975C48.7141 19.1224 48.4995 19.1847 48.2821 19.1747Z" fill="#EBAB65"/>
<path d="M71.2821 19.1747C71.1247 19.1753 70.9695 19.1382 70.8294 19.0664L65.8101 16.4387L60.7909 19.0664C60.6279 19.1521 60.4441 19.1904 60.2605 19.1769C60.0769 19.1633 59.9007 19.0985 59.752 18.9899C59.6034 18.8812 59.4882 18.733 59.4196 18.5621C59.3509 18.3912 59.3316 18.2045 59.3638 18.0232L60.348 12.4824L56.2933 8.5457C56.1667 8.41945 56.077 8.26115 56.0337 8.08776C55.9903 7.91437 55.995 7.73246 56.0472 7.56153C56.1043 7.38662 56.2092 7.2312 56.3501 7.11291C56.491 6.99462 56.6622 6.91819 56.8444 6.8923L62.4541 6.07544L64.9244 1.02667C65.005 0.86028 65.1308 0.719951 65.2875 0.621763C65.4441 0.523574 65.6252 0.471497 65.8101 0.471497C65.995 0.471497 66.1762 0.523574 66.3328 0.621763C66.4895 0.719951 66.6153 0.86028 66.6959 1.02667L69.1957 6.0656L74.8054 6.88246C74.9875 6.90835 75.1588 6.98478 75.2997 7.10307C75.4406 7.22136 75.5455 7.37678 75.6026 7.55169C75.6548 7.72261 75.6595 7.90453 75.6161 8.07792C75.5728 8.2513 75.483 8.40961 75.3565 8.53586L71.3018 12.4725L72.2859 18.0134C72.3211 18.1979 72.3027 18.3886 72.2329 18.563C72.1632 18.7374 72.045 18.8882 71.8923 18.9975C71.7141 19.1224 71.4995 19.1847 71.2821 19.1747Z" fill="#EBAB65"/>
<path d="M93.2821 19.1747C93.1247 19.1753 92.9695 19.1382 92.8294 19.0664L87.8101 16.4387L82.7909 19.0664C82.6279 19.1521 82.4441 19.1904 82.2605 19.1769C82.0769 19.1633 81.9007 19.0985 81.752 18.9899C81.6034 18.8812 81.4882 18.733 81.4196 18.5621C81.3509 18.3912 81.3316 18.2045 81.3638 18.0232L82.348 12.4824L78.2933 8.5457C78.1667 8.41945 78.077 8.26115 78.0337 8.08776C77.9903 7.91437 77.995 7.73246 78.0472 7.56153C78.1043 7.38662 78.2092 7.2312 78.3501 7.11291C78.491 6.99462 78.6622 6.91819 78.8444 6.8923L84.4541 6.07544L86.9244 1.02667C87.005 0.86028 87.1308 0.719951 87.2875 0.621763C87.4441 0.523574 87.6252 0.471497 87.8101 0.471497C87.995 0.471497 88.1762 0.523574 88.3328 0.621763C88.4895 0.719951 88.6153 0.86028 88.6959 1.02667L91.1957 6.0656L96.8054 6.88246C96.9875 6.90835 97.1588 6.98478 97.2997 7.10307C97.4406 7.22136 97.5455 7.37678 97.6026 7.55169C97.6548 7.72261 97.6595 7.90453 97.6161 8.07792C97.5728 8.2513 97.483 8.40961 97.3565 8.53586L93.3018 12.4725L94.2859 18.0134C94.3211 18.1979 94.3027 18.3886 94.2329 18.563C94.1632 18.7374 94.045 18.8882 93.8923 18.9975C93.7141 19.1224 93.4995 19.1847 93.2821 19.1747Z" fill="#EBAB65"/>
<path d="M115.282 19.1747C115.125 19.1753 114.969 19.1382 114.829 19.0664L109.81 16.4387L104.791 19.0664C104.628 19.1521 104.444 19.1904 104.26 19.1769C104.077 19.1633 103.901 19.0985 103.752 18.9899C103.603 18.8812 103.488 18.733 103.42 18.5621C103.351 18.3912 103.332 18.2045 103.364 18.0232L104.348 12.4824L100.293 8.5457C100.167 8.41945 100.077 8.26115 100.034 8.08776C99.9903 7.91437 99.995 7.73246 100.047 7.56153C100.104 7.38662 100.209 7.2312 100.35 7.11291C100.491 6.99462 100.662 6.91819 100.844 6.8923L106.454 6.07544L108.924 1.02667C109.005 0.86028 109.131 0.719951 109.287 0.621763C109.444 0.523574 109.625 0.471497 109.81 0.471497C109.995 0.471497 110.176 0.523574 110.333 0.621763C110.489 0.719951 110.615 0.86028 110.696 1.02667L113.196 6.0656L118.805 6.88246C118.988 6.90835 119.159 6.98478 119.3 7.10307C119.441 7.22136 119.546 7.37678 119.603 7.55169C119.655 7.72261 119.659 7.90453 119.616 8.07792C119.573 8.2513 119.483 8.40961 119.357 8.53586L115.302 12.4725L116.286 18.0134C116.321 18.1979 116.303 18.3886 116.233 18.563C116.163 18.7374 116.045 18.8882 115.892 18.9975C115.714 19.1224 115.499 19.1847 115.282 19.1747Z" fill="#EBAB65"/>
<path d="M137.282 19.1747C137.125 19.1753 136.969 19.1382 136.829 19.0664L131.81 16.4387L126.791 19.0664C126.628 19.1521 126.444 19.1904 126.26 19.1769C126.077 19.1633 125.901 19.0985 125.752 18.9899C125.603 18.8812 125.488 18.733 125.42 18.5621C125.351 18.3912 125.332 18.2045 125.364 18.0232L126.348 12.4824L122.293 8.5457C122.167 8.41945 122.077 8.26115 122.034 8.08776C121.99 7.91437 121.995 7.73246 122.047 7.56153C122.104 7.38662 122.209 7.2312 122.35 7.11291C122.491 6.99462 122.662 6.91819 122.844 6.8923L128.454 6.07544L130.924 1.02667C131.005 0.86028 131.131 0.719951 131.287 0.621763C131.444 0.523574 131.625 0.471497 131.81 0.471497C131.995 0.471497 132.176 0.523574 132.333 0.621763C132.489 0.719951 132.615 0.86028 132.696 1.02667L135.196 6.0656L140.805 6.88246C140.988 6.90835 141.159 6.98478 141.3 7.10307C141.441 7.22136 141.546 7.37678 141.603 7.55169C141.655 7.72261 141.659 7.90453 141.616 8.07792C141.573 8.2513 141.483 8.40961 141.357 8.53586L137.302 12.4725L138.286 18.0134C138.321 18.1979 138.303 18.3886 138.233 18.563C138.163 18.7374 138.045 18.8882 137.892 18.9975C137.714 19.1224 137.499 19.1847 137.282 19.1747ZM131.81 14.3523C131.968 14.3483 132.124 14.3856 132.263 14.4605L135.973 16.4289L135.265 12.2855C135.237 12.1273 135.249 11.9648 135.298 11.8121C135.348 11.6594 135.435 11.5213 135.55 11.4096L138.502 8.52602L134.369 7.91583C134.217 7.88531 134.075 7.81951 133.954 7.72376C133.832 7.62801 133.735 7.505 133.67 7.3647L131.81 3.67408L129.95 7.3647C129.879 7.50613 129.775 7.62829 129.646 7.72081C129.518 7.81333 129.369 7.87348 129.212 7.89615L125.078 8.50633L128.031 11.3899C128.146 11.5016 128.233 11.6398 128.282 11.7924C128.332 11.9451 128.344 12.1076 128.316 12.2658L127.608 16.36L131.318 14.3916C131.475 14.3332 131.646 14.3196 131.81 14.3523Z" fill="#EBAB65"/>
<rect x="0.5" y="0.5" width="21" height="21" rx="2.5" fill="#FCFBFB" stroke="#939191"/>
</svg>
