<svg width="16" height="17" viewBox="0 0 16 17" fill="none" xmlns="http://www.w3.org/2000/svg">
<path d="M8 0C6.41775 0 4.87103 0.478365 3.55544 1.3746C2.23985 2.27084 1.21447 3.5447 0.608967 5.03509C0.00346627 6.52548 -0.15496 8.16546 0.153721 9.74765C0.462403 11.3298 1.22433 12.7832 2.34315 13.9239C3.46197 15.0646 4.88743 15.8414 6.43928 16.1561C7.99113 16.4708 9.59966 16.3093 11.0615 15.692C12.5233 15.0746 13.7727 14.0292 14.6518 12.6879C15.5308 11.3466 16 9.7696 16 8.15641C16 7.0853 15.7931 6.02467 15.391 5.03509C14.989 4.04551 14.3997 3.14635 13.6569 2.38896C12.914 1.63157 12.0321 1.03077 11.0615 0.62087C10.0909 0.210972 9.05058 0 8 0ZM8 14.6815C6.7342 14.6815 5.49683 14.2989 4.44435 13.5819C3.39188 12.8649 2.57158 11.8458 2.08717 10.6535C1.60277 9.46116 1.47603 8.14918 1.72298 6.88342C1.96992 5.61767 2.57946 4.455 3.47452 3.54245C4.36958 2.62989 5.50995 2.00844 6.75143 1.75666C7.9929 1.50489 9.27973 1.63411 10.4492 2.12798C11.6186 2.62185 12.6182 3.45819 13.3214 4.53124C14.0246 5.6043 14.4 6.86586 14.4 8.15641C14.4 9.88699 13.7257 11.5467 12.5255 12.7704C11.3253 13.9941 9.69739 14.6815 8 14.6815Z" fill="#10A6A0"/>
<path d="M11.2002 7.34094H8.80021V4.89401C8.80021 4.67769 8.71592 4.47023 8.56589 4.31727C8.41586 4.1643 8.21238 4.07837 8.00021 4.07837C7.78803 4.07837 7.58455 4.1643 7.43452 4.31727C7.28449 4.47023 7.20021 4.67769 7.20021 4.89401V8.15658C7.20021 8.3729 7.28449 8.58036 7.43452 8.73332C7.58455 8.88629 7.78803 8.97222 8.00021 8.97222H11.2002C11.4124 8.97222 11.6159 8.88629 11.7659 8.73332C11.9159 8.58036 12.0002 8.3729 12.0002 8.15658C12.0002 7.94026 11.9159 7.7328 11.7659 7.57983C11.6159 7.42687 11.4124 7.34094 11.2002 7.34094Z" fill="#10A6A0"/>
</svg>
