<svg width="144" height="23" viewBox="0 0 144 23" fill="none" xmlns="http://www.w3.org/2000/svg">
<path d="M48.6123 19.8387C48.4538 19.8394 48.2975 19.802 48.1564 19.7297L43.1027 17.0839L38.0489 19.7297C37.8848 19.816 37.6997 19.8546 37.5148 19.8409C37.3299 19.8273 37.1525 19.7621 37.0029 19.6526C36.8532 19.5432 36.7372 19.394 36.6681 19.2219C36.599 19.0499 36.5796 18.8619 36.612 18.6793L37.6029 13.1004L33.5203 9.13659C33.3929 9.00948 33.3025 8.85008 33.2589 8.6755C33.2152 8.50092 33.22 8.31775 33.2725 8.14565C33.33 7.96954 33.4356 7.81305 33.5775 7.69394C33.7194 7.57483 33.8918 7.49788 34.0752 7.47181L39.7235 6.64933L42.2108 1.56581C42.2919 1.39827 42.4186 1.25698 42.5764 1.15811C42.7341 1.05925 42.9165 1.00681 43.1027 1.00681C43.2888 1.00681 43.4712 1.05925 43.6289 1.15811C43.7867 1.25698 43.9134 1.39827 43.9945 1.56581L46.5115 6.63942L52.1598 7.4619C52.3432 7.48797 52.5157 7.56493 52.6575 7.68403C52.7994 7.80314 52.9051 7.95963 52.9625 8.13574C53.0151 8.30784 53.0198 8.49101 52.9761 8.66559C52.9325 8.84017 52.8421 8.99957 52.7148 9.12668L48.6321 13.0904L49.623 18.6694C49.6584 18.8552 49.6399 19.0472 49.5697 19.2228C49.4994 19.3984 49.3804 19.5502 49.2267 19.6604C49.0472 19.7861 48.8312 19.8488 48.6123 19.8387Z" fill="#EBAB65"/>
<path d="M72.3948 19.8387C72.2363 19.8394 72.08 19.802 71.939 19.7297L66.8852 17.0839L61.8314 19.7297C61.6673 19.816 61.4823 19.8546 61.2974 19.8409C61.1125 19.8273 60.9351 19.7621 60.7854 19.6526C60.6357 19.5432 60.5197 19.394 60.4506 19.2219C60.3815 19.0499 60.3621 18.8619 60.3945 18.6793L61.3855 13.1004L57.3028 9.13659C57.1754 9.00948 57.0851 8.85008 57.0414 8.6755C56.9978 8.50092 57.0025 8.31775 57.0551 8.14565C57.1125 7.96954 57.2182 7.81305 57.36 7.69394C57.5019 7.57483 57.6743 7.49788 57.8577 7.47181L63.5061 6.64933L65.9934 1.56581C66.0745 1.39827 66.2012 1.25698 66.3589 1.15811C66.5167 1.05925 66.699 1.00681 66.8852 1.00681C67.0714 1.00681 67.2537 1.05925 67.4115 1.15811C67.5692 1.25698 67.6959 1.39827 67.777 1.56581L70.294 6.63942L75.9424 7.4619C76.1258 7.48797 76.2982 7.56493 76.4401 7.68403C76.582 7.80314 76.6876 7.95963 76.745 8.13574C76.7976 8.30784 76.8023 8.49101 76.7587 8.66559C76.715 8.84017 76.6247 8.99957 76.4973 9.12668L72.4146 13.0904L73.4056 18.6694C73.441 18.8552 73.4224 19.0472 73.3522 19.2228C73.282 19.3984 73.1629 19.5502 73.0092 19.6604C72.8298 19.7861 72.6137 19.8488 72.3948 19.8387ZM66.8852 14.9831C67.044 14.9791 67.2012 15.0167 67.341 15.0921L71.0769 17.074L70.3634 12.9022C70.3357 12.7429 70.3474 12.5792 70.3975 12.4255C70.4476 12.2718 70.5346 12.1326 70.6508 12.0202L73.6236 9.11677L69.4616 8.50239C69.309 8.47166 69.1658 8.40541 69.0435 8.309C68.9213 8.21258 68.8235 8.08873 68.7581 7.94747L66.8852 4.23144L65.0123 7.94747C64.9406 8.08987 64.8356 8.21287 64.7062 8.30603C64.5769 8.39918 64.4269 8.45974 64.2691 8.48257L60.1072 9.09696L63.08 12.0004C63.1962 12.1128 63.2831 12.252 63.3332 12.4057C63.3833 12.5594 63.395 12.7231 63.3674 12.8823L62.6539 17.0047L66.3897 15.0228C66.548 14.9639 66.7196 14.9502 66.8852 14.9831Z" fill="#EBAB65"/>
<path d="M96.1774 19.8387C96.0189 19.8394 95.8626 19.802 95.7215 19.7297L90.6677 17.0839L85.6139 19.7297C85.4498 19.816 85.2648 19.8546 85.0799 19.8409C84.895 19.8273 84.7176 19.7621 84.5679 19.6526C84.4183 19.5432 84.3023 19.394 84.2332 19.2219C84.1641 19.0499 84.1447 18.8619 84.1771 18.6793L85.168 13.1004L81.0854 9.13659C80.958 9.00948 80.8676 8.85008 80.824 8.6755C80.7803 8.50092 80.785 8.31775 80.8376 8.14565C80.8951 7.96954 81.0007 7.81305 81.1426 7.69394C81.2845 7.57483 81.4569 7.49788 81.6403 7.47181L87.2886 6.64933L89.7759 1.56581C89.857 1.39827 89.9837 1.25698 90.1415 1.15811C90.2992 1.05925 90.4816 1.00681 90.6677 1.00681C90.8539 1.00681 91.0363 1.05925 91.194 1.15811C91.3517 1.25698 91.4784 1.39827 91.5596 1.56581L94.0766 6.63942L99.7249 7.4619C99.9083 7.48797 100.081 7.56493 100.223 7.68403C100.365 7.80314 100.47 7.95963 100.528 8.13574C100.58 8.30784 100.585 8.49101 100.541 8.66559C100.498 8.84017 100.407 8.99957 100.28 9.12668L96.1972 13.0904L97.1881 18.6694C97.2235 18.8552 97.205 19.0472 97.1347 19.2228C97.0645 19.3984 96.9455 19.5502 96.7917 19.6604C96.6123 19.7861 96.3962 19.8488 96.1774 19.8387ZM90.6677 14.9831C90.8266 14.9791 90.9837 15.0167 91.1236 15.0921L94.8594 17.074L94.1459 12.9022C94.1183 12.7429 94.13 12.5792 94.1801 12.4255C94.2302 12.2718 94.3171 12.1326 94.4333 12.0202L97.4061 9.11677L93.2442 8.50239C93.0916 8.47166 92.9483 8.40541 92.8261 8.309C92.7039 8.21258 92.6061 8.08873 92.5406 7.94747L90.6677 4.23144L88.7949 7.94747C88.7232 8.08987 88.6182 8.21287 88.4888 8.30603C88.3594 8.39918 88.2094 8.45974 88.0517 8.48257L83.8897 9.09696L86.8625 12.0004C86.9787 12.1128 87.0657 12.252 87.1158 12.4057C87.1659 12.5594 87.1776 12.7231 87.1499 12.8823L86.4364 17.0047L90.1723 15.0228C90.3306 14.9639 90.5021 14.9502 90.6677 14.9831Z" fill="#EBAB65"/>
<path d="M118.358 19.2756C118.197 19.2762 118.037 19.2383 117.894 19.1649L112.748 16.478L107.602 19.1649C107.435 19.2525 107.247 19.2917 107.059 19.2778C106.87 19.264 106.69 19.1977 106.537 19.0866C106.385 18.9755 106.267 18.8239 106.196 18.6492C106.126 18.4745 106.106 18.2836 106.139 18.0982L107.148 12.4325L102.991 8.40716C102.862 8.27807 102.77 8.1162 102.725 7.9389C102.681 7.76161 102.686 7.5756 102.739 7.40082C102.798 7.22197 102.905 7.06305 103.05 6.94209C103.194 6.82113 103.37 6.74299 103.556 6.71651L109.307 5.88125L111.84 0.718747C111.923 0.548604 112.052 0.405114 112.212 0.304713C112.373 0.204313 112.559 0.151062 112.748 0.151062C112.938 0.151062 113.123 0.204313 113.284 0.304713C113.445 0.405114 113.574 0.548604 113.656 0.718747L116.219 5.87119L121.97 6.70645C122.157 6.73292 122.332 6.81107 122.477 6.93203C122.621 7.05299 122.729 7.21191 122.787 7.39076C122.841 7.56553 122.846 7.75155 122.801 7.92884C122.757 8.10613 122.665 8.26801 122.535 8.39709L118.378 12.4224L119.387 18.0881C119.423 18.2768 119.404 18.4718 119.333 18.6501C119.261 18.8284 119.14 18.9826 118.983 19.0945C118.801 19.2222 118.581 19.2859 118.358 19.2756ZM112.748 14.3445C112.91 14.3405 113.07 14.3786 113.212 14.4552L117.016 16.4679L116.29 12.2312C116.261 12.0695 116.273 11.9033 116.324 11.7472C116.375 11.591 116.464 11.4498 116.582 11.3356L119.609 8.38703L115.371 7.7631C115.216 7.7319 115.07 7.66461 114.946 7.5667C114.821 7.46879 114.722 7.34301 114.655 7.19955L112.748 3.42579L110.841 7.19955C110.768 7.34417 110.661 7.46908 110.529 7.56369C110.398 7.65829 110.245 7.71979 110.084 7.74298L105.847 8.36691L108.874 11.3155C108.992 11.4296 109.08 11.5709 109.131 11.727C109.182 11.8832 109.194 12.0493 109.166 12.2111L108.44 16.3975L112.244 14.3848C112.405 14.325 112.579 14.3111 112.748 14.3445Z" fill="#EBAB65"/>
<path d="M139.607 18.8319C139.448 18.8326 139.292 18.7952 139.151 18.7229L134.097 16.0771L129.043 18.7229C128.879 18.8092 128.694 18.8477 128.509 18.8341C128.324 18.8205 128.147 18.7552 127.997 18.6458C127.847 18.5364 127.731 18.3872 127.662 18.2151C127.593 18.0431 127.574 17.8551 127.606 17.6725L128.597 12.0935L124.515 8.12978C124.387 8.00267 124.297 7.84327 124.253 7.66869C124.21 7.49411 124.214 7.31094 124.267 7.13884C124.324 6.96272 124.43 6.80623 124.572 6.68713C124.714 6.56802 124.886 6.49107 125.069 6.465L130.718 5.64252L133.205 0.558999C133.286 0.39146 133.413 0.250165 133.571 0.1513C133.728 0.0524358 133.911 0 134.097 0C134.283 0 134.465 0.0524358 134.623 0.1513C134.781 0.250165 134.908 0.39146 134.989 0.558999L137.506 5.63261L143.154 6.45509C143.338 6.48116 143.51 6.55811 143.652 6.67722C143.794 6.79632 143.899 6.95281 143.957 7.12893C144.009 7.30103 144.014 7.4842 143.97 7.65878C143.927 7.83336 143.836 7.99276 143.709 8.11987L139.626 12.0836L140.617 17.6626C140.653 17.8484 140.634 18.0404 140.564 18.216C140.494 18.3916 140.375 18.5434 140.221 18.6536C140.041 18.7793 139.825 18.842 139.607 18.8319ZM134.097 13.9763C134.256 13.9723 134.413 14.0099 134.553 14.0853L138.289 16.0672L137.575 11.8953C137.547 11.7361 137.559 11.5724 137.609 11.4187C137.659 11.265 137.746 11.1258 137.863 11.0134L140.835 8.10996L136.673 7.49558C136.521 7.46485 136.378 7.39859 136.255 7.30218C136.133 7.20577 136.035 7.08191 135.97 6.94065L134.097 3.22463L132.224 6.94065C132.152 7.08305 132.047 7.20605 131.918 7.29921C131.789 7.39237 131.639 7.45293 131.481 7.47576L127.319 8.09014L130.292 10.9936C130.408 11.106 130.495 11.2451 130.545 11.3989C130.595 11.5526 130.607 11.7162 130.579 11.8755L129.866 15.9978L133.601 14.016C133.76 13.9571 133.931 13.9434 134.097 13.9763Z" fill="#EBAB65"/>
<rect x="0.506814" y="0.65783" width="21.1363" height="21.1363" rx="2.5" fill="#FCFBFB" stroke="#939191"/>
</svg>
