<svg width="14" height="14" viewBox="0 0 14 14" fill="none" xmlns="http://www.w3.org/2000/svg">
<g clip-path="url(#clip0_1234_1593)">
<path d="M10.4927 11.5518H9.8296L9.59456 11.3251C10.4456 10.338 10.9134 9.07776 10.9124 7.7744C10.9124 6.69526 10.5924 5.64035 9.99291 4.74308C9.39337 3.84581 8.54123 3.14647 7.54423 2.7335C6.54724 2.32053 5.45017 2.21248 4.39177 2.42301C3.33337 2.63354 2.36116 3.1532 1.59809 3.91626C0.835027 4.67933 0.315372 5.65154 0.104842 6.70994C-0.105687 7.76834 0.0023641 8.86541 0.415333 9.8624C0.828301 10.8594 1.52764 11.7115 2.42491 12.3111C3.32218 12.9106 4.37709 13.2306 5.45623 13.2306C6.80769 13.2306 8.05003 12.7354 9.00697 11.9127L9.23361 12.1478V12.8109L13.4307 16.9996L14.6814 15.7489L10.4927 11.5518ZM5.45623 11.5518C3.36607 11.5518 1.67884 9.86455 1.67884 7.7744C1.67884 5.68424 3.36607 3.99701 5.45623 3.99701C7.54638 3.99701 9.23361 5.68424 9.23361 7.7744C9.23361 9.86455 7.54638 11.5518 5.45623 11.5518Z" fill="white"/>
</g>
<defs>
<clipPath id="clip0_1234_1593">
<rect width="16.2857" height="16.2857" fill="white" transform="scale(1.04383)"/>
</clipPath>
</defs>
</svg>
