<svg width="16" height="12" viewBox="0 0 16 12" fill="none" xmlns="http://www.w3.org/2000/svg">
<path d="M5.84617 11.9516C5.7094 11.9511 5.57418 11.9227 5.44892 11.8681C5.32366 11.8135 5.21102 11.7338 5.11802 11.634L0.270373 6.50364C0.0891619 6.31151 -0.00791256 6.05564 0.000505128 5.79231C0.00892282 5.52898 0.122143 5.27976 0.315259 5.09948C0.508375 4.9192 0.765568 4.82262 1.03026 4.831C1.29495 4.83937 1.54545 4.95201 1.72666 5.14413L5.83619 9.50049L14.2248 0.370991C14.3099 0.265528 14.4158 0.178492 14.536 0.115229C14.6562 0.0519666 14.7881 0.0138126 14.9236 0.00311091C15.0592 -0.0075908 15.1955 0.00938577 15.3242 0.0529977C15.4529 0.0966096 15.5712 0.165936 15.672 0.256719C15.7728 0.347502 15.8539 0.457826 15.9102 0.580913C15.9666 0.704 15.9971 0.837252 15.9998 0.972485C16.0025 1.10772 15.9774 1.24208 15.926 1.36731C15.8747 1.49254 15.7981 1.606 15.7011 1.70072L6.58429 11.6241C6.49216 11.7257 6.37992 11.8072 6.25462 11.8635C6.12931 11.9199 5.99364 11.9499 5.85614 11.9516H5.84617Z" fill="#10A6A0"/>
</svg>
