<svg width="35" height="35" viewBox="0 0 35 35" fill="none" xmlns="http://www.w3.org/2000/svg">
<path d="M32.0833 30.625H2.91666V27.7084H4.37499V5.83336C4.37499 5.44659 4.52864 5.07566 4.80213 4.80217C5.07562 4.52868 5.44655 4.37503 5.83332 4.37503H26.25C26.6368 4.37503 27.0077 4.52868 27.2812 4.80217C27.5547 5.07566 27.7083 5.44659 27.7083 5.83336V13.125H30.625V27.7084H32.0833V30.625ZM24.7917 27.7084H27.7083V16.0417H18.9583V27.7084H21.875V18.9584H24.7917V27.7084ZM24.7917 13.125V7.2917H7.29166V27.7084H16.0417V13.125H24.7917ZM10.2083 16.0417H13.125V18.9584H10.2083V16.0417ZM10.2083 21.875H13.125V24.7917H10.2083V21.875ZM10.2083 10.2084H13.125V13.125H10.2083V10.2084Z" fill="black"/>
</svg>
