<svg width="105" height="118" viewBox="0 0 105 118" fill="none" xmlns="http://www.w3.org/2000/svg">
<g clip-path="url(#clip0_940_1432)">
<mask id="path-1-inside-1_940_1432" fill="white">
<path d="M24.7916 99.4374V92.9169C24.7916 84.7761 32.095 78.2458 39.375 78.2458C48.125 86.3964 56.875 86.3964 65.625 78.2458C72.9079 78.2458 80.2083 84.7761 80.2083 92.9169V99.4374"/>
</mask>
<path d="M39.375 78.2458L40.3974 77.1482L39.9654 76.7458H39.375V78.2458ZM65.625 78.2458V76.7458H65.0346L64.6026 77.1482L65.625 78.2458ZM26.2916 99.4374V92.9169H23.2916V99.4374H26.2916ZM26.2916 92.9169C26.2916 85.6491 32.878 79.7458 39.375 79.7458V76.7458C31.3119 76.7458 23.2916 83.903 23.2916 92.9169H26.2916ZM38.3526 79.3434C42.9021 83.5813 47.6248 85.8588 52.5 85.8588C57.3751 85.8588 62.0979 83.5813 66.6474 79.3434L64.6026 77.1482C60.4021 81.061 56.3748 82.8588 52.5 82.8588C48.6251 82.8588 44.5978 81.061 40.3974 77.1482L38.3526 79.3434ZM65.625 79.7458C72.1246 79.7458 78.7083 85.6489 78.7083 92.9169H81.7083C81.7083 83.9032 73.6912 76.7458 65.625 76.7458V79.7458ZM78.7083 92.9169V99.4374H81.7083V92.9169H78.7083Z" fill="#0976B5" mask="url(#path-1-inside-1_940_1432)"/>
<mask id="path-3-inside-2_940_1432" fill="white">
<path d="M37.9167 63.5747C32.0834 63.5747 32.0834 53.794 32.0834 42.3832C32.0834 30.9723 37.9167 19.5615 52.5 19.5615C67.0834 19.5615 72.9167 30.9723 72.9167 42.3832C72.9167 53.794 72.9167 63.5747 67.0834 63.5747"/>
</mask>
<path d="M37.9167 62.0747C36.9633 62.0747 36.302 61.7128 35.7449 60.969C35.1279 60.1453 34.6353 58.8318 34.2866 56.9804C33.5894 53.2785 33.5834 48.1447 33.5834 42.3832H30.5834C30.5834 48.0325 30.5773 53.4945 31.3385 57.5356C31.7189 59.5557 32.3201 61.4007 33.3437 62.7674C34.4272 64.2141 35.9534 65.0747 37.9167 65.0747V62.0747ZM33.5834 42.3832C33.5834 36.9062 34.987 31.5526 38.0133 27.606C40.9967 23.7154 45.6514 21.0615 52.5 21.0615V18.0615C44.7654 18.0615 39.2117 21.113 35.6326 25.7805C32.0964 30.392 30.5834 36.4493 30.5834 42.3832H33.5834ZM52.5 21.0615C59.3487 21.0615 64.0034 23.7154 66.9868 27.606C70.0131 31.5526 71.4167 36.9062 71.4167 42.3832H74.4167C74.4167 36.4493 72.9036 30.392 69.3675 25.7805C65.7883 21.113 60.2347 18.0615 52.5 18.0615V21.0615ZM71.4167 42.3832C71.4167 48.1447 71.4107 53.2785 70.7135 56.9804C70.3648 58.8318 69.8722 60.1453 69.2552 60.969C68.6981 61.7128 68.0368 62.0747 67.0834 62.0747V65.0747C69.0467 65.0747 70.5729 64.2141 71.6564 62.7674C72.68 61.4007 73.2812 59.5557 73.6616 57.5356C74.4227 53.4945 74.4167 48.0325 74.4167 42.3832H71.4167Z" fill="#0976B5" mask="url(#path-3-inside-2_940_1432)"/>
<path d="M56.6979 30.8034C56.8032 30.948 56.9201 31.1083 57.0479 31.2828C57.6655 32.1266 58.5347 33.3027 59.5412 34.6323C61.5158 37.2409 64.0352 40.4619 66.2253 42.9235C66.2602 43.0105 66.3098 43.1388 66.3696 43.3059C66.4969 43.6616 66.6698 44.1921 66.8436 44.8722C67.1916 46.2335 67.5416 48.187 67.5416 50.5338C67.5416 64.9215 60.2774 72.3555 52.4067 72.3555C48.3214 72.3555 44.5992 70.4832 41.87 66.8461C39.1278 63.1917 37.365 57.7153 37.365 50.5338C37.365 46.5163 37.748 44.1648 38.1058 42.8494C38.2691 42.2487 38.4254 41.8707 38.5333 41.6521C45.9739 40.1527 50.3815 36.3062 54.9802 32.293C55.5479 31.7976 56.1184 31.2997 56.6979 30.8034Z" stroke="#0976B5" stroke-width="2"/>
<path d="M37.9166 63.5747C32.0833 63.5747 32.0833 53.794 32.0833 42.3832C32.0833 30.9723 37.9166 19.5615 52.5 19.5615C67.0833 19.5615 72.9166 30.9723 72.9166 42.3832C72.9166 53.794 72.9166 63.5747 67.0833 63.5747M24.7916 97.8073V92.9169C24.7916 84.7761 32.095 78.2458 39.375 78.2458C48.125 86.3964 56.875 86.3964 65.625 78.2458C72.9079 78.2458 80.2083 84.7761 80.2083 92.9169V97.8073" stroke="#0976B5" stroke-width="5" stroke-linecap="round" stroke-linejoin="round"/>
<path d="M60.7895 48.3889C60.7895 49.208 60.5145 49.9937 60.0251 50.5729C59.5357 51.1521 58.872 51.4775 58.1798 51.4775C57.4877 51.4775 56.8239 51.1521 56.3345 50.5729C55.8451 49.9937 55.5702 49.208 55.5702 48.3889C55.5702 47.5697 55.8451 46.7841 56.3345 46.2049C56.8239 45.6256 57.4877 45.3002 58.1798 45.3002C58.872 45.3002 59.5357 45.6256 60.0251 46.2049C60.5145 46.7841 60.7895 47.5697 60.7895 48.3889ZM50.3509 48.3889C50.3509 49.208 50.0759 49.9937 49.5865 50.5729C49.0971 51.1521 48.4334 51.4775 47.7412 51.4775C47.0491 51.4775 46.3853 51.1521 45.8959 50.5729C45.4065 49.9937 45.1316 49.208 45.1316 48.3889C45.1316 47.5697 45.4065 46.7841 45.8959 46.2049C46.3853 45.6256 47.0491 45.3002 47.7412 45.3002C48.4334 45.3002 49.0971 45.6256 49.5865 46.2049C50.0759 46.7841 50.3509 47.5697 50.3509 48.3889Z" fill="#0976B5"/>
<path d="M36.365 50.5338C36.365 65.2049 43.5648 73.3555 52.4067 73.3555C61.0648 73.3555 68.5416 65.2049 68.5416 50.5338C68.5416 45.6434 67.0833 42.3832 67.0833 42.3832C62.7083 37.4928 56.875 29.3422 56.875 29.3422C51.0417 34.2326 46.6667 39.1229 37.9167 40.753C37.9167 40.753 36.365 42.3832 36.365 50.5338Z" stroke="#0976B5" stroke-width="2" stroke-linejoin="round"/>
<path d="M48.125 61.9446C50.9512 63.4757 53.9583 63.5751 56.875 61.9446" stroke="#0976B5" stroke-width="2" stroke-linecap="round" stroke-linejoin="round"/>
<path d="M79.718 89.4451V76.4782M79.718 76.4782V44.2608C79.718 43.9836 79.7715 43.7114 79.8728 43.4724C79.9742 43.2334 80.1198 43.0363 80.2945 42.9014C80.4692 42.7666 80.6668 42.6989 80.8667 42.7053C81.0667 42.7118 81.2617 42.7922 81.4317 42.9382L97.8768 57.0513C98.0365 57.1885 98.1688 57.3791 98.2616 57.6056C98.3543 57.8321 98.4046 58.0872 98.4078 58.3476C98.4109 58.608 98.3669 58.8654 98.2797 59.0961C98.1925 59.3268 98.0649 59.5234 97.9086 59.668L79.718 76.4782Z" stroke="#0976B5" stroke-width="5" stroke-linecap="round" stroke-linejoin="round"/>
</g>
<defs>
<clipPath id="clip0_940_1432">
<rect width="105" height="117.369" fill="white"/>
</clipPath>
</defs>
</svg>
