<svg width="149" height="28" viewBox="0 0 149 28" fill="none" xmlns="http://www.w3.org/2000/svg">
<path d="M22.0996 27.1933C21.872 27.1942 21.6474 27.1402 21.4448 27.0359L14.1844 23.2153L6.92393 27.0359C6.68817 27.1605 6.42236 27.2161 6.15671 27.1964C5.89106 27.1768 5.63624 27.0826 5.4212 26.9246C5.20617 26.7666 5.03955 26.5511 4.94029 26.3026C4.84102 26.0542 4.8131 25.7827 4.85969 25.5191L6.2833 17.4631L0.418015 11.7394C0.235021 11.5558 0.105207 11.3257 0.0425056 11.0736C-0.0201958 10.8215 -0.0134179 10.557 0.0621119 10.3085C0.144624 10.0542 0.296405 9.8282 0.500229 9.65621C0.704053 9.48422 0.95176 9.3731 1.21524 9.33546L9.32983 8.14779L12.9031 0.807194C13.0197 0.565268 13.2017 0.361238 13.4283 0.218478C13.6549 0.0757172 13.9169 0 14.1844 0C14.4518 0 14.7138 0.0757172 14.9404 0.218478C15.167 0.361238 15.349 0.565268 15.4656 0.807194L19.0816 8.13348L27.1962 9.32115C27.4597 9.35879 27.7074 9.46991 27.9112 9.6419C28.115 9.81389 28.2668 10.0399 28.3493 10.2942C28.4248 10.5427 28.4316 10.8072 28.3689 11.0593C28.3062 11.3114 28.1764 11.5415 27.9934 11.7251L22.1281 17.4487L23.5517 25.5048C23.6026 25.7731 23.5759 26.0504 23.475 26.3039C23.3741 26.5575 23.2032 26.7767 22.9823 26.9357C22.7245 27.1173 22.4141 27.2079 22.0996 27.1933Z" fill="#ECC43A"/>
<path d="M62.2958 27.1933C62.0681 27.1942 61.8435 27.1402 61.6409 27.0359L54.3805 23.2153L47.1201 27.0359C46.8843 27.1605 46.6185 27.2161 46.3528 27.1964C46.0872 27.1768 45.8324 27.0826 45.6173 26.9246C45.4023 26.7666 45.2357 26.5511 45.1364 26.3026C45.0372 26.0542 45.0092 25.7827 45.0558 25.5191L46.4794 17.4631L40.6142 11.7394C40.4312 11.5558 40.3013 11.3257 40.2386 11.0736C40.1759 10.8215 40.1827 10.557 40.2583 10.3085C40.3408 10.0542 40.4925 9.8282 40.6964 9.65621C40.9002 9.48422 41.1479 9.3731 41.4114 9.33546L49.526 8.14779L53.0992 0.807194C53.2158 0.565268 53.3978 0.361238 53.6244 0.218478C53.851 0.0757172 54.1131 0 54.3805 0C54.6479 0 54.91 0.0757172 55.1366 0.218478C55.3632 0.361238 55.5452 0.565268 55.6617 0.807194L59.2777 8.13348L67.3923 9.32115C67.6558 9.35879 67.9035 9.46991 68.1073 9.6419C68.3112 9.81389 68.4629 10.0399 68.5454 10.2942C68.621 10.5427 68.6278 10.8072 68.5651 11.0593C68.5024 11.3114 68.3725 11.5415 68.1895 11.7251L62.3243 17.4487L63.7479 25.5048C63.7987 25.7731 63.7721 26.0504 63.6712 26.3039C63.5703 26.5575 63.3993 26.7767 63.1784 26.9357C62.9206 27.1173 62.6102 27.2079 62.2958 27.1933Z" fill="#ECC43A"/>
<path d="M102.492 27.1933C102.264 27.1942 102.04 27.1402 101.837 27.0359L94.5766 23.2153L87.3162 27.0359C87.0804 27.1605 86.8146 27.2161 86.549 27.1964C86.2833 27.1768 86.0285 27.0826 85.8135 26.9246C85.5984 26.7666 85.4318 26.5511 85.3326 26.3026C85.2333 26.0542 85.2054 25.7827 85.252 25.5191L86.6756 17.4631L80.8103 11.7394C80.6273 11.5558 80.4975 11.3257 80.4348 11.0736C80.3721 10.8215 80.3789 10.557 80.4544 10.3085C80.5369 10.0542 80.6887 9.8282 80.8925 9.65621C81.0963 9.48422 81.344 9.3731 81.6075 9.33546L89.7221 8.14779L93.2954 0.807194C93.412 0.565268 93.594 0.361238 93.8206 0.218478C94.0472 0.0757172 94.3092 0 94.5766 0C94.8441 0 95.1061 0.0757172 95.3327 0.218478C95.5593 0.361238 95.7413 0.565268 95.8579 0.807194L99.4739 8.13348L107.588 9.32115C107.852 9.35879 108.1 9.46991 108.303 9.6419C108.507 9.81389 108.659 10.0399 108.742 10.2942C108.817 10.5427 108.824 10.8072 108.761 11.0593C108.698 11.3114 108.569 11.5415 108.386 11.7251L102.52 17.4487L103.944 25.5048C103.995 25.7731 103.968 26.0504 103.867 26.3039C103.766 26.5575 103.595 26.7767 103.375 26.9357C103.117 27.1173 102.806 27.2079 102.492 27.1933Z" fill="#ECC43A"/>
<path d="M142.688 27.1933C142.46 27.1942 142.236 27.1402 142.033 27.0359L134.773 23.2153L127.512 27.0359C127.277 27.1605 127.011 27.2161 126.745 27.1964C126.479 27.1768 126.225 27.0826 126.01 26.9246C125.795 26.7666 125.628 26.5511 125.529 26.3026C125.429 26.0542 125.402 25.7827 125.448 25.5191L126.872 17.4631L121.006 11.7394C120.823 11.5558 120.694 11.3257 120.631 11.0736C120.568 10.8215 120.575 10.557 120.651 10.3085C120.733 10.0542 120.885 9.8282 121.089 9.65621C121.292 9.48422 121.54 9.3731 121.804 9.33546L129.918 8.14779L133.492 0.807194C133.608 0.565268 133.79 0.361238 134.017 0.218478C134.243 0.0757172 134.505 0 134.773 0C135.04 0 135.302 0.0757172 135.529 0.218478C135.755 0.361238 135.937 0.565268 136.054 0.807194L139.67 8.13348L147.785 9.32115C148.048 9.35879 148.296 9.46991 148.5 9.6419C148.703 9.81389 148.855 10.0399 148.938 10.2942C149.013 10.5427 149.02 10.8072 148.957 11.0593C148.895 11.3114 148.765 11.5415 148.582 11.7251L142.717 17.4487L144.14 25.5048C144.191 25.7731 144.164 26.0504 144.063 26.3039C143.963 26.5575 143.792 26.7767 143.571 26.9357C143.313 27.1173 143.003 27.2079 142.688 27.1933Z" fill="#ECC43A"/>
</svg>
