<svg width="143" height="22" viewBox="0 0 143 22" fill="none" xmlns="http://www.w3.org/2000/svg">
<circle cx="12" cy="10" r="8.5" fill="#FCFBFB" stroke="black"/>
<path d="M48.282 19.1749C48.1246 19.1755 47.9693 19.1384 47.8293 19.0666L42.81 16.4389L37.7908 19.0666C37.6278 19.1523 37.444 19.1906 37.2604 19.177C37.0767 19.1635 36.9006 19.0987 36.7519 18.99C36.6033 18.8814 36.4881 18.7332 36.4194 18.5623C36.3508 18.3914 36.3315 18.2047 36.3637 18.0234L37.3479 12.4825L33.2931 8.54588C33.1666 8.41964 33.0769 8.26133 33.0335 8.08794C32.9902 7.91456 32.9949 7.73264 33.0471 7.56172C33.1041 7.3868 33.2091 7.23138 33.35 7.11309C33.4909 6.9948 33.6621 6.91837 33.8443 6.89248L39.454 6.07563L41.9243 1.02686C42.0048 0.860463 42.1307 0.720134 42.2873 0.621946C42.444 0.523757 42.6251 0.47168 42.81 0.47168C42.9949 0.47168 43.176 0.523757 43.3327 0.621946C43.4893 0.720134 43.6152 0.860463 43.6958 1.02686L46.1955 6.06578L51.8053 6.88264C51.9874 6.90853 52.1587 6.98496 52.2996 7.10325C52.4405 7.22154 52.5454 7.37696 52.6025 7.55187C52.6547 7.7228 52.6594 7.90472 52.616 8.0781C52.5727 8.25149 52.4829 8.4098 52.3564 8.53604L48.3017 12.4727L49.2858 18.0136C49.321 18.1981 49.3026 18.3888 49.2328 18.5632C49.163 18.7375 49.0448 18.8883 48.8922 18.9977C48.7139 19.1226 48.4994 19.1849 48.282 19.1749Z" fill="#EBAB65"/>
<path d="M71.2821 19.1747C71.1247 19.1753 70.9695 19.1382 70.8294 19.0664L65.8101 16.4387L60.7909 19.0664C60.6279 19.1521 60.4441 19.1904 60.2605 19.1769C60.0769 19.1633 59.9007 19.0985 59.752 18.9899C59.6034 18.8812 59.4882 18.733 59.4196 18.5621C59.3509 18.3912 59.3316 18.2045 59.3638 18.0232L60.348 12.4824L56.2933 8.5457C56.1667 8.41945 56.077 8.26115 56.0337 8.08776C55.9903 7.91437 55.995 7.73246 56.0472 7.56153C56.1043 7.38662 56.2092 7.2312 56.3501 7.11291C56.491 6.99462 56.6622 6.91819 56.8444 6.8923L62.4541 6.07544L64.9244 1.02667C65.005 0.86028 65.1308 0.719951 65.2875 0.621763C65.4441 0.523574 65.6252 0.471497 65.8101 0.471497C65.995 0.471497 66.1762 0.523574 66.3328 0.621763C66.4895 0.719951 66.6153 0.86028 66.6959 1.02667L69.1957 6.0656L74.8054 6.88246C74.9875 6.90835 75.1588 6.98478 75.2997 7.10307C75.4406 7.22136 75.5455 7.37678 75.6026 7.55169C75.6548 7.72261 75.6595 7.90453 75.6161 8.07792C75.5728 8.2513 75.483 8.40961 75.3565 8.53586L71.3018 12.4725L72.2859 18.0134C72.3211 18.1979 72.3027 18.3886 72.2329 18.563C72.1632 18.7374 72.045 18.8882 71.8923 18.9975C71.7141 19.1224 71.4995 19.1847 71.2821 19.1747Z" fill="#EBAB65"/>
<path d="M93.2821 19.1747C93.1247 19.1753 92.9695 19.1382 92.8294 19.0664L87.8101 16.4387L82.7909 19.0664C82.6279 19.1521 82.4441 19.1904 82.2605 19.1769C82.0769 19.1633 81.9007 19.0985 81.752 18.9899C81.6034 18.8812 81.4882 18.733 81.4196 18.5621C81.3509 18.3912 81.3316 18.2045 81.3638 18.0232L82.348 12.4824L78.2933 8.5457C78.1667 8.41945 78.077 8.26115 78.0337 8.08776C77.9903 7.91437 77.995 7.73246 78.0472 7.56153C78.1043 7.38662 78.2092 7.2312 78.3501 7.11291C78.491 6.99462 78.6622 6.91819 78.8444 6.8923L84.4541 6.07544L86.9244 1.02667C87.005 0.86028 87.1308 0.719951 87.2875 0.621763C87.4441 0.523574 87.6252 0.471497 87.8101 0.471497C87.995 0.471497 88.1762 0.523574 88.3328 0.621763C88.4895 0.719951 88.6153 0.86028 88.6959 1.02667L91.1957 6.0656L96.8054 6.88246C96.9875 6.90835 97.1588 6.98478 97.2997 7.10307C97.4406 7.22136 97.5455 7.37678 97.6026 7.55169C97.6548 7.72261 97.6595 7.90453 97.6161 8.07792C97.5728 8.2513 97.483 8.40961 97.3565 8.53586L93.3018 12.4725L94.2859 18.0134C94.3211 18.1979 94.3027 18.3886 94.2329 18.563C94.1632 18.7374 94.045 18.8882 93.8923 18.9975C93.7141 19.1224 93.4995 19.1847 93.2821 19.1747Z" fill="#EBAB65"/>
<path d="M115.282 19.1749C115.125 19.1755 114.969 19.1384 114.829 19.0666L109.81 16.4389L104.791 19.0666C104.628 19.1523 104.444 19.1906 104.26 19.177C104.077 19.1635 103.901 19.0987 103.752 18.99C103.603 18.8814 103.488 18.7332 103.419 18.5623C103.351 18.3914 103.332 18.2047 103.364 18.0234L104.348 12.4825L100.293 8.54588C100.167 8.41964 100.077 8.26133 100.034 8.08794C99.9902 7.91456 99.9949 7.73264 100.047 7.56172C100.104 7.3868 100.209 7.23138 100.35 7.11309C100.491 6.9948 100.662 6.91837 100.844 6.89248L106.454 6.07563L108.924 1.02686C109.005 0.860463 109.131 0.720134 109.287 0.621946C109.444 0.523757 109.625 0.47168 109.81 0.47168C109.995 0.47168 110.176 0.523757 110.333 0.621946C110.489 0.720134 110.615 0.860463 110.696 1.02686L113.196 6.06578L118.805 6.88264C118.987 6.90853 119.159 6.98496 119.3 7.10325C119.44 7.22154 119.545 7.37696 119.602 7.55187C119.655 7.7228 119.659 7.90472 119.616 8.0781C119.573 8.25149 119.483 8.4098 119.356 8.53604L115.302 12.4727L116.286 18.0136C116.321 18.1981 116.303 18.3888 116.233 18.5632C116.163 18.7375 116.045 18.8883 115.892 18.9977C115.714 19.1226 115.499 19.1849 115.282 19.1749ZM109.81 14.3525C109.968 14.3485 110.124 14.3858 110.263 14.4607L113.973 16.429L113.264 12.2857C113.237 12.1275 113.249 11.965 113.298 11.8123C113.348 11.6596 113.434 11.5214 113.55 11.4098L116.502 8.5262L112.369 7.91602C112.217 7.8855 112.075 7.8197 111.954 7.72394C111.832 7.62819 111.735 7.50518 111.67 7.36488L109.81 3.67426L107.95 7.36488C107.879 7.50631 107.774 7.62847 107.646 7.72099C107.517 7.81351 107.369 7.87366 107.212 7.89633L103.078 8.50651L106.031 11.3901C106.146 11.5018 106.233 11.6399 106.282 11.7926C106.332 11.9453 106.344 12.1078 106.316 12.266L105.608 16.3602L109.318 14.3918C109.475 14.3334 109.646 14.3197 109.81 14.3525Z" fill="#EBAB65"/>
<path d="M137.875 19.1747C137.718 19.1753 137.562 19.1382 137.422 19.0664L132.403 16.4387L127.384 19.0664C127.221 19.1521 127.037 19.1904 126.854 19.1769C126.67 19.1633 126.494 19.0985 126.345 18.9899C126.196 18.8812 126.081 18.733 126.013 18.5621C125.944 18.3912 125.925 18.2045 125.957 18.0232L126.941 12.4824L122.886 8.5457C122.76 8.41945 122.67 8.26115 122.627 8.08776C122.583 7.91437 122.588 7.73246 122.64 7.56153C122.697 7.38662 122.802 7.2312 122.943 7.11291C123.084 6.99462 123.255 6.91819 123.437 6.8923L129.047 6.07544L131.517 1.02667C131.598 0.86028 131.724 0.719951 131.88 0.621763C132.037 0.523574 132.218 0.471497 132.403 0.471497C132.588 0.471497 132.769 0.523574 132.926 0.621763C133.082 0.719951 133.208 0.86028 133.289 1.02667L135.789 6.0656L141.398 6.88246C141.581 6.90835 141.752 6.98478 141.893 7.10307C142.034 7.22136 142.139 7.37678 142.196 7.55169C142.248 7.72261 142.252 7.90453 142.209 8.07792C142.166 8.2513 142.076 8.40961 141.95 8.53586L137.895 12.4725L138.879 18.0134C138.914 18.1979 138.896 18.3886 138.826 18.563C138.756 18.7374 138.638 18.8882 138.485 18.9975C138.307 19.1224 138.092 19.1847 137.875 19.1747ZM132.403 14.3523C132.561 14.3483 132.717 14.3856 132.856 14.4605L136.566 16.4289L135.858 12.2855C135.83 12.1273 135.842 11.9648 135.891 11.8121C135.941 11.6594 136.028 11.5213 136.143 11.4096L139.095 8.52602L134.962 7.91583C134.81 7.88531 134.668 7.81951 134.547 7.72376C134.425 7.62801 134.328 7.505 134.263 7.3647L132.403 3.67408L130.543 7.3647C130.472 7.50613 130.368 7.62829 130.239 7.72081C130.111 7.81333 129.962 7.87348 129.805 7.89615L125.671 8.50633L128.624 11.3899C128.739 11.5016 128.826 11.6398 128.875 11.7924C128.925 11.9451 128.937 12.1076 128.909 12.2658L128.201 16.36L131.911 14.3916C132.068 14.3332 132.239 14.3196 132.403 14.3523Z" fill="#EBAB65"/>
<rect x="0.5" y="0.5" width="21" height="21" rx="2.5" fill="#FCFBFB" stroke="#939191"/>
</svg>
