<svg width="21" height="21" viewBox="0 0 21 21" fill="none" xmlns="http://www.w3.org/2000/svg">
<path d="M10.5 0C8.42331 0 6.39324 0.615815 4.66652 1.76957C2.9398 2.92333 1.59399 4.5632 0.79927 6.48183C0.00454948 8.40045 -0.203386 10.5117 0.201759 12.5485C0.606904 14.5853 1.60693 16.4562 3.07539 17.9246C4.54384 19.3931 6.41476 20.3931 8.45156 20.7983C10.4884 21.2034 12.5996 20.9955 14.5182 20.2007C16.4368 19.406 18.0767 18.0602 19.2304 16.3335C20.3842 14.6068 21 12.5767 21 10.5C21 9.12112 20.7284 7.75575 20.2008 6.48183C19.6731 5.20791 18.8996 4.0504 17.9246 3.07538C16.9496 2.10036 15.7921 1.32694 14.5182 0.799265C13.2443 0.271591 11.8789 0 10.5 0ZM10.5 18.9C8.83865 18.9 7.21459 18.4074 5.83322 17.4844C4.45184 16.5613 3.37519 15.2494 2.73942 13.7145C2.10364 12.1796 1.93729 10.4907 2.26141 8.86125C2.58553 7.2318 3.38555 5.73507 4.56031 4.56031C5.73507 3.38554 7.23181 2.58552 8.86125 2.2614C10.4907 1.93729 12.1797 2.10364 13.7146 2.73941C15.2495 3.37519 16.5614 4.45184 17.4844 5.83321C18.4074 7.21459 18.9 8.83864 18.9 10.5C18.9 12.7278 18.015 14.8644 16.4397 16.4397C14.8644 18.015 12.7278 18.9 10.5 18.9Z" fill="#00A19A"/>
<path d="M10.4999 7.35033C11.0798 7.35033 11.5499 6.88023 11.5499 6.30033C11.5499 5.72043 11.0798 5.25033 10.4999 5.25033C9.91997 5.25033 9.44987 5.72043 9.44987 6.30033C9.44987 6.88023 9.91997 7.35033 10.4999 7.35033Z" fill="#00A19A"/>
<path d="M10.4999 8.4004C10.2214 8.4004 9.95432 8.51102 9.75741 8.70794C9.5605 8.90485 9.44987 9.17192 9.44987 9.4504V14.7004C9.44987 14.9789 9.5605 15.246 9.75741 15.4429C9.95432 15.6398 10.2214 15.7504 10.4999 15.7504C10.7784 15.7504 11.0454 15.6398 11.2423 15.4429C11.4392 15.246 11.5499 14.9789 11.5499 14.7004V9.4504C11.5499 9.17192 11.4392 8.90485 11.2423 8.70794C11.0454 8.51102 10.7784 8.4004 10.4999 8.4004Z" fill="#00A19A"/>
</svg>
