<svg width="28" height="27" viewBox="0 0 28 27" fill="none" xmlns="http://www.w3.org/2000/svg">
<path fill-rule="evenodd" clip-rule="evenodd" d="M14 23.5232L14.8413 22.6211C15.796 21.5807 16.6547 20.5936 17.4187 19.6547L18.0493 18.8629C20.6827 15.4867 22 12.8071 22 10.8265C22 6.59894 18.4187 3.17197 14 3.17197C9.58131 3.17197 5.99996 6.59894 5.99996 10.8265C5.99996 12.8071 7.3173 15.4867 9.95064 18.8629L10.5813 19.6547C11.6712 20.9836 12.8115 22.2731 14 23.5232Z" stroke="#969696" stroke-width="1.42857" stroke-linecap="round" stroke-linejoin="round"/>
<path d="M13.9999 13.9566C15.8408 13.9566 17.3332 12.5365 17.3332 10.7847C17.3332 9.03285 15.8408 7.61272 13.9999 7.61272C12.1589 7.61272 10.6665 9.03285 10.6665 10.7847C10.6665 12.5365 12.1589 13.9566 13.9999 13.9566Z" stroke="#969696" stroke-width="1.42857" stroke-linecap="round" stroke-linejoin="round"/>
</svg>
