<svg width="75" height="77" viewBox="0 0 75 77" fill="none" xmlns="http://www.w3.org/2000/svg">
<path d="M51.6846 37.6592L51.6487 37.757C51.6599 37.7275 51.6689 37.6972 51.6801 37.6677L51.6846 37.6592Z" fill="black"/>
<path d="M37.5015 2.05334C25.143 2.05334 15 12.4329 15 25.0933C15 29.9997 16.53 34.572 19.11 38.3173L19.0178 38.1694L33.4222 63.7319L33.495 63.8297C34.0755 64.6074 34.65 65.2342 35.3452 65.7062C36.0405 66.1782 36.9308 66.4762 37.8053 66.3861C39.5528 66.2059 40.5683 64.9662 41.5065 63.6603L41.565 63.5794L57.4455 35.8332L57.4583 35.8101C57.8385 35.1056 58.1138 34.3949 58.3493 33.7065C59.4383 30.9725 59.999 28.0471 60 25.0933C60 12.4329 49.86 2.05334 37.5015 2.05334ZM37.5015 5.90334C47.817 5.90334 56.25 14.5412 56.25 25.0933C56.2507 27.558 55.7819 29.999 54.87 32.2789L54.8512 32.3267L54.8347 32.3767C54.6375 32.9596 54.423 33.4886 54.1755 33.9475L38.4563 61.4103C37.761 62.3505 37.275 62.573 37.431 62.5561C37.5112 62.5484 37.5855 62.6131 37.4137 62.496C37.2495 62.3844 36.9142 62.0571 36.5168 61.5366L22.2225 36.1643L22.1722 36.0927C20.0175 32.9665 18.75 29.1804 18.75 25.0933C18.75 14.542 27.186 5.90334 37.5015 5.90334ZM37.5015 11.9478C30.405 11.9478 24.6653 17.8199 24.6653 25.0933C24.6653 32.3667 30.4057 38.2387 37.5015 38.2387C44.5972 38.2387 50.3347 32.3659 50.3347 25.0933C50.3347 17.8199 44.5972 11.9478 37.5015 11.9478ZM37.5015 15.7978C42.6143 15.7978 46.5847 19.8673 46.5847 25.0933C46.5847 30.3193 42.615 34.3887 37.5015 34.3887C32.388 34.3887 28.4153 30.3185 28.4153 25.0933C28.4153 19.8673 32.3887 15.7978 37.5015 15.7978Z" fill="#0976B5"/>
<path d="M25.5045 53.1739C14.91 54.7108 7.5 58.3876 7.5 63.7999C7.5 71.0903 19.881 77 37.5 77C55.119 77 67.5 71.0903 67.5 63.7999C67.5 58.3876 60.0907 54.7108 49.497 53.1739L48.0292 55.7395C56.0137 56.8768 61.5 59.2669 61.5 62.0404C61.5 65.9289 50.7547 69.0805 37.5 69.0805C24.2452 69.0805 13.5 65.9289 13.5 62.0404C13.4992 59.2761 18.9495 56.8884 26.9587 55.7465C26.475 54.8887 25.989 54.0324 25.5045 53.1739Z" fill="#0976B5"/>
</svg>
