<svg width="571" height="127" viewBox="0 0 571 127" fill="none" xmlns="http://www.w3.org/2000/svg">
<g clip-path="url(#clip0_18_41)">
<mask id="mask0_18_41" style="mask-type:luminance" maskUnits="userSpaceOnUse" x="-87" y="0" width="579" height="127">
<path d="M491.168 0H-86.436V126.168H491.168V0Z" fill="white"/>
</mask>
<g mask="url(#mask0_18_41)">
<path d="M395.544 76.363V84.051H374.245C372.144 84.051 370.165 83.561 368.365 82.637C365.725 81.283 363.564 79.07 362.305 76.363C361.404 74.518 360.925 72.489 360.925 70.337V40.999H368.424V71.075C368.784 73.781 370.884 75.933 373.524 76.303L395.544 76.363Z" fill="#3DBEB5"/>
</g>
<mask id="mask1_18_41" style="mask-type:luminance" maskUnits="userSpaceOnUse" x="-87" y="0" width="579" height="127">
<path d="M491.168 0H-86.436V126.168H491.168V0Z" fill="white"/>
</mask>
<g mask="url(#mask1_18_41)">
<path d="M176.818 41.83H169.318V83.829H176.818V41.83Z" fill="#3DBEB5"/>
</g>
<mask id="mask2_18_41" style="mask-type:luminance" maskUnits="userSpaceOnUse" x="-87" y="0" width="579" height="127">
<path d="M491.168 0H-86.436V126.168H491.168V0Z" fill="white"/>
</mask>
<g mask="url(#mask2_18_41)">
<path d="M281.534 83.621H273.134L269.294 76.048L260.115 57.871L250.935 76.048L247.096 83.621H238.695L242.535 76.048L260.115 41.21L277.694 76.048L281.534 83.621Z" fill="#3DBEB5"/>
</g>
<path d="M193.026 41.214H153.277V48.714H193.026V41.214Z" fill="#3DBEB5"/>
<path d="M204.87 41.21H197.37V84.051H204.87V41.21Z" fill="#3DBEB5"/>
<path d="M215.944 41.253C225.616 41.253 233.485 47.093 233.485 54.318C233.485 57.538 231.93 60.495 229.325 62.779C229.024 63.041 228.675 63.303 228.323 63.565C225.165 65.961 220.805 67.42 215.994 67.42H198.454V41.216H215.994L215.944 41.253ZM227.222 54.356C227.222 49.712 222.159 45.933 215.945 45.933H204.67V63.66H215.945C222.157 62.779 227.222 58.998 227.222 54.356Z" fill="#3DBEB5"/>
<path d="M214.845 44.125C223.149 44.125 229.902 48.682 229.902 54.318C229.902 56.832 228.568 59.138 226.332 60.922C226.074 61.125 225.773 61.33 225.472 61.535C222.761 63.406 219.019 64.542 214.887 64.542H199.83V44.095H214.887L214.845 44.125ZM225.699 54.349C225.699 50.725 223.524 48.136 215.432 47.777H205.165V61.609H215.432C221.09 60.921 225.699 57.97 225.699 54.349Z" fill="#3DBEB5"/>
<path d="M208.531 65.763L219.811 78.673L224.525 84.052H234.851L230.13 78.673L218.454 65.297" fill="#3DBEB5"/>
<path d="M275.003 41.386L283.403 41.375L287.253 48.92L296.454 67.027L305.612 48.896L309.441 41.342L317.842 41.332L314.012 48.886L296.475 83.635L278.853 48.93L275.003 41.386Z" fill="#3DBEB5"/>
<path d="M356.376 76.4V84.051H335.077C332.976 84.051 330.997 83.563 329.197 82.644C326.557 81.297 324.396 79.093 323.137 76.4C322.236 74.564 321.757 72.545 321.757 70.402V41.205H329.256V71.137C329.616 73.83 331.716 75.972 334.356 76.34L356.376 76.4Z" fill="#3DBEB5"/>
<path d="M356.376 41.214H327.037V48.714H356.376V41.214Z" fill="#3DBEB5"/>
<path d="M352.709 59.036H323.37V66.536H352.709V59.036Z" fill="#3DBEB5"/>
<path d="M214.851 44.124C223.158 44.124 229.914 48.603 229.914 54.145C229.914 56.616 228.579 58.884 226.342 60.638C226.085 60.838 225.783 61.039 225.482 61.241C222.77 63.081 219.027 64.198 214.893 64.198H199.83V44.095H214.893L214.851 44.124ZM224.78 54.176C224.78 50.614 222.703 48.068 214.973 47.714H205.167V61.314H214.973C220.377 60.638 224.78 57.736 224.78 54.176Z" fill="#3DBEB5"/>
<path d="M61.5399 76.325V83.977H40.2409C38.1399 83.977 36.1609 83.489 34.3609 82.569C31.7209 81.223 29.5599 79.018 28.3009 76.325C27.3999 74.489 26.9209 72.47 26.9209 70.327V41.131H34.4199V71.062C34.7799 73.755 36.8799 75.898 39.5199 76.265L61.5399 76.325Z" fill="#009444"/>
<path d="M61.5399 41.14H32.2009V48.64H61.5399V41.14Z" fill="#009444"/>
<path d="M57.8729 58.962H28.5339V66.462H57.8729V58.962Z" fill="#009444"/>
<path d="M73.0749 40.979H65.5339V83.819H73.0749V40.979Z" fill="#009444"/>
<path d="M83.5939 41.022C92.9819 41.022 100.619 46.862 100.619 54.087C100.619 57.307 99.1099 60.264 96.5809 62.548C96.2889 62.81 95.9499 63.071 95.6079 63.333C92.5429 65.729 88.3119 67.188 83.6409 67.188H66.6179V40.984H83.6419L83.5939 41.022ZM94.5399 54.125C94.5399 49.481 89.6259 45.702 83.5939 45.702H72.6499V63.429H83.5939C89.6249 62.548 94.5399 58.767 94.5399 54.125Z" fill="#009444"/>
<path d="M83.0079 43.893C91.3119 43.893 98.0649 48.45 98.0649 54.086C98.0649 56.6 96.7309 58.906 94.4949 60.69C94.2369 60.893 93.9359 61.098 93.6349 61.303C90.9239 63.173 87.1819 64.309 83.0499 64.309H67.9929V43.864H83.0499L83.0079 43.893ZM93.8629 54.118C93.8629 50.494 91.6879 47.905 83.5959 47.546H73.3299V61.378H83.5969C89.2529 60.69 93.8629 57.739 93.8629 54.118Z" fill="#009444"/>
<path d="M83.0139 43.893C91.3209 43.893 98.0769 48.372 98.0769 53.914C98.0769 56.385 96.7419 58.653 94.5049 60.407C94.2479 60.607 93.9459 60.808 93.6449 61.01C90.9329 62.85 87.1899 63.966 83.0559 63.966H67.9929V43.864H83.0559L83.0139 43.893ZM92.9439 53.945C92.9439 50.383 90.8669 47.837 83.1369 47.483H73.3309V61.083H83.1369C88.5409 60.407 92.9439 57.505 92.9439 53.945Z" fill="#009444"/>
<path d="M110.87 41.058H103.37V83.899H110.87V41.058Z" fill="#009444"/>
<path d="M122.257 70.991C122.617 73.684 124.717 75.827 127.357 76.194L149.377 76.255V83.907H128.078C125.977 83.907 123.998 83.419 122.198 82.499C119.558 81.153 117.397 78.948 116.138 76.255C115.237 74.419 114.758 72.4 114.758 70.257" fill="#009444"/>
<path d="M122.257 53.976C122.617 51.283 124.717 49.14 127.357 48.773L149.377 48.712V41.06H128.078C125.977 41.06 123.998 41.548 122.198 42.468C119.558 43.814 117.397 46.019 116.138 48.712C115.237 50.548 114.758 52.567 114.758 54.71" fill="#009444"/>
<path d="M122.258 53.415H114.758V71.847H122.258V53.415Z" fill="#009444"/>
<path d="M402.396 77.625C402.396 82.596 406.425 86.625 411.396 86.625H537.5C542.471 86.625 546.5 82.596 546.5 77.625V46.542C546.5 41.571 542.471 37.542 537.5 37.542H411.396C406.425 37.542 402.396 41.571 402.396 46.542V77.625Z" stroke="#0BA6A0" stroke-width="0.5" stroke-miterlimit="10"/>
<path d="M416.3 71.2568V50.1238H424.542C426.393 50.1238 427.973 50.4157 429.281 50.9994C430.59 51.583 431.596 52.4283 432.3 53.5353C433.005 54.6423 433.357 55.9606 433.357 57.4902C433.357 59.0198 433.005 60.3381 432.3 61.4451C431.596 62.5319 430.59 63.3772 429.281 63.981C427.973 64.5647 426.393 64.8565 424.542 64.8565H417.96L419.319 63.4376V71.2568H416.3ZM419.319 63.7395L417.96 62.23H424.451C426.383 62.23 427.842 61.8174 428.829 60.9922C429.835 60.167 430.338 58.9997 430.338 57.4902C430.338 55.9807 429.835 54.8133 428.829 53.9882C427.842 53.163 426.383 52.7504 424.451 52.7504H417.96L419.319 51.2409V63.7395ZM437.075 71.2568V55.2561H439.852V59.6035L439.581 58.5166C440.024 57.4097 440.768 56.5644 441.815 55.9807C442.861 55.397 444.149 55.1052 445.679 55.1052V57.9128C445.558 57.8927 445.438 57.8826 445.317 57.8826C445.216 57.8826 445.116 57.8826 445.015 57.8826C443.465 57.8826 442.237 58.3456 441.332 59.2714C440.426 60.1972 439.973 61.5356 439.973 63.2866V71.2568H437.075ZM456.229 71.4379C454.518 71.4379 453.008 71.0857 451.7 70.3813C450.412 69.6768 449.406 68.7108 448.681 67.483C447.977 66.2553 447.624 64.8465 447.624 63.2565C447.624 61.6665 447.967 60.2576 448.651 59.0299C449.355 57.8021 450.311 56.8461 451.519 56.1618C452.747 55.4574 454.125 55.1052 455.655 55.1052C457.205 55.1052 458.573 55.4473 459.761 56.1316C460.948 56.8159 461.874 57.782 462.538 59.0299C463.223 60.2576 463.565 61.6966 463.565 63.347C463.565 63.4678 463.555 63.6087 463.535 63.7697C463.535 63.9307 463.524 64.0816 463.504 64.2225H449.889V62.1394H461.995L460.817 62.864C460.838 61.8375 460.626 60.9218 460.183 60.1167C459.741 59.3116 459.127 58.6877 458.342 58.2449C457.577 57.782 456.681 57.5506 455.655 57.5506C454.649 57.5506 453.753 57.782 452.968 58.2449C452.183 58.6877 451.569 59.3217 451.126 60.1469C450.684 60.952 450.462 61.8778 450.462 62.9244V63.4074C450.462 64.4741 450.704 65.4301 451.187 66.2754C451.69 67.1006 452.384 67.7447 453.27 68.2076C454.156 68.6705 455.172 68.902 456.319 68.902C457.265 68.902 458.12 68.741 458.885 68.4189C459.67 68.0969 460.355 67.6139 460.938 66.9698L462.538 68.8416C461.814 69.6869 460.908 70.331 459.821 70.7737C458.754 71.2165 457.557 71.4379 456.229 71.4379ZM471.491 71.2568L464.487 55.2561H467.506L473.725 69.7473H472.276L478.616 55.2561H481.453L474.449 71.2568H471.491ZM484.158 71.2568V55.2561H487.056V71.2568H484.158ZM485.607 52.1768C485.044 52.1768 484.571 51.9956 484.188 51.6333C483.826 51.2711 483.645 50.8283 483.645 50.305C483.645 49.7616 483.826 49.3087 484.188 48.9464C484.571 48.5842 485.044 48.403 485.607 48.403C486.171 48.403 486.634 48.5842 486.996 48.9464C487.378 49.2886 487.57 49.7213 487.57 50.2446C487.57 50.788 487.389 51.2509 487.026 51.6333C486.664 51.9956 486.191 52.1768 485.607 52.1768ZM499.715 71.4379C498.004 71.4379 496.495 71.0857 495.186 70.3813C493.898 69.6768 492.892 68.7108 492.168 67.483C491.463 66.2553 491.111 64.8465 491.111 63.2565C491.111 61.6665 491.453 60.2576 492.137 59.0299C492.842 57.8021 493.798 56.8461 495.005 56.1618C496.233 55.4574 497.612 55.1052 499.141 55.1052C500.691 55.1052 502.06 55.4473 503.247 56.1316C504.435 56.8159 505.36 57.782 506.025 59.0299C506.709 60.2576 507.051 61.6966 507.051 63.347C507.051 63.4678 507.041 63.6087 507.021 63.7697C507.021 63.9307 507.011 64.0816 506.991 64.2225H493.375V62.1394H505.481L504.304 62.864C504.324 61.8375 504.113 60.9218 503.67 60.1167C503.227 59.3116 502.613 58.6877 501.828 58.2449C501.063 57.782 500.168 57.5506 499.141 57.5506C498.135 57.5506 497.239 57.782 496.454 58.2449C495.67 58.6877 495.056 59.3217 494.613 60.1469C494.17 60.952 493.949 61.8778 493.949 62.9244V63.4074C493.949 64.4741 494.19 65.4301 494.673 66.2754C495.176 67.1006 495.871 67.7447 496.756 68.2076C497.642 68.6705 498.658 68.902 499.806 68.902C500.751 68.902 501.607 68.741 502.372 68.4189C503.157 68.0969 503.841 67.6139 504.425 66.9698L506.025 68.8416C505.3 69.6869 504.394 70.331 503.308 70.7737C502.241 71.2165 501.043 71.4379 499.715 71.4379ZM514.162 71.2568L508.215 55.2561H510.962L516.245 69.7473H514.947L520.442 55.2561H522.887L528.261 69.7473H526.993L532.397 55.2561H534.993L529.015 71.2568H526.238L521.196 58.0336H522.042L516.939 71.2568H514.162Z" fill="#0BA6A0"/>
</g>
<defs>
<clipPath id="clip0_18_41">
<rect width="570.725" height="126.168" fill="white"/>
</clipPath>
</defs>
</svg>
