<?xml version="1.0" encoding="utf-8"?>
<!-- Generator: Adobe Illustrator 16.0.0, SVG Export Plug-In . SVG Version: 6.00 Build 0)  -->
<!DOCTYPE svg PUBLIC "-//W3C//DTD SVG 1.1//EN" "http://www.w3.org/Graphics/SVG/1.1/DTD/svg11.dtd">
<svg version="1.1" id="Layer_1" xmlns="http://www.w3.org/2000/svg" xmlns:xlink="http://www.w3.org/1999/xlink" x="0px" y="0px"
	 width="570.725px" height="126.168px" viewBox="0 0 570.725 126.168" enable-background="new 0 0 570.725 126.168"
	 xml:space="preserve">
<g>
	<defs>
		<rect id="SVGID_1_" x="-86.436" width="577.604" height="126.168"/>
	</defs>
	<clipPath id="SVGID_2_">
		<use xlink:href="#SVGID_1_"  overflow="visible"/>
	</clipPath>
	<path clip-path="url(#SVGID_2_)" fill="#3DBEB5" d="M395.544,76.363v7.688h-21.299c-2.101,0-4.08-0.49-5.88-1.414
		c-2.64-1.354-4.801-3.567-6.06-6.274c-0.901-1.845-1.38-3.874-1.38-6.026V40.999h7.499v30.076c0.36,2.706,2.46,4.858,5.1,5.228
		L395.544,76.363z"/>
	<rect x="169.318" y="41.83" clip-path="url(#SVGID_2_)" fill="#3DBEB5" width="7.5" height="41.999"/>
	<polygon clip-path="url(#SVGID_2_)" fill="#3DBEB5" points="281.534,83.621 273.134,83.621 269.294,76.048 260.115,57.871 
		250.935,76.048 247.096,83.621 238.695,83.621 242.535,76.048 260.115,41.21 277.694,76.048 	"/>
</g>
<rect x="153.277" y="41.214" fill="#3DBEB5" width="39.749" height="7.5"/>
<rect x="197.37" y="41.21" fill="#3DBEB5" width="7.5" height="42.841"/>
<path fill="#3DBEB5" d="M215.944,41.253c9.672,0,17.541,5.84,17.541,13.065c0,3.22-1.555,6.177-4.16,8.461
	c-0.301,0.262-0.65,0.524-1.002,0.786c-3.158,2.396-7.518,3.855-12.329,3.855h-17.54V41.216h17.54L215.944,41.253z M227.222,54.356
	c0-4.644-5.063-8.423-11.277-8.423h-11.275V63.66h11.275C222.157,62.779,227.222,58.998,227.222,54.356"/>
<path fill="#3DBEB5" d="M214.845,44.125c8.304,0,15.057,4.557,15.057,10.193c0,2.514-1.334,4.82-3.57,6.604
	c-0.258,0.203-0.559,0.408-0.86,0.613c-2.711,1.871-6.453,3.007-10.585,3.007h-15.057V44.095h15.057L214.845,44.125z
	 M225.699,54.349c0-3.624-2.175-6.213-10.267-6.572h-10.267v13.832h10.267C221.09,60.921,225.699,57.97,225.699,54.349"/>
<polyline fill="#3DBEB5" points="208.531,65.763 219.811,78.673 224.525,84.052 234.851,84.052 230.13,78.673 218.454,65.297 "/>
<polygon fill="#3DBEB5" points="275.003,41.386 283.403,41.375 287.253,48.92 296.454,67.027 305.612,48.896 309.441,41.342 
	317.842,41.332 314.012,48.886 296.475,83.635 278.853,48.93 "/>
<path fill="#3DBEB5" d="M356.376,76.4v7.651h-21.299c-2.101,0-4.08-0.488-5.88-1.407c-2.64-1.347-4.801-3.551-6.06-6.244
	c-0.901-1.836-1.38-3.855-1.38-5.998V41.205h7.499v29.932c0.36,2.693,2.46,4.835,5.1,5.203L356.376,76.4z"/>
<rect x="327.037" y="41.214" fill="#3DBEB5" width="29.339" height="7.5"/>
<rect x="323.37" y="59.036" fill="#3DBEB5" width="29.339" height="7.5"/>
<path fill="#3DBEB5" d="M214.851,44.124c8.307,0,15.063,4.479,15.063,10.021c0,2.471-1.335,4.739-3.572,6.493
	c-0.257,0.2-0.559,0.401-0.86,0.603c-2.712,1.84-6.455,2.957-10.589,2.957h-15.063V44.095h15.063L214.851,44.124z M224.78,54.176
	c0-3.562-2.077-6.108-9.807-6.462h-9.806v13.6h9.806C220.377,60.638,224.78,57.736,224.78,54.176"/>
<path fill="#009444" d="M61.54,76.325v7.652H40.241c-2.101,0-4.08-0.488-5.88-1.408c-2.64-1.346-4.801-3.551-6.06-6.244
	c-0.901-1.836-1.38-3.855-1.38-5.998V41.131h7.499v29.931c0.36,2.693,2.46,4.836,5.1,5.203L61.54,76.325z"/>
<rect x="32.201" y="41.14" fill="#009444" width="29.339" height="7.5"/>
<rect x="28.534" y="58.962" fill="#009444" width="29.339" height="7.5"/>
<rect x="65.534" y="40.979" fill="#009444" width="7.541" height="42.84"/>
<path fill="#009444" d="M83.594,41.022c9.388,0,17.025,5.84,17.025,13.065c0,3.22-1.509,6.177-4.038,8.461
	c-0.292,0.262-0.631,0.523-0.973,0.785c-3.065,2.396-7.296,3.855-11.967,3.855H66.618V40.984h17.024L83.594,41.022z M94.54,54.125
	c0-4.644-4.914-8.423-10.946-8.423H72.65v17.727h10.944C89.625,62.548,94.54,58.767,94.54,54.125"/>
<path fill="#009444" d="M83.008,43.893c8.304,0,15.057,4.557,15.057,10.193c0,2.514-1.334,4.82-3.57,6.604
	c-0.258,0.203-0.559,0.408-0.86,0.613c-2.711,1.87-6.453,3.006-10.585,3.006H67.993V43.864h15.057L83.008,43.893z M93.863,54.118
	c0-3.624-2.175-6.213-10.267-6.572H73.33v13.832h10.267C89.253,60.69,93.863,57.739,93.863,54.118"/>
<path fill="#009444" d="M83.014,43.893c8.307,0,15.063,4.479,15.063,10.021c0,2.471-1.335,4.739-3.572,6.493
	c-0.257,0.2-0.559,0.401-0.86,0.603c-2.712,1.84-6.455,2.956-10.589,2.956H67.993V43.864h15.063L83.014,43.893z M92.944,53.945
	c0-3.562-2.077-6.108-9.807-6.462h-9.806v13.6h9.806C88.541,60.407,92.944,57.505,92.944,53.945"/>
<rect x="103.37" y="41.058" fill="#009444" width="7.5" height="42.841"/>
<path fill="#009444" d="M122.257,70.991c0.36,2.693,2.46,4.836,5.1,5.203l22.02,0.061v7.652h-21.299c-2.101,0-4.08-0.488-5.88-1.408
	c-2.64-1.346-4.801-3.551-6.06-6.244c-0.901-1.836-1.38-3.855-1.38-5.998"/>
<path fill="#009444" d="M122.257,53.976c0.36-2.693,2.46-4.836,5.1-5.203l22.02-0.061V41.06h-21.299c-2.101,0-4.08,0.488-5.88,1.408
	c-2.64,1.346-4.801,3.551-6.06,6.244c-0.901,1.836-1.38,3.855-1.38,5.998"/>
<rect x="114.758" y="53.415" fill="#009444" width="7.5" height="18.432"/>
<g>
	<path fill="none" stroke="#0BA6A0" stroke-width="0.5" stroke-miterlimit="10" d="M402.436,78.309c0,4.971,4.029,9,9,9h126.104
		c4.971,0,9-4.029,9-9V47.227c0-4.971-4.029-9-9-9H411.436c-4.971,0-9,4.029-9,9V78.309z"/>
</g>
<text transform="matrix(1.0127 0 0 1 413.0918 71.5732)" fill="#0BA6A0" font-family="'Montserrat-Medium'" font-size="30">Preview</text>
</svg>
