<?xml version="1.0" encoding="UTF-8"?>
<svg xmlns="http://www.w3.org/2000/svg" xmlns:xlink="http://www.w3.org/1999/xlink" width="305px" height="67px" viewBox="0 0 303 67" version="1.1">
<g id="surface1">
<path style=" stroke:none;fill-rule:nonzero;fill:rgb(0%,58.039216%,26.666667%);fill-opacity:1;" d="M 53.746094 21.886719 L 53.746094 44.488281 L 49.769531 44.488281 L 49.769531 34.125 L 35.441406 34.125 L 35.441406 44.488281 L 31.460938 44.488281 L 31.460938 21.886719 L 35.441406 21.886719 L 35.441406 30.085938 L 49.769531 30.085938 L 49.769531 21.886719 Z M 53.746094 21.886719 "/>
<path style=" stroke:none;fill-rule:nonzero;fill:rgb(0%,58.039216%,26.666667%);fill-opacity:1;" d="M 78.390625 44.488281 L 73.933594 44.488281 L 71.894531 40.460938 L 67.023438 30.792969 L 62.152344 40.460938 L 60.117188 44.488281 L 55.660156 44.488281 L 57.695312 40.460938 L 67.023438 21.933594 L 76.351562 40.460938 Z M 78.390625 44.488281 "/>
<path style=" stroke:none;fill-rule:nonzero;fill:rgb(0%,58.039216%,26.666667%);fill-opacity:1;" d="M 97.84375 40.476562 L 97.84375 44.519531 L 86.542969 44.519531 C 85.429688 44.519531 84.378906 44.261719 83.421875 43.773438 C 82.023438 43.0625 80.875 41.898438 80.207031 40.476562 C 79.730469 39.503906 79.476562 38.4375 79.476562 37.304688 L 79.476562 21.875 L 83.453125 21.875 L 83.453125 37.691406 C 83.644531 39.117188 84.761719 40.25 86.160156 40.441406 Z M 97.84375 40.476562 "/>
<path style=" stroke:none;fill-rule:nonzero;fill:rgb(0%,58.039216%,26.666667%);fill-opacity:1;" d="M 122.488281 44.488281 L 118.03125 44.488281 L 115.992188 40.457031 L 111.121094 30.792969 L 106.25 40.457031 L 104.214844 44.488281 L 99.753906 44.488281 L 101.792969 40.457031 L 111.121094 21.929688 L 120.449219 40.457031 Z M 122.488281 44.488281 "/>
<path style=" stroke:none;fill-rule:nonzero;fill:rgb(0%,58.039216%,26.666667%);fill-opacity:1;" d="M 141.941406 40.492188 L 141.941406 44.519531 L 130.640625 44.519531 C 129.523438 44.519531 128.472656 44.261719 127.519531 43.777344 C 126.117188 43.070312 124.972656 41.910156 124.304688 40.492188 C 123.824219 39.527344 123.570312 38.464844 123.570312 37.339844 L 123.570312 21.980469 L 127.550781 21.980469 L 127.550781 37.726562 C 127.742188 39.140625 128.855469 40.269531 130.257812 40.460938 Z M 141.941406 40.492188 "/>
<path style=" stroke:none;fill-rule:nonzero;fill:rgb(23.921569%,74.509804%,70.980392%);fill-opacity:1;" d="M 269.777344 40.625 L 269.777344 44.710938 L 258.476562 44.710938 C 257.359375 44.710938 256.308594 44.449219 255.355469 43.960938 C 253.953125 43.238281 252.808594 42.0625 252.140625 40.625 C 251.660156 39.640625 251.40625 38.5625 251.40625 37.417969 L 251.40625 21.816406 L 255.386719 21.816406 L 255.386719 37.8125 C 255.578125 39.25 256.691406 40.394531 258.09375 40.589844 Z M 269.777344 40.625 "/>
<path style=" stroke:none;fill-rule:nonzero;fill:rgb(23.921569%,74.509804%,70.980392%);fill-opacity:1;" d="M 149.730469 22.261719 L 153.710938 22.261719 L 153.710938 44.59375 L 149.730469 44.59375 Z M 149.730469 22.261719 "/>
<path style=" stroke:none;fill-rule:nonzero;fill:rgb(23.921569%,74.509804%,70.980392%);fill-opacity:1;" d="M 209.277344 44.480469 L 204.820312 44.480469 L 202.785156 40.457031 L 197.914062 30.789062 L 193.039062 40.457031 L 191.003906 44.480469 L 186.546875 44.480469 L 188.582031 40.457031 L 197.914062 21.929688 L 207.242188 40.457031 Z M 209.277344 44.480469 "/>
<path style=" stroke:none;fill-rule:nonzero;fill:rgb(23.921569%,74.509804%,70.980392%);fill-opacity:1;" d="M 141.21875 21.933594 L 162.3125 21.933594 L 162.3125 25.921875 L 141.21875 25.921875 Z M 141.21875 21.933594 "/>
<path style=" stroke:none;fill-rule:nonzero;fill:rgb(23.921569%,74.509804%,70.980392%);fill-opacity:1;" d="M 164.617188 21.929688 L 168.597656 21.929688 L 168.597656 44.710938 L 164.617188 44.710938 Z M 164.617188 21.929688 "/>
<path style=" stroke:none;fill-rule:nonzero;fill:rgb(23.921569%,74.509804%,70.980392%);fill-opacity:1;" d="M 174.835938 21.953125 C 180.167969 21.953125 184.507812 25.058594 184.507812 28.902344 C 184.507812 30.613281 183.648438 32.183594 182.214844 33.398438 C 182.046875 33.539062 181.855469 33.679688 181.660156 33.816406 C 179.917969 35.09375 177.515625 35.867188 174.863281 35.867188 L 165.191406 35.867188 L 165.191406 21.933594 L 174.863281 21.933594 Z M 181.054688 28.921875 C 181.054688 26.453125 178.261719 24.441406 174.835938 24.441406 L 168.617188 24.441406 L 168.617188 33.867188 L 174.835938 33.867188 C 178.261719 33.398438 181.054688 31.390625 181.054688 28.921875 "/>
<path style=" stroke:none;fill-rule:nonzero;fill:rgb(23.921569%,74.509804%,70.980392%);fill-opacity:1;" d="M 173.890625 23.480469 C 178.296875 23.480469 181.878906 25.902344 181.878906 28.902344 C 181.878906 30.238281 181.171875 31.464844 179.984375 32.410156 C 179.847656 32.519531 179.6875 32.628906 179.527344 32.738281 C 178.089844 33.734375 176.105469 34.335938 173.910156 34.335938 L 165.921875 34.335938 L 165.921875 23.464844 L 173.910156 23.464844 Z M 179.648438 28.917969 C 179.648438 26.988281 178.496094 25.613281 174.203125 25.421875 L 168.753906 25.421875 L 168.753906 32.777344 L 174.203125 32.777344 C 177.203125 32.410156 179.648438 30.84375 179.648438 28.917969 "/>
<path style=" stroke:none;fill-rule:nonzero;fill:rgb(23.921569%,74.509804%,70.980392%);fill-opacity:1;" d="M 170.539062 34.984375 L 176.523438 41.851562 L 179.027344 44.710938 L 184.503906 44.710938 L 182 41.851562 L 175.804688 34.738281 "/>
<path style=" stroke:none;fill-rule:nonzero;fill:rgb(23.921569%,74.509804%,70.980392%);fill-opacity:1;" d="M 205.8125 22.023438 L 210.269531 22.019531 L 212.3125 26.03125 L 217.195312 35.660156 L 222.054688 26.019531 L 224.085938 22 L 228.542969 21.996094 L 226.511719 26.011719 L 217.207031 44.488281 L 207.855469 26.035156 Z M 205.8125 22.023438 "/>
<path style=" stroke:none;fill-rule:nonzero;fill:rgb(23.921569%,74.509804%,70.980392%);fill-opacity:1;" d="M 248.992188 40.644531 L 248.992188 44.710938 L 237.691406 44.710938 C 236.574219 44.710938 235.527344 44.453125 234.570312 43.964844 C 233.167969 43.246094 232.023438 42.074219 231.355469 40.644531 C 230.878906 39.667969 230.621094 38.59375 230.621094 37.453125 L 230.621094 21.925781 L 234.601562 21.925781 L 234.601562 37.84375 C 234.792969 39.277344 235.90625 40.414062 237.308594 40.609375 Z M 248.992188 40.644531 "/>
<path style=" stroke:none;fill-rule:nonzero;fill:rgb(23.921569%,74.509804%,70.980392%);fill-opacity:1;" d="M 233.425781 21.933594 L 248.992188 21.933594 L 248.992188 25.921875 L 233.425781 25.921875 Z M 233.425781 21.933594 "/>
<path style=" stroke:none;fill-rule:nonzero;fill:rgb(23.921569%,74.509804%,70.980392%);fill-opacity:1;" d="M 231.480469 31.410156 L 247.046875 31.410156 L 247.046875 35.398438 L 231.480469 35.398438 Z M 231.480469 31.410156 "/>
<path style=" stroke:none;fill-rule:nonzero;fill:rgb(23.921569%,74.509804%,70.980392%);fill-opacity:1;" d="M 173.894531 23.480469 C 178.300781 23.480469 181.886719 25.863281 181.886719 28.808594 C 181.886719 30.121094 181.175781 31.328125 179.992188 32.261719 C 179.855469 32.367188 179.695312 32.472656 179.535156 32.582031 C 178.09375 33.558594 176.109375 34.152344 173.914062 34.152344 L 165.921875 34.152344 L 165.921875 23.464844 L 173.914062 23.464844 Z M 179.164062 28.824219 C 179.164062 26.929688 178.058594 25.578125 173.957031 25.390625 L 168.753906 25.390625 L 168.753906 32.621094 L 173.957031 32.621094 C 176.824219 32.261719 179.164062 30.71875 179.164062 28.824219 "/>
</g>
</svg>
