<?xml version="1.0" encoding="utf-8"?>
<!-- Generator: Adobe Illustrator 16.0.0, SVG Export Plug-In . SVG Version: 6.00 Build 0)  -->
<!DOCTYPE svg PUBLIC "-//W3C//DTD SVG 1.1//EN" "http://www.w3.org/Graphics/SVG/1.1/DTD/svg11.dtd">
<svg version="1.1" id="Layer_1" xmlns="http://www.w3.org/2000/svg" xmlns:xlink="http://www.w3.org/1999/xlink" x="0px" y="0px"
	 width="570.725px" height="126.168px" viewBox="0 0 570.725 126.168" enable-background="new 0 0 570.725 126.168"
	 xml:space="preserve">
<g>
	<defs>
		<rect id="SVGID_1_" width="570.725" height="126.168"/>
	</defs>
	<clipPath id="SVGID_2_">
		<use xlink:href="#SVGID_1_"  overflow="visible"/>
	</clipPath>
	<path clip-path="url(#SVGID_2_)" fill="#3DBEB5" d="M475.101,76.363v7.688h-21.299c-2.101,0-4.08-0.49-5.88-1.414
		c-2.64-1.354-4.801-3.567-6.06-6.274c-0.901-1.845-1.38-3.874-1.38-6.026V40.999h7.499v30.076c0.36,2.706,2.46,4.858,5.1,5.228
		L475.101,76.363z"/>
	<rect x="248.875" y="41.83" clip-path="url(#SVGID_2_)" fill="#3DBEB5" width="7.5" height="41.999"/>
	<polygon clip-path="url(#SVGID_2_)" fill="#3DBEB5" points="361.091,83.621 352.69,83.621 348.851,76.048 339.672,57.871 
		330.491,76.048 326.652,83.621 318.252,83.621 322.092,76.048 339.672,41.21 357.251,76.048 	"/>
</g>
<rect x="232.834" y="41.214" fill="#3DBEB5" width="39.749" height="7.5"/>
<rect x="276.927" y="41.21" fill="#3DBEB5" width="7.5" height="42.841"/>
<path fill="#3DBEB5" d="M295.501,41.253c9.672,0,17.541,5.84,17.541,13.065c0,3.22-1.555,6.177-4.16,8.461
	c-0.301,0.262-0.65,0.524-1.002,0.786c-3.158,2.396-7.518,3.855-12.329,3.855h-17.54V41.216h17.54L295.501,41.253z M306.778,54.356
	c0-4.644-5.063-8.423-11.277-8.423h-11.275V63.66h11.275C301.714,62.779,306.778,58.998,306.778,54.356"/>
<path fill="#3DBEB5" d="M294.401,44.125c8.304,0,15.057,4.557,15.057,10.193c0,2.514-1.334,4.82-3.57,6.604
	c-0.258,0.203-0.559,0.408-0.86,0.613c-2.711,1.871-6.453,3.007-10.585,3.007h-15.057V44.095h15.057L294.401,44.125z
	 M305.256,54.349c0-3.624-2.175-6.213-10.267-6.572h-10.267v13.832h10.267C300.646,60.921,305.256,57.97,305.256,54.349"/>
<polyline fill="#3DBEB5" points="288.088,65.763 299.367,78.673 304.082,84.052 314.407,84.052 309.687,78.673 298.011,65.297 "/>
<polygon fill="#3DBEB5" points="354.56,41.386 362.96,41.375 366.81,48.92 376.011,67.027 385.169,48.896 388.998,41.342 
	397.398,41.332 393.568,48.886 376.031,83.635 358.409,48.93 "/>
<path fill="#3DBEB5" d="M435.933,76.4v7.651h-21.299c-2.101,0-4.08-0.488-5.88-1.407c-2.64-1.347-4.801-3.551-6.06-6.244
	c-0.901-1.836-1.38-3.855-1.38-5.998V41.205h7.499v29.932c0.36,2.693,2.46,4.835,5.1,5.203L435.933,76.4z"/>
<rect x="406.594" y="41.214" fill="#3DBEB5" width="29.339" height="7.5"/>
<rect x="402.927" y="59.036" fill="#3DBEB5" width="29.339" height="7.5"/>
<path fill="#3DBEB5" d="M294.407,44.124c8.307,0,15.063,4.479,15.063,10.021c0,2.471-1.335,4.739-3.572,6.493
	c-0.257,0.2-0.559,0.401-0.86,0.603c-2.712,1.84-6.455,2.957-10.589,2.957h-15.063V44.095h15.063L294.407,44.124z M304.337,54.176
	c0-3.562-2.077-6.108-9.807-6.462h-9.806v13.6h9.806C299.934,60.638,304.337,57.736,304.337,54.176"/>
<path fill="#009444" d="M141.096,76.325v7.652h-21.299c-2.101,0-4.08-0.488-5.88-1.408c-2.64-1.346-4.801-3.551-6.06-6.244
	c-0.901-1.836-1.38-3.855-1.38-5.998V41.131h7.499v29.931c0.36,2.693,2.46,4.836,5.1,5.203L141.096,76.325z"/>
<rect x="111.757" y="41.14" fill="#009444" width="29.339" height="7.5"/>
<rect x="108.09" y="58.962" fill="#009444" width="29.339" height="7.5"/>
<rect x="145.09" y="40.979" fill="#009444" width="7.541" height="42.84"/>
<path fill="#009444" d="M163.151,41.022c9.388,0,17.025,5.84,17.025,13.065c0,3.22-1.509,6.177-4.038,8.461
	c-0.292,0.262-0.631,0.523-0.973,0.785c-3.065,2.396-7.296,3.855-11.967,3.855h-17.024V40.984h17.024L163.151,41.022z
	 M174.097,54.125c0-4.644-4.914-8.423-10.946-8.423h-10.944v17.727h10.944C169.181,62.548,174.097,58.767,174.097,54.125"/>
<path fill="#009444" d="M162.565,43.893c8.304,0,15.057,4.557,15.057,10.193c0,2.514-1.334,4.82-3.57,6.604
	c-0.258,0.203-0.559,0.408-0.86,0.613c-2.711,1.87-6.453,3.006-10.585,3.006h-15.057V43.864h15.057L162.565,43.893z M173.419,54.118
	c0-3.624-2.175-6.213-10.267-6.572h-10.267v13.832h10.267C168.81,60.69,173.419,57.739,173.419,54.118"/>
<path fill="#009444" d="M162.571,43.893c8.307,0,15.063,4.479,15.063,10.021c0,2.471-1.335,4.739-3.572,6.493
	c-0.257,0.2-0.559,0.401-0.86,0.603c-2.712,1.84-6.455,2.956-10.589,2.956h-15.063V43.864h15.063L162.571,43.893z M172.5,53.945
	c0-3.562-2.077-6.108-9.807-6.462h-9.806v13.6h9.806C168.097,60.407,172.5,57.505,172.5,53.945"/>
<rect x="182.927" y="41.058" fill="#009444" width="7.5" height="42.841"/>
<path fill="#009444" d="M201.813,70.991c0.36,2.693,2.46,4.836,5.1,5.203l22.02,0.061v7.652h-21.299c-2.101,0-4.08-0.488-5.88-1.408
	c-2.64-1.346-4.801-3.551-6.06-6.244c-0.901-1.836-1.38-3.855-1.38-5.998"/>
<path fill="#009444" d="M201.813,53.976c0.36-2.693,2.46-4.836,5.1-5.203l22.02-0.061V41.06h-21.299c-2.101,0-4.08,0.488-5.88,1.408
	c-2.64,1.346-4.801,3.551-6.06,6.244c-0.901,1.836-1.38,3.855-1.38,5.998"/>
<rect x="194.314" y="53.415" fill="#009444" width="7.5" height="18.432"/>
</svg>
