<svg xmlns="http://www.w3.org/2000/svg" shape-rendering="geometricPrecision" text-rendering="geometricPrecision" image-rendering="optimizeQuality" fill-rule="evenodd" clip-rule="evenodd" viewBox="0 0 39.35 27.42"><g fill-rule="nonzero"><path fill="#D21034" d="M2.23.08h34.89c1.18 0 2.15.97 2.15 2.15v22.96c0 1.18-.97 2.15-2.15 2.15H2.23a2.16 2.16 0 01-2.15-2.15V2.23c0-1.18.97-2.15 2.15-2.15z"/><path fill="#007E3A" d="M5.57 20.76h28.21V6.66H5.57z"/><path fill="#fff" d="M22.32 9.09c-.29-.05-.58-.08-.88-.08-2.6 0-4.7 2.1-4.7 4.7s2.1 4.7 4.7 4.7c.3 0 .59-.03.88-.08a4.694 4.694 0 01-3.82-4.62c0-2.3 1.64-4.21 3.82-4.62z"/><path fill="#CCC" d="M2.23 0h34.89c.61 0 1.17.25 1.57.66.41.4.66.96.66 1.57v22.96c0 .61-.25 1.17-.66 1.57-.4.41-.96.66-1.57.66H2.23c-.61 0-1.17-.25-1.57-.65-.41-.41-.66-.97-.66-1.58V2.23C0 1.62.25 1.06.66.66 1.06.25 1.62 0 2.23 0zm34.89.15H2.23C1.66.15 1.14.39.76.76c-.37.38-.61.9-.61 1.47v22.96c0 .57.24 1.09.61 1.47.38.37.9.61 1.47.61h34.89c.57 0 1.09-.24 1.47-.61.37-.38.61-.9.61-1.47V2.23c0-.57-.24-1.09-.61-1.47-.38-.37-.9-.61-1.47-.61z"/></g></svg>