<svg id="SvgjsSvg1026" width="288" height="288" xmlns="http://www.w3.org/2000/svg" version="1.1" xmlns:xlink="http://www.w3.org/1999/xlink" xmlns:svgjs="http://svgjs.com/svgjs"><defs id="SvgjsDefs1027"></defs><g id="SvgjsG1028"><svg xmlns="http://www.w3.org/2000/svg" id="Layer_1" x="0" y="0" version="1.1" viewBox="0 0 29 29" xml:space="preserve" width="288" height="288"><path d="m25 12.54-8.295.166-6.413-6.413A.995.995 0 0 0 9.586 6h-.777a.5.5 0 0 0-.447.724l3.044 6.088-7.644.153-.805-1.812c-.219-.493-.957-.337-.957.203v6.288c0 .54.738.697.957.203l.805-1.812 7.644.153-3.044 6.088a.5.5 0 0 0 .447.724h.777c.265 0 .52-.105.707-.293l6.413-6.413L25 16.46a1.96 1.96 0 1 0 0-3.92z" fill="#dddfe2" class="color000 svgShape"></path></svg></g></svg>