<svg width="720" height="720" xmlns="http://www.w3.org/2000/svg" xmlns:xlink="http://www.w3.org/1999/xlink" xml:space="preserve" overflow="hidden"><defs><clipPath id="clip0"><rect x="280" y="0" width="720" height="720"/></clipPath></defs><g clip-path="url(#clip0)" transform="translate(-280 0)"><path d="M369.127 270.907C319.869 270.907 280 310.753 280 359.989 280 409.224 319.824 449.093 369.127 449.093 418.295 449.093 458.209 409.292 458.209 359.989 458.209 310.753 418.295 270.907 369.127 270.907ZM644.616 270.907C595.47 270.907 555.489 310.731 555.489 359.966 555.489 409.202 595.425 449.071 644.616 449.071 693.806 449.071 733.788 409.269 733.788 359.966 733.743 310.753 693.806 270.907 644.616 270.907ZM910.941 270.907C861.705 270.907 821.791 310.753 821.791 360.011 821.791 409.202 861.638 449.071 910.941 449.071 960.086 449.071 1000 409.269 1000 360.011 1000 310.753 960.086 270.907 910.941 270.907Z" fill="#FFFFFF"/></g></svg>