<!DOCTYPE svg PUBLIC "-//W3C//DTD SVG 1.1//EN" "http://www.w3.org/Graphics/SVG/1.1/DTD/svg11.dtd">
<!-- Uploaded to: SVG Repo, www.svgrepo.com, Transformed by: SVG Repo Mixer Tools -->
<svg fill="#013580" version="1.1" id="Layer_1" xmlns="http://www.w3.org/2000/svg" xmlns:xlink="http://www.w3.org/1999/xlink" viewBox="0 0 512 512" xml:space="preserve" width="231px" height="231px" stroke="#013580" stroke-width="4.608">
<g id="SVGRepo_bgCarrier" stroke-width="0"/>
<g id="SVGRepo_iconCarrier"> <g> <g> <path d="M50.478,512h411.044l-80.754-145.691h-78.529c35.889-64.234,84.68-159.651,84.68-203.653 c0-66.316-50.604-121.063-115.062-127.855V0h-81.171v53.336c-37.799,23.365-60.882,64.338-60.882,109.319 c0,44.002,48.796,139.42,84.688,203.653h-83.261L50.478,512z M271.857,103.024h40.585v48.911h-40.585V103.024z M206.296,62.403 c0.248-0.129,0.49-0.266,0.739-0.393l-0.739-1.445V15.61h49.951v136.325h-49.951V62.403z M204.903,315.782 c-38.917-74.164-59.489-127.114-59.489-153.126c0-36.147,16.964-69.354,45.272-90.47v79.749h-7.285v15.61h152.976v-15.61h-8.325 v-64.52h-56.195V50.507c56.049,6.693,99.452,54.431,99.452,112.149c0,26.003-20.534,78.928-59.426,153.054 c-21.371,40.73-42.953,77.612-53.509,95.307C247.826,393.335,226.269,356.497,204.903,315.782z M273.431,416.26h73.938 l24.035,46.829H140.596l24.035-46.829h78.674c4.666,7.834,7.701,12.796,8.417,13.962l6.653,10.84l6.641-10.84 C265.731,429.056,268.766,424.094,273.431,416.26z M222.947,381.919v-0.625c4.014,7.048,7.769,13.548,11.158,19.357h-79.009 l-40.057,78.049h281.921l-40.057-78.049h-74.273c3.288-5.637,6.921-11.924,10.801-18.732h78.142l63.45,114.472H76.978 l63.449-114.472H222.947z"/> </g> </g> <g> <g> <rect x="223.99" y="30.179" width="15.61" height="24.976"/> </g> </g> <g> <g> <rect x="223.99" y="62.439" width="15.61" height="23.935"/> </g> </g> <g> <g> <rect x="223.99" y="94.699" width="15.61" height="23.935"/> </g> </g> <g> <g> <rect x="190.689" y="183.154" width="137.366" height="15.61"/> </g> </g> <g> <g> <rect x="239.599" y="215.415" width="40.585" height="15.61"/> </g> </g> <g> <g> <rect x="214.624" y="247.675" width="89.496" height="15.61"/> </g> </g> <g> <g> <rect x="214.624" y="278.894" width="17.691" height="15.61"/> </g> </g> <g> <g> <rect x="239.599" y="278.894" width="16.65" height="15.61"/> </g> </g> <g> <g> <rect x="263.534" y="278.894" width="16.65" height="15.61"/> </g> </g> <g> <g> <rect x="287.469" y="278.894" width="16.65" height="15.61"/> </g> </g> <g> <g> <rect x="239.599" y="311.154" width="40.585" height="15.61"/> </g> </g> <g> <g> <rect x="280.185" y="110.309" width="23.935" height="15.61"/> </g> </g> </g>
</svg>